<?xml version="1.0" encoding="UTF-8"?><svg id="Camada_2" xmlns="http://www.w3.org/2000/svg" width="48" height="48" viewBox="0 0 48 48"><defs><style>.cls-1{fill:#fff;}.cls-2{fill:#0866ff;}</style></defs><g id="Facebook"><path class="cls-2" d="M48,24C48,10.7,37.3,0,24,0S0,10.7,0,24s7.7,20.7,18.2,23.3v-16h-4.9v-7.3h4.9v-3.2c0-8.2,3.7-12,11.7-12s4.1.3,5.2.6v6.6c-.6,0-1.6,0-2.8,0-3.9,0-5.5,1.5-5.5,5.4v2.6h7.8l-1.3,7.3h-6.5v16.5c11.9-1.4,21.1-11.6,21.1-23.8h0Z"/><path class="cls-1" d="M33.4,31.3l1.3-7.3h-7.8v-2.6c0-3.9,1.5-5.4,5.5-5.4s2.2,0,2.8,0v-6.6c-1.1-.3-3.7-.6-5.2-.6-8,0-11.7,3.8-11.7,12v3.2h-4.9v7.3h4.9v16c1.9.5,3.8.7,5.8.7s2,0,2.9-.2v-16.5h6.5,0Z"/></g></svg>