<?xml version="1.0" encoding="UTF-8"?><svg id="Camada_2" xmlns="http://www.w3.org/2000/svg" width="32" height="32" viewBox="0 0 32 32"><defs><style>.cls-1{fill:#fff;}.cls-2{fill:#0866ff;}</style></defs><g id="Facebook"><path class="cls-2" d="M32,16C32,7.2,24.8,0,16,0S0,7.2,0,16s5.2,13.8,12.1,15.5v-10.6h-3.3v-4.9h3.3v-2.1c0-5.4,2.5-8,7.8-8s2.8.2,3.5.4v4.4c-.4,0-1,0-1.8,0-2.6,0-3.6,1-3.6,3.6v1.7h5.2l-.9,4.9h-4.3v11c7.9-1,14.1-7.7,14.1-15.9h0Z"/><path class="cls-1" d="M22.3,20.9l.9-4.9h-5.2v-1.7c0-2.6,1-3.6,3.6-3.6s1.5,0,1.8,0v-4.4c-.7-.2-2.5-.4-3.5-.4-5.3,0-7.8,2.5-7.8,8v2.1h-3.3v4.9h3.3v10.6c1.2.3,2.5.5,3.9.5s1.3,0,1.9-.1v-11h4.3,0Z"/></g></svg>