<?xml version="1.0" encoding="UTF-8"?><svg id="Camada_2" xmlns="http://www.w3.org/2000/svg" width="72" height="72" viewBox="0 0 72 72"><defs><style>.cls-1{fill:#fff;}.cls-2{fill:#0866ff;}</style></defs><g id="Facebook"><path class="cls-2" d="M72,36C72,16.1,55.9,0,36,0S0,16.1,0,36s11.6,31,27.3,34.9v-23.9h-7.4v-11h7.4v-4.7c0-12.3,5.5-17.9,17.6-17.9s6.2.4,7.8.9v10c-.9,0-2.3-.1-4.2-.1-5.9,0-8.2,2.2-8.2,8v3.9h11.8l-2,11h-9.7v24.7c17.8-2.2,31.6-17.3,31.6-35.7h0Z"/><path class="cls-1" d="M50.1,47l2-11h-11.8v-3.9c0-5.8,2.3-8,8.2-8s3.3,0,4.2.1v-10c-1.6-.4-5.5-.9-7.8-.9-12,0-17.6,5.7-17.6,17.9v4.7h-7.4v11h7.4v23.9c2.8.7,5.7,1.1,8.7,1.1s2.9,0,4.4-.3v-24.7h9.7,0Z"/></g></svg>