<svg xmlns="http://www.w3.org/2000/svg" xmlns:xlink="http://www.w3.org/1999/xlink" width="400" zoomAndPan="magnify" viewBox="0 0 300 299.999988" height="400" preserveAspectRatio="xMidYMid meet" version="1.0"><defs><clipPath id="dc136c9b18"><path d="M 15.1875 232.425781 L 284.816406 232.425781 L 284.816406 298.785156 L 15.1875 298.785156 Z M 15.1875 232.425781 " clip-rule="nonzero"/></clipPath><clipPath id="c95f48a01a"><path d="M 15.1875 257.398438 L 284.816406 257.398438 L 284.816406 298.785156 L 15.1875 298.785156 Z M 15.1875 257.398438 " clip-rule="nonzero"/></clipPath><clipPath id="b517861fd2"><path d="M 62 1.035156 L 238 1.035156 L 238 280 L 62 280 Z M 62 1.035156 " clip-rule="nonzero"/></clipPath></defs><g clip-path="url(#dc136c9b18)"><path fill="#b20000" d="M 270.90625 265.15625 C 270.75 264.148438 270.878906 264.617188 270.921875 265.136719 C 270.914062 265.144531 270.910156 265.152344 270.90625 265.15625 Z M 284.777344 264.710938 C 284.066406 254.066406 271.753906 248.871094 263.148438 245.710938 C 247.902344 240.117188 231.402344 237.734375 215.367188 235.75 C 203.871094 234.324219 192.320312 233.375 180.746094 232.792969 L 173.476562 246.367188 C 174.765625 246.414062 176.054688 246.46875 177.339844 246.523438 C 188.039062 247.003906 198.726562 247.789062 209.375 248.941406 C 211.726562 249.195312 214.074219 249.472656 216.421875 249.765625 C 217.558594 249.910156 218.699219 250.0625 219.835938 250.210938 C 219.902344 250.222656 219.957031 250.230469 220.011719 250.234375 C 220.089844 250.246094 220.179688 250.257812 220.289062 250.277344 C 221.023438 250.378906 221.757812 250.488281 222.492188 250.59375 C 226.828125 251.234375 231.152344 251.964844 235.457031 252.789062 C 240.96875 253.847656 246.445312 255.097656 251.84375 256.632812 C 254.074219 257.265625 256.28125 257.964844 258.46875 258.730469 C 259.460938 259.074219 260.445312 259.445312 261.421875 259.828125 C 261.558594 259.878906 261.789062 259.976562 262.019531 260.070312 C 262.367188 260.21875 262.714844 260.371094 263.058594 260.527344 C 264.609375 261.230469 266.121094 262.011719 267.578125 262.886719 C 268.136719 263.222656 268.679688 263.582031 269.214844 263.957031 C 269.449219 264.148438 269.679688 264.347656 269.902344 264.554688 C 270.1875 264.816406 270.457031 265.09375 270.722656 265.378906 C 270.433594 265.722656 270.078125 266.140625 269.851562 266.351562 C 269.742188 266.457031 269.628906 266.554688 269.515625 266.652344 C 269.269531 266.839844 268.980469 267.058594 268.800781 267.179688 C 266.898438 268.480469 264.828125 269.53125 262.734375 270.476562 C 262.554688 270.558594 262.199219 270.710938 261.886719 270.84375 C 261.425781 271.027344 260.964844 271.210938 260.503906 271.386719 C 259.027344 271.949219 257.539062 272.460938 256.042969 272.949219 C 249.011719 275.234375 241.765625 276.863281 234.507812 278.242188 C 230.167969 279.070312 225.804688 279.773438 221.433594 280.410156 C 220.320312 280.574219 219.207031 280.730469 218.089844 280.878906 C 217.742188 280.925781 217.394531 280.972656 217.042969 281.019531 C 216.804688 281.050781 216.101562 281.140625 215.945312 281.160156 C 213.390625 281.480469 210.835938 281.769531 208.273438 282.042969 C 185.863281 284.433594 163.265625 285.191406 140.734375 284.867188 C 129.410156 284.703125 118.085938 284.21875 106.789062 283.382812 C 101.59375 283.003906 96.40625 282.53125 91.226562 281.980469 C 88.871094 281.726562 86.515625 281.453125 84.164062 281.160156 C 83.019531 281.019531 81.875 280.871094 80.734375 280.71875 C 80.621094 280.703125 80.1875 280.644531 79.886719 280.601562 C 79.277344 280.515625 78.667969 280.429688 78.0625 280.339844 C 69.816406 279.140625 61.601562 277.648438 53.511719 275.644531 C 50.191406 274.824219 46.894531 273.898438 43.640625 272.839844 C 42.261719 272.390625 40.898438 271.90625 39.539062 271.398438 C 39.003906 271.195312 38.46875 270.980469 37.9375 270.765625 C 37.605469 270.621094 37.273438 270.476562 36.945312 270.324219 C 34.867188 269.386719 32.84375 268.308594 30.960938 267.019531 C 30.910156 266.984375 30.855469 266.945312 30.804688 266.90625 C 30.566406 266.710938 30.332031 266.507812 30.105469 266.300781 C 29.808594 266.03125 29.53125 265.746094 29.257812 265.453125 C 29.253906 265.445312 29.246094 265.4375 29.238281 265.425781 C 29.578125 265.054688 29.9375 264.699219 30.308594 264.359375 C 30.417969 264.265625 30.570312 264.132812 30.722656 264.007812 C 30.949219 263.847656 31.175781 263.691406 31.410156 263.535156 C 33.339844 262.242188 35.4375 261.195312 37.554688 260.25 C 37.71875 260.175781 37.882812 260.105469 38.042969 260.035156 C 38.636719 259.796875 39.230469 259.570312 39.828125 259.34375 C 41.316406 258.785156 42.820312 258.273438 44.328125 257.789062 C 47.625 256.726562 50.972656 255.828125 54.339844 255.003906 C 62.507812 253.007812 70.808594 251.558594 79.125 250.363281 C 80.242188 250.203125 81.363281 250.046875 82.480469 249.898438 C 82.613281 249.882812 83.136719 249.8125 83.433594 249.773438 C 83.835938 249.722656 84.238281 249.671875 84.640625 249.621094 C 87.203125 249.304688 89.765625 249.015625 92.335938 248.75 C 97.539062 248.199219 102.757812 247.753906 107.980469 247.375 C 114.152344 246.925781 120.332031 246.589844 126.515625 246.347656 L 119.261719 232.796875 C 107.335938 233.40625 95.429688 234.40625 83.585938 235.894531 C 67.660156 237.890625 51.351562 240.328125 36.238281 245.945312 C 27.828125 249.070312 14.761719 254.734375 15.199219 265.675781 C 15.652344 276.910156 28.589844 282.183594 37.53125 285.386719 C 52.964844 290.910156 69.601562 293.289062 85.800781 295.246094 C 107.785156 297.90625 129.980469 298.871094 152.117188 298.804688 C 173.976562 298.746094 195.878906 297.597656 217.566406 294.816406 C 233.117188 292.820312 249.007812 290.394531 263.769531 284.90625 C 272.152344 281.792969 284.089844 276.578125 284.777344 266.226562 C 284.804688 265.976562 284.816406 265.730469 284.816406 265.476562 C 284.820312 265.21875 284.804688 264.960938 284.777344 264.710938 " fill-opacity="1" fill-rule="nonzero"/></g><g clip-path="url(#c95f48a01a)"><path fill="#e20000" d="M 284.777344 264.710938 C 284.59375 261.964844 283.632812 259.582031 282.167969 257.503906 C 278.070312 261.445312 273.390625 264.738281 268.328125 267.496094 C 266.554688 268.648438 264.65625 269.605469 262.734375 270.476562 C 262.554688 270.558594 262.199219 270.710938 261.886719 270.84375 C 261.425781 271.027344 260.964844 271.210938 260.503906 271.386719 C 259.027344 271.949219 257.539062 272.460938 256.042969 272.949219 C 249.011719 275.234375 241.765625 276.863281 234.507812 278.242188 C 230.167969 279.070312 225.804688 279.773438 221.433594 280.410156 C 220.320312 280.574219 219.207031 280.730469 218.089844 280.878906 C 217.742188 280.925781 217.394531 280.972656 217.042969 281.019531 C 216.804688 281.050781 216.101562 281.140625 215.945312 281.160156 C 213.390625 281.480469 210.835938 281.769531 208.273438 282.042969 C 185.863281 284.433594 163.265625 285.191406 140.734375 284.867188 C 129.410156 284.703125 118.085938 284.21875 106.789062 283.382812 C 101.59375 283.003906 96.40625 282.53125 91.226562 281.980469 C 88.871094 281.726562 86.515625 281.453125 84.164062 281.160156 C 83.019531 281.019531 81.875 280.871094 80.734375 280.71875 C 80.621094 280.703125 80.1875 280.644531 79.886719 280.601562 C 79.277344 280.515625 78.667969 280.429688 78.0625 280.339844 C 69.816406 279.140625 61.601562 277.648438 53.511719 275.644531 C 50.191406 274.824219 46.894531 273.898438 43.640625 272.839844 C 42.261719 272.390625 40.898438 271.90625 39.539062 271.398438 C 39.003906 271.195312 38.46875 270.980469 37.9375 270.765625 C 37.605469 270.621094 37.273438 270.476562 36.945312 270.324219 C 34.867188 269.386719 32.84375 268.308594 30.960938 267.019531 C 30.910156 266.984375 30.855469 266.945312 30.804688 266.90625 C 30.566406 266.710938 30.332031 266.507812 30.105469 266.300781 C 30.058594 266.261719 30.019531 266.214844 29.972656 266.175781 C 29.640625 266.070312 29.332031 265.9375 29.039062 265.78125 C 28.976562 265.765625 28.910156 265.75 28.84375 265.730469 C 28.84375 265.730469 28.839844 265.730469 28.839844 265.730469 C 24.511719 264.484375 20.609375 261.660156 17.230469 258.257812 C 15.867188 260.414062 15.085938 262.871094 15.199219 265.675781 C 15.652344 276.910156 28.589844 282.183594 37.53125 285.386719 C 52.964844 290.910156 69.601562 293.289062 85.800781 295.246094 C 107.785156 297.90625 129.980469 298.871094 152.117188 298.804688 C 173.976562 298.746094 195.878906 297.597656 217.566406 294.816406 C 233.117188 292.820312 249.007812 290.394531 263.769531 284.90625 C 272.152344 281.792969 284.089844 276.578125 284.777344 266.226562 C 284.804688 265.976562 284.816406 265.730469 284.816406 265.476562 C 284.820312 265.21875 284.804688 264.960938 284.777344 264.710938 " fill-opacity="1" fill-rule="nonzero"/></g><g clip-path="url(#b517861fd2)"><path fill="#e20000" d="M 150.003906 45.378906 C 127.929688 45.378906 109.96875 63.324219 109.96875 85.386719 C 109.96875 107.449219 127.929688 125.394531 150.003906 125.394531 C 172.078125 125.394531 190.035156 107.449219 190.035156 85.386719 C 190.035156 63.324219 172.078125 45.378906 150.003906 45.378906 Z M 74.542969 138.449219 C 66.691406 124.5 62.542969 108.542969 62.542969 92.292969 C 62.542969 41.972656 101.777344 1.035156 150.003906 1.035156 C 198.226562 1.035156 237.464844 41.972656 237.464844 92.292969 C 237.464844 108.542969 233.3125 124.5 225.460938 138.445312 L 150.003906 279.417969 L 74.542969 138.449219 " fill-opacity="1" fill-rule="nonzero"/></g></svg>