<svg xmlns="http://www.w3.org/2000/svg" xmlns:xlink="http://www.w3.org/1999/xlink" width="400" zoomAndPan="magnify" viewBox="0 0 300 299.999988" height="400" preserveAspectRatio="xMidYMid meet" version="1.0"><defs><clipPath id="8800320793"><path d="M 4 0 L 298.636719 0 L 298.636719 296 L 4 296 Z M 4 0 " clip-rule="nonzero"/></clipPath></defs><g clip-path="url(#8800320793)"><path fill="#39b54a" d="M 186.660156 289.777344 C 162.070312 283.476562 145.867188 272.640625 128.652344 260.921875 C 91.609375 235.6875 66.589844 207.015625 51.054688 186.027344 C 37.621094 167.855469 19.015625 142.191406 9.300781 104.238281 C 1.648438 74.351562 5.421875 59.917969 7.976562 52.820312 C 14.347656 35.125 31.097656 13.261719 49.695312 14.304688 C 58.46875 14.800781 66.546875 23.09375 82.347656 39.679688 C 102.820312 61.167969 113.0625 71.917969 111.824219 83.183594 C 111.824219 83.183594 111.058594 90.140625 84.160156 118.066406 C 84.160156 118.066406 98.886719 146.1875 116.363281 166.089844 C 144.335938 197.96875 184.839844 215.019531 184.839844 215.019531 C 184.839844 215.019531 200.910156 190.699219 217.871094 188.804688 C 227.25 187.761719 234.707031 194.113281 249.242188 206.855469 C 272.558594 227.308594 287.660156 240.546875 285.515625 256.699219 C 283.132812 274.707031 260.820312 284.941406 253.550781 288.269531 C 227.972656 299.996094 202.59375 293.855469 186.660156 289.777344 Z M 169.886719 13.90625 C 173.011719 13.886719 176.136719 13.992188 179.253906 14.230469 C 180.40625 14.316406 181.570312 14.425781 182.726562 14.542969 C 183.242188 14.597656 183.761719 14.652344 184.277344 14.714844 C 184.96875 14.792969 187.578125 15.371094 185.066406 14.800781 C 187.792969 15.414062 190.628906 15.664062 193.375 16.222656 C 200.09375 17.601562 206.710938 19.519531 213.117188 21.976562 C 214.019531 22.320312 214.914062 22.6875 215.820312 23.050781 C 217.394531 23.675781 214.429688 22.4375 216.003906 23.128906 C 216.457031 23.332031 216.921875 23.527344 217.375 23.730469 C 219.238281 24.558594 221.09375 25.441406 222.914062 26.359375 C 226.601562 28.222656 230.191406 30.289062 233.664062 32.53125 C 235.570312 33.757812 237.4375 35.050781 239.269531 36.394531 C 239.582031 36.621094 239.894531 36.859375 240.195312 37.085938 C 240.359375 37.203125 241.886719 38.386719 240.660156 37.429688 C 241.75 38.28125 242.828125 39.152344 243.894531 40.046875 C 247.375 42.964844 250.695312 46.089844 253.820312 49.394531 C 255.363281 51.023438 256.863281 52.703125 258.308594 54.414062 C 258.898438 55.113281 259.472656 55.816406 260.042969 56.527344 C 260.375 56.945312 260.722656 57.375 261.054688 57.796875 C 259.976562 56.429688 261.421875 58.292969 261.605469 58.539062 C 263.976562 61.726562 266.175781 65.035156 268.214844 68.4375 C 270.207031 71.777344 272.03125 75.222656 273.691406 78.746094 C 274.023438 79.445312 274.347656 80.15625 274.660156 80.867188 C 274.855469 81.285156 275.039062 81.707031 275.222656 82.136719 C 275.285156 82.277344 275.339844 82.417969 275.40625 82.558594 C 275.695312 83.246094 275.640625 83.117188 275.242188 82.179688 C 275.738281 82.773438 275.976562 83.96875 276.257812 84.691406 C 276.578125 85.507812 276.890625 86.335938 277.195312 87.167969 C 279.359375 93.070312 281.085938 99.132812 282.367188 105.28125 C 282.984375 108.242188 283.371094 111.226562 283.910156 114.1875 C 283.921875 114.222656 283.664062 112.230469 283.78125 113.273438 C 283.824219 113.660156 283.878906 114.058594 283.933594 114.449219 C 284.007812 115.105469 284.082031 115.761719 284.160156 116.417969 C 284.277344 117.539062 284.375 118.660156 284.472656 119.777344 C 284.699219 122.75 284.828125 125.746094 284.804688 128.730469 C 284.785156 132.316406 287.984375 135.75 291.671875 135.589844 C 295.414062 135.417969 298.507812 132.574219 298.539062 128.730469 C 298.679688 107.15625 292.910156 85.207031 282.757812 66.25 C 266.058594 35.070312 236.023438 12.464844 201.761719 4.0625 C 191.382812 1.523438 180.589844 0.109375 169.886719 0.199219 C 166.296875 0.230469 162.855469 3.332031 163.019531 7.058594 C 163.179688 10.742188 166.039062 13.941406 169.886719 13.90625 Z M 168.527344 48.792969 C 170.878906 48.738281 173.238281 48.792969 175.578125 48.941406 C 177.378906 49.0625 179.179688 49.246094 180.980469 49.449219 C 182.464844 49.621094 179.15625 49.179688 181.066406 49.460938 C 181.550781 49.523438 182.023438 49.601562 182.511719 49.675781 C 183.652344 49.859375 184.785156 50.0625 185.917969 50.289062 C 191.003906 51.300781 195.996094 52.722656 200.835938 54.574219 C 201.449219 54.8125 202.054688 55.0625 202.660156 55.296875 C 203.867188 55.78125 202.484375 55.285156 202.398438 55.179688 C 202.507812 55.308594 203.121094 55.492188 203.328125 55.578125 C 204.738281 56.203125 206.140625 56.871094 207.53125 57.570312 C 210.453125 59.054688 213.289062 60.703125 216.015625 62.515625 C 217.296875 63.363281 218.546875 64.238281 219.777344 65.152344 C 220.089844 65.390625 220.402344 65.617188 220.714844 65.863281 C 219.703125 65.078125 220.53125 65.722656 220.726562 65.886719 C 221.503906 66.519531 222.289062 67.15625 223.042969 67.800781 C 225.675781 70.0625 228.175781 72.488281 230.515625 75.050781 C 231.496094 76.128906 232.457031 77.226562 233.371094 78.355469 C 233.824219 78.90625 234.289062 79.457031 234.707031 80.027344 C 233.835938 78.851562 234.417969 79.648438 234.601562 79.898438 C 234.914062 80.316406 235.226562 80.738281 235.527344 81.15625 C 237.253906 83.546875 238.847656 86.023438 240.3125 88.589844 C 241.695312 91 242.957031 93.46875 244.097656 96 C 244.304688 96.460938 244.800781 97.171875 244.832031 97.667969 C 244.765625 96.71875 244.398438 96.621094 244.660156 97.28125 C 244.800781 97.625 244.9375 97.96875 245.078125 98.3125 C 245.5625 99.53125 246.015625 100.757812 246.449219 101.996094 C 247.925781 106.261719 249.101562 110.636719 249.960938 115.0625 C 250.179688 116.179688 250.382812 117.300781 250.554688 118.421875 C 250.640625 118.949219 250.707031 119.488281 250.792969 120.015625 C 250.953125 121.070312 250.675781 119.089844 250.675781 119.109375 C 250.695312 119.414062 250.75 119.714844 250.792969 120.015625 C 251.007812 121.75 251.171875 123.484375 251.277344 125.21875 C 251.417969 127.351562 251.472656 129.492188 251.429688 131.636719 C 251.351562 135.222656 254.640625 138.660156 258.296875 138.496094 C 262.078125 138.324219 265.085938 135.480469 265.164062 131.636719 C 265.476562 115.621094 261.324219 99.25 254.015625 85.066406 C 241.792969 61.339844 219.042969 44.054688 193.148438 37.839844 C 185.128906 35.910156 176.765625 34.878906 168.496094 35.058594 C 164.90625 35.136719 161.457031 38.164062 161.628906 41.921875 C 161.824219 45.582031 164.679688 48.878906 168.527344 48.792969 Z M 168.980469 82.320312 C 170.617188 82.351562 172.257812 82.460938 173.886719 82.632812 C 174.199219 82.664062 174.511719 82.707031 174.824219 82.738281 C 175.890625 82.847656 173.992188 82.632812 173.992188 82.621094 C 174.574219 82.730469 175.167969 82.792969 175.761719 82.902344 C 177.207031 83.148438 178.640625 83.449219 180.0625 83.804688 C 181.519531 84.160156 182.953125 84.582031 184.375 85.046875 C 185.140625 85.292969 185.894531 85.5625 186.648438 85.84375 C 187.113281 86.015625 187.578125 86.207031 188.039062 86.378906 C 189.367188 86.898438 186.855469 85.808594 188.277344 86.488281 C 191.824219 88.167969 195.230469 90.03125 198.410156 92.347656 C 198.367188 92.316406 199.921875 93.511719 199.164062 92.90625 C 198.398438 92.292969 199.972656 93.574219 199.910156 93.53125 C 200.675781 94.167969 201.417969 94.824219 202.140625 95.503906 C 203.628906 96.882812 205.039062 98.347656 206.355469 99.886719 C 206.582031 100.15625 208.382812 102.34375 207.285156 100.953125 C 207.8125 101.621094 208.308594 102.320312 208.792969 103.019531 C 209.816406 104.507812 210.777344 106.035156 211.660156 107.609375 C 212.414062 108.953125 213.117188 110.34375 213.761719 111.746094 C 213.890625 112.011719 214.011719 112.292969 214.128906 112.5625 C 214.785156 113.996094 213.558594 111.097656 214.117188 112.542969 C 214.429688 113.339844 214.742188 114.125 215.023438 114.921875 C 215.917969 117.429688 216.664062 120.003906 217.222656 122.613281 C 217.46875 123.765625 217.695312 124.917969 217.878906 126.078125 C 217.921875 126.371094 217.964844 126.648438 218.007812 126.941406 C 218.214844 128.136719 217.785156 125.046875 217.914062 126.207031 C 217.964844 126.703125 218.03125 127.199219 218.085938 127.695312 C 218.214844 129 218.300781 130.3125 218.332031 131.625 C 218.417969 135.210938 221.425781 138.660156 225.199219 138.488281 C 228.84375 138.324219 232.164062 135.472656 232.066406 131.625 C 231.808594 121.480469 229.058594 111.335938 224.402344 102.34375 C 216.585938 87.261719 202.496094 76.042969 186.25 71.25 C 180.675781 69.601562 174.78125 68.707031 168.96875 68.578125 C 165.378906 68.503906 161.941406 71.785156 162.101562 75.4375 C 162.285156 79.25 165.132812 82.246094 168.980469 82.320312 Z M 168.980469 82.320312 " fill-opacity="1" fill-rule="nonzero"/></g></svg>