<svg xmlns="http://www.w3.org/2000/svg" xmlns:xlink="http://www.w3.org/1999/xlink" width="400" zoomAndPan="magnify" viewBox="0 0 300 299.999988" height="400" preserveAspectRatio="xMidYMid meet" version="1.0"><defs><clipPath id="5f266f7dad"><path d="M 0 100 L 299 100 L 299 256.160156 L 0 256.160156 Z M 0 100 " clip-rule="nonzero"/></clipPath></defs><g clip-path="url(#5f266f7dad)"><path fill="#ed1c24" d="M 0.835938 100.636719 C 14.378906 108.9375 27.316406 116.859375 40.25 124.796875 C 73.992188 145.488281 107.746094 166.160156 141.46875 186.878906 C 147.296875 190.460938 152.933594 189.96875 158.574219 186.515625 C 184.128906 170.855469 209.6875 155.191406 235.25 139.546875 C 255.402344 127.207031 275.570312 114.894531 295.726562 102.574219 C 296.441406 102.132812 297.199219 101.753906 298.429688 101.074219 C 298.535156 102.8125 298.671875 104.0625 298.671875 105.300781 C 298.679688 148.320312 298.6875 191.339844 298.671875 234.355469 C 298.671875 248.425781 291.148438 256.152344 277.160156 256.160156 C 191.894531 256.203125 106.617188 256.195312 21.347656 256.160156 C 8.945312 256.160156 0.664062 248.210938 0.648438 236.207031 C 0.585938 191.863281 0.621094 147.511719 0.640625 103.160156 C 0.640625 102.574219 0.726562 101.996094 0.847656 100.636719 Z M 0.835938 100.636719 " fill-opacity="1" fill-rule="nonzero"/></g><path fill="#ed1c24" d="M 150.058594 44.039062 C 192.597656 44.039062 235.148438 44.019531 277.6875 44.046875 C 288.152344 44.046875 295.394531 49.257812 298.019531 58.46875 C 299.738281 64.503906 299.179688 65.890625 293.808594 69.171875 C 249.089844 96.492188 204.246094 123.601562 159.804688 151.367188 C 152.28125 156.070312 147.382812 156.269531 139.738281 151.472656 C 94.867188 123.289062 49.574219 95.769531 4.316406 68.199219 C 1.0625 66.21875 0.285156 64.09375 0.75 60.675781 C 2.058594 50.988281 10.246094 44.105469 21.109375 44.046875 C 37.945312 43.953125 54.789062 44.03125 71.625 44.03125 C 97.769531 44.03125 123.917969 44.03125 150.058594 44.03125 L 150.058594 44.046875 Z M 150.058594 44.039062 " fill-opacity="1" fill-rule="nonzero"/></svg>