<?xml version="1.0" encoding="UTF-8"?><svg id="Camada_2" xmlns="http://www.w3.org/2000/svg" width="72" height="72" viewBox="0 0 72 72"><defs><style>.cls-1{fill:#0a66c2;}</style></defs><g id="LinkedIn"><path class="cls-1" d="M61.3,61.3h-10.7v-16.7c0-4,0-9.1-5.5-9.1s-6.4,4.3-6.4,8.8v17h-10.7V27h10.2v4.7h.1c2.1-3.6,6-5.7,10.1-5.6,10.8,0,12.8,7.1,12.8,16.4v18.8h0ZM16,22.3c-3.4,0-6.2-2.8-6.2-6.2s2.8-6.2,6.2-6.2,6.2,2.8,6.2,6.2-2.8,6.2-6.2,6.2M21.4,61.3h-10.7V27h10.7v34.4ZM66.7,0H5.3C2.4,0,0,2.3,0,5.2v61.6c0,2.9,2.4,5.2,5.3,5.2h61.4c2.9,0,5.3-2.3,5.3-5.2V5.2C72,2.3,69.6,0,66.7,0"/></g></svg>