<?xml version="1.0" encoding="UTF-8"?><svg id="Camada_2" xmlns="http://www.w3.org/2000/svg" width="48" height="48" viewBox="0 0 48 48"><defs><style>.cls-1{fill:#0a66c2;}</style></defs><g id="LinkedIn"><path class="cls-1" d="M40.9,40.9h-7.1v-11.1c0-2.7,0-6.1-3.7-6.1s-4.3,2.9-4.3,5.9v11.3h-7.1v-22.9h6.8v3.1h0c1.4-2.4,4-3.8,6.7-3.7,7.2,0,8.5,4.7,8.5,10.9v12.6h0ZM10.7,14.9c-2.3,0-4.1-1.8-4.1-4.1s1.8-4.1,4.1-4.1,4.1,1.8,4.1,4.1-1.8,4.1-4.1,4.1M14.2,40.9h-7.1v-22.9h7.1v22.9ZM44.4,0H3.5C1.6,0,0,1.5,0,3.5v41.1c0,1.9,1.6,3.5,3.5,3.5h40.9c1.9,0,3.5-1.5,3.6-3.5V3.5c0-1.9-1.6-3.5-3.6-3.5"/></g></svg>