<?xml version="1.0" encoding="UTF-8"?><svg id="Camada_2" xmlns="http://www.w3.org/2000/svg" width="32" height="25.7" xmlns:xlink="http://www.w3.org/1999/xlink" viewBox="0 0 32 25.7"><defs><style>.cls-1{fill:url(#Gradiente_sem_nome_145);}.cls-2{fill:url(#Gradiente_sem_nome_105);}.cls-3{fill:url(#Gradiente_sem_nome_358);}.cls-4{fill:url(#Gradiente_sem_nome_335);}.cls-5{fill:url(#Gradiente_sem_nome_364);}</style><linearGradient id="Gradiente_sem_nome_358" x1="4.4" y1="25.6" x2="9.1" y2="0" gradientUnits="userSpaceOnUse"><stop offset="0" stop-color="#992b00"/><stop offset=".2" stop-color="#9f3100"/><stop offset=".4" stop-color="#b14201"/><stop offset=".7" stop-color="#ce5d02"/><stop offset="1" stop-color="#f68404"/><stop offset="1" stop-color="#f88605"/></linearGradient><linearGradient id="Gradiente_sem_nome_364" x1="12.7" y1="20.3" x2="19.5" y2="20.3" gradientUnits="userSpaceOnUse"><stop offset=".4" stop-color="#a23400"/><stop offset=".6" stop-color="#015141"/></linearGradient><linearGradient id="Gradiente_sem_nome_335" x1="31.2" y1="24.3" x2="19" y2="-2.2" gradientUnits="userSpaceOnUse"><stop offset="0" stop-color="#00493d"/><stop offset=".2" stop-color="#004e3f"/><stop offset=".4" stop-color="#025d47"/><stop offset=".7" stop-color="#047655"/><stop offset="1" stop-color="#089967"/><stop offset="1" stop-color="#099b69"/></linearGradient><linearGradient id="Gradiente_sem_nome_105" x1="20.8" y1="18.9" x2="23.5" y2="18.9" gradientUnits="userSpaceOnUse"><stop offset="0" stop-color="#00493d"/><stop offset="1" stop-color="#099b69"/></linearGradient><linearGradient id="Gradiente_sem_nome_145" x1="9.3" y1="18.8" x2="11.3" y2="18.8" gradientUnits="userSpaceOnUse"><stop offset="0" stop-color="#a93507"/><stop offset=".2" stop-color="#b64206"/><stop offset=".7" stop-color="#d96605"/><stop offset="1" stop-color="#f88605"/></linearGradient></defs><g id="Camada_1-2"><path class="cls-3" d="M13.4,15.6c-.7,1-1.1,2.1-.8,3.3,0,0,.3.8.3.9h0c.2.5.6,1,1,1.2l.4.2c-1.1-.1-1.8-1.1-2.2-2.1,0,0,0,0,0,0,0,0-.2.3-.3.3-.2.3-.4.6-.5.9v.4c0,0,0-.5,0-.5,0,0,.1-.4.1-.5.1-.4.4-.7.7-1.1,0-.2,0-.4-.1-.5,0-.4,0-.8,0-1.2-1,.7-2,1.2-3.2,1.1,0,0,0,0,0,0,.6,0,1.2-.1,1.7-.5.2-.1.5-.4.5-.5,0,0,0,0,0,0-.8.3-1.6.5-2.5.7-.6.2-1.2.6-1.8.6h0s0,0,.1,0c.7-.2,1.3-.7,1.9-1.1,1.1-.6,2.4-.9,3.4-1.7h-.5c0,.1-2.4.7-2.4.7,1.9-.5,2.2-.8,2.5-1,1.5-1.1,2.7-2.5,3.2-4.3,0-.2,0-.4.1-.6,0,0,0,0,0,0-.4.7-.7,1.4-1.2,2h-.1c0,0,0-7.5,0-7.5,0,0,0,0,0,0-.2.4-.4.9-.6,1.3-1.5,3.1-2.9,6.1-4.3,9.2h0c-.6.2-1.2.4-1.7.7-.5-1.2-1-2.4-1.6-3.7-.9-2.1-1.8-4.2-2.7-6.3,0-.2-.1-.4-.2-.5,0,0,0,0,0,0v18s-2.1,0-2.1,0V0c.2,0,.3,0,.5,0,.6,0,1.3,0,1.9,0,0,0,.3,0,.3,0,1.5,3.3,2.8,6.7,4.3,10,.1.3.3.8.5,1.1,0,0,0,0,0,0L12.8,0h2.8c0,3.1,0,6.2,0,9.2,0,.9,0,1.8,0,2.8s-.6,1.5-.9,1.9c-.4.6-1,1.1-1.4,1.7Z"/><path class="cls-5" d="M19.5,21c-.1-.7-.5-1.2-1-1.6,0-.5,0-1-.3-1.4-.3-.5-.7-.8-1-1.2-.5-.5-.8-1.2-1.1-1.9,0,0,0,0,0,0-.3,1-.9,1.6-1.5,2.4-.5.6-.9,1.3-.8,2.2-.5.4-.9.9-1,1.5,0,0,.2.6.2.7,0,0,0-.4,0-.5,0-.4.4-.9.7-1.2,0,0,.2-.2.2-.2v.4c-.2.4-.4.9-.6,1.4,0,.1,0,.4,0,.6,0,0,0,0,0,0,0-.5.2-1,.5-1.4,0-.2.2-.3.3-.5,0,0,.1.2.2.3,0,.1,0,.3,0,.4,0,.6.3.9.4,1.4.2.6,0,1.2-.2,1.8l-.2.3c.5-.5.8-1.2.7-1.9,0-.6-.4-1.1-.3-1.7,0,0,0,0,0,0,.2.2.4.5.5.7.4.6.6,1.3.3,1.9,0,0,.1-.2.2-.3.4-1-.2-2.2-.8-3,0,0,0,0,.1.1.1.1.3.2.4.3h0c-.1-.2-.2-.4-.4-.6-.1-.1-.3-.3-.4-.4-.1-.3-.1-.8,0-1.1,0-.3.2-.6.4-.9,0,0,0,0,0,0,0,.6.4,1.1.7,1.6-.3,1.2.2,2.3.2,3.4,0,.6,0,1.1,0,1.7,0,.3.1.7.2,1v-.7c.2-.4.3-.7.3-1.1,0-1-.2-1.9,0-2.9,0-.4.2-.8.2-1.2,0-.1,0-.3,0-.4,0,0,.3-.5.3-.6.2-.3.3-.7.3-1,.4.5.6,1.3.4,1.9,0,.3-.3.4-.5.7,0,.1-.2.3-.2.4l.3-.3h0c-.5.8-1.1,1.9-.7,2.8,0,0,0,.2.2.3-.1-.5-.1-.9,0-1.3.2-.5.5-.9.9-1.3.1.6-.2,1.1-.3,1.6,0,.6.1,1.2.5,1.7,0,.1.2.2.3.3h0c-.5-.5-.7-1.3-.6-2,.1-.5.5-1,.5-1.6,0-.1-.1-.4,0-.5,0,0,.2-.3.2-.4,0,0,0,0,0,0,.5.6.8,1.2.8,2v-.3c0-.2,0-.4,0-.6-.1-.5-.4-.9-.6-1.3v-.4c.1,0,.1,0,.1,0,.5.4,1,1.3.8,1.9,0,0,.2-.6.2-.6ZM16,18.8h0s0,0,0,0c0,0,0,0,0,0,0,0,0,0,0,0-.1-.1-.6-.7-.6-1.5s.6-1.4.6-1.5c0,0,0,0,0,0,0,0,0,0,0,0,0,0,.6.7.6,1.5s-.6,1.5-.6,1.5Z"/><path class="cls-4" d="M29.5,23.7V5.7s-4.4,10.3-4.4,10.3c-.5-.2-1-.3-1.4-.5,0,0-.4-.2-.5-.2-1-2.2-2-4.4-3.1-6.6-.5-1.1-1-2.2-1.5-3.2,0,0,0,0,0,0v7s0,0,0,0c-.2-.3-.4-.8-.6-1.1-.1-.2-.2-.4-.3-.6,0-.1,0-.3-.2-.4,0,.2,0,.4.1.6.4,1.9,1.9,3.5,3.5,4.5.8.5,1.6.8,2.4,1.1h0s-1.8-.6-1.8-.6l-1.3-.4h0c.3.2.5.4.7.5.9.5,1.9.7,2.7,1.1.7.3,1.2.8,1.9,1.1h.5c-.8.1-1.6-.3-2.4-.6-.7-.2-1.3-.4-2-.6,0,0-.2-.1-.3-.1,0,0,0,.1,0,.2.6.8,1.8,1,2.8.9,0,0,0,0,0,0-.3,0-.7,0-1,0-1,0-1.9-.5-2.7-1,0,0-.2-.2-.2-.1,0,.6,0,1.2-.2,1.7.4.6.9,1.3.8,2.1v-.2c-.1-.6-.5-1.1-.9-1.5,0,0,0,0,0,0-.4.9-1,1.9-2.1,2h.3c.6-.4.9-.9,1.1-1.5,0,0,.2-.5.2-.7.1-.6.2-1.3,0-2-.5-1.8-2.3-2.8-2.9-4.6,0-.3,0-.3,0-.6,0-.8,0-1.7,0-2.5,0-3.1,0-6.2,0-9.3h2.5s5.1,11.1,5.1,11.1L29.1,0h2.9v23.7s-2.5,0-2.5,0Z"/><path class="cls-2" d="M21.3,18.4c.4.4.8.7,1.4,1l.8.4s0,0,0,0c-.4-.1-1-.4-1.4-.6s-.8-.7-1.2-1.1h0c.1.1.3.3.4.4Z"/><path class="cls-1" d="M11,18.4c-.4.5-1,.9-1.7,1.1l.6-.3c.5-.3,1-.8,1.4-1.2,0,0,0,0,0,0,0,.1-.2.2-.3.3Z"/></g></svg>