<?xml version="1.0" encoding="UTF-8"?><svg id="Camada_2" xmlns="http://www.w3.org/2000/svg" width="130" height="104.4" xmlns:xlink="http://www.w3.org/1999/xlink" viewBox="0 0 130 104.4"><defs><style>.cls-1{fill:url(#Gradiente_sem_nome_145);}.cls-2{fill:url(#Gradiente_sem_nome_105);}.cls-3{fill:url(#Gradiente_sem_nome_358);}.cls-4{fill:url(#Gradiente_sem_nome_335);}.cls-5{fill:url(#Gradiente_sem_nome_364);}</style><linearGradient id="Gradiente_sem_nome_358" x1="18" y1="104" x2="36.8" y2=".1" gradientUnits="userSpaceOnUse"><stop offset="0" stop-color="#992b00"/><stop offset=".2" stop-color="#9f3100"/><stop offset=".4" stop-color="#b14201"/><stop offset=".7" stop-color="#ce5d02"/><stop offset="1" stop-color="#f68404"/><stop offset="1" stop-color="#f88605"/></linearGradient><linearGradient id="Gradiente_sem_nome_364" x1="51.5" y1="82.4" x2="79" y2="82.4" gradientUnits="userSpaceOnUse"><stop offset=".4" stop-color="#a23400"/><stop offset=".6" stop-color="#015141"/></linearGradient><linearGradient id="Gradiente_sem_nome_335" x1="126.9" y1="98.5" x2="77" y2="-9.1" gradientUnits="userSpaceOnUse"><stop offset="0" stop-color="#00493d"/><stop offset=".2" stop-color="#004e3f"/><stop offset=".4" stop-color="#025d47"/><stop offset=".7" stop-color="#047655"/><stop offset="1" stop-color="#089967"/><stop offset="1" stop-color="#099b69"/></linearGradient><linearGradient id="Gradiente_sem_nome_105" x1="84.5" y1="76.6" x2="95.4" y2="76.6" gradientUnits="userSpaceOnUse"><stop offset="0" stop-color="#00493d"/><stop offset="1" stop-color="#099b69"/></linearGradient><linearGradient id="Gradiente_sem_nome_145" x1="37.8" y1="76.2" x2="45.9" y2="76.2" gradientUnits="userSpaceOnUse"><stop offset="0" stop-color="#a93507"/><stop offset=".2" stop-color="#b64206"/><stop offset=".7" stop-color="#d96605"/><stop offset="1" stop-color="#f88605"/></linearGradient></defs><g id="Camada_1-2"><path class="cls-3" d="M54.3,63.4c-2.8,3.9-4.4,8.6-3.2,13.4,0,0,1.1,3.3,1.2,3.6h0c.6,2.1,2.3,4.3,3.9,5l1.7.7c-4.5-.4-7.2-4.6-8.9-8.4,0,0-.2,0-.2.1-.3.2-.9,1-1.2,1.3-.9,1.1-1.7,2.3-2.1,3.7l-.4,1.8v-2.1c0-.3.4-1.6.6-1.9.6-1.5,1.7-3,2.7-4.3,0-.7-.4-1.4-.5-2.2-.3-1.6-.4-3.3-.3-5-4,2.7-8.1,4.8-13.1,4.6-.1,0-.3,0-.3,0,2.4,0,5-.5,7-1.9.6-.4,1.8-1.6,2.2-2.2,0,0,.1-.2,0-.3-3.3,1.1-6.7,1.8-10,3-2.4.9-4.8,2.3-7.4,2.4h-.3c.1,0,.3,0,.4-.1,2.8-.6,5.3-2.9,7.8-4.3,4.5-2.4,9.8-3.6,13.9-6.8l-1.9.5-9.7,2.4c7.6-2.1,8.8-3.4,10-4.2,6.2-4.4,11.1-10,13-17.5.2-.9.3-1.8.6-2.6-.2,0-.3.2-.3.3-1.5,2.8-3,5.6-4.8,8.2l-.4.4v-30.7c-.2,0-.1,0-.2.2-.9,1.4-1.7,3.6-2.4,5.1-5.9,12.4-11.8,24.9-17.5,37.4l-.2.2c-2.4.8-4.8,1.6-7.1,2.7-2.2-4.9-4.3-9.9-6.4-14.8-3.7-8.5-7.5-17-11-25.6-.3-.7-.5-1.5-.8-2.1,0,0-.1-.3-.2-.1v73c.1,0-8.5,0-8.5,0V0c.7,0,1.4,0,2,0,2.5,0,5.1,0,7.6,0,.4,0,1.1-.3,1.3,0,6,13.4,11.6,27.1,17.5,40.5.6,1.4,1.3,3.1,1.9,4.4,0,0,0,.2.2.2L52,.1h11.3c0,12.5,0,25,0,37.6,0,3.7.2,7.5.2,11.2s-2.3,6-3.6,7.8c-1.7,2.4-3.9,4.4-5.6,6.7Z"/><path class="cls-5" d="M79,85.4c-.4-2.7-2.2-4.9-4.1-6.7,0-2-.3-3.9-1.3-5.7-1-2-2.7-3.3-4.1-5-1.9-2.2-3.4-4.8-4.3-7.6-.2,0-.1,0-.2.1-1.2,4.2-3.6,6.5-6.3,9.7-2.2,2.6-3.6,5.3-3.3,8.9-1.9,1.6-3.7,3.8-4,6.3,0,0,.6,2.4.9,3,0,0-.3-1.5-.2-2.2.2-1.6,1.6-3.8,2.7-5,.1-.2.8-.9,1-.8l.5,1.6c-1.2,1.7-2.3,3.5-2.8,5.6-.2.6-.4,1.7-.3,2.3,0,0,0,.4.2.4.2-2,.9-4.1,1.9-5.8.4-.6,1-1.2,1.2-1.9.3.3.6.8.7,1.1.2.4-.2,1.3-.2,1.8-.2,2.5,1.1,3.7,1.7,5.9.7,2.5.4,5-.9,7.2l-.8,1.2c2-1.9,3.1-4.9,2.9-7.6-.2-2.3-1.7-4.4-1.2-6.7,0,0,.3.2.4.3.6.7,1.5,1.9,2,2.7,1.5,2.3,2.3,5.1,1.4,7.8.3-.2.5-.7.6-1,1.7-4.1-.9-8.7-3.2-12.1.2,0,.3.3.5.4.5.5,1.1.9,1.6,1.4v-.3c-.5-.7-.9-1.5-1.5-2.1-.4-.5-1.2-1.1-1.5-1.8-.6-1.1-.5-3.2-.2-4.4.3-1.3,1-2.6,1.7-3.7.2,0,.1,0,.1.2.4,2.6,1.6,4.3,2.9,6.5-1.1,4.8.8,9.3,1,14-.3,2.4-.3,4.6,0,7,.2,1.4.5,2.7.7,4.1l.5-2.7c.2-1.5.5-2.9.7-4.4.3-3.9-.8-7.6-.3-11.6.2-1.6.8-3.3.9-4.9,0-.5,0-1.2,0-1.6,0-.2,1.2-2,1.4-2.4.7-1.3,1.3-2.7,1.4-4.2,1.7,2,2.5,5.1,1.7,7.7-.3,1.1-1.3,1.8-1.9,2.7-.3.5-.8,1.2-.8,1.8l1.3-1.4h.2c-2.1,3.3-4.5,7.6-3,11.5.2.4.4.9.7,1.1-.6-1.8-.4-3.7.2-5.5.8-2,2.2-3.7,3.5-5.3.6,2.2-.8,4.3-1.1,6.4-.4,2.6.5,5,2,7,.4.5.9.9,1.2,1.4h.1c-1.9-2.2-3-5.2-2.4-8,.4-2.2,2-4,1.9-6.4,0-.4-.4-1.7-.4-1.9,0,0,.7-1.3.8-1.4,0,0,0-.2.1,0,1.9,2.3,3.1,5,3.2,8l.2-1.1c-.1-.8-.2-1.6-.4-2.4-.5-1.9-1.5-3.6-2.5-5.2l.4-1.4c.1,0,.1,0,.2,0,2,1.7,3.9,5.2,3.2,7.9.1-.3.9-2.3,1-2.6ZM65.1,76.5h0s0,0,0,0c0,0,0,0,0-.1,0,0,0,0,0,0-.5-.6-2.4-3-2.4-6s2.3-5.9,2.5-6.1c0,0,0,0,0,0,0,0,0,0,0,0,.2.2,2.5,2.9,2.5,6.1s-2.5,6.1-2.5,6.1Z"/><path class="cls-4" d="M119.7,96.4V23.3c0,0-18.1,42-18.1,42-1.9-.6-3.9-1.3-5.8-2-.3-.1-1.8-.6-1.9-.8-4.2-9-8.3-18-12.5-27-2-4.3-4-8.9-6.1-13.1,0-.1,0-.3-.2-.3v28.5s0-.1-.1-.2c-.8-1.2-1.8-3.1-2.5-4.4-.4-.8-.8-1.6-1.2-2.4-.2-.5-.4-1.1-.7-1.5.2.8.3,1.7.4,2.5,1.7,7.8,7.5,14.1,14.1,18.1,3.1,1.9,6.4,3.3,9.8,4.4h-.3s-7.2-2.3-7.2-2.3l-5.1-1.5v.2c1,.5,1.9,1.3,2.9,1.9,3.5,1.9,7.5,2.9,11.1,4.6,2.7,1.3,5,3.3,7.8,4.3l2.1.4c-3.4,0-6.5-1.6-9.6-2.7-2.7-.9-5.4-1.5-8-2.3-.4-.1-.9-.4-1.2-.5-.3,0,.2.5.2.6,2.5,3.4,7.5,4,11.4,3.7,0,.2,0,.1-.2.2-1.1.2-3,.2-4.1.2-4-.2-7.6-2.1-10.9-4.1-.1,0-.8-.6-.9-.5.3,2.4,0,4.8-.8,7,1.8,2.4,3.8,5.2,3.2,8.4v-.8c-.5-2.4-2.2-4.3-3.8-6,0,0,0,0-.2,0-1.6,3.7-4.3,7.9-8.7,8.2l1.2-.5c2.3-1,3.6-3.3,4.4-5.5,0,0,.8-2.2.9-2.7.6-2.5.6-5.4,0-8-2-7.3-9.4-11.3-11.9-18.8-.4-1.1-.3-1.4-.3-2.5,0-3.4,0-6.8,0-10.3,0-12.6,0-25.2,0-37.8h10.3c0,.1,20.8,44.9,20.8,44.9L118.3,0h11.6v96.4c0,0-10.2,0-10.2,0Z"/><path class="cls-2" d="M86.4,74.7c1.7,1.5,3.4,2.9,5.6,3.9l3.4,1.5c-.1,0-.3,0-.4,0-1.8-.5-4-1.4-5.6-2.4s-3.4-2.8-4.9-4.5h0c.6.5,1.2,1,1.8,1.6Z"/><path class="cls-1" d="M44.6,74.8c-1.8,2-4.2,3.7-6.8,4.4l2.3-1.3c2.2-1.3,4-3.1,5.8-4.9.1.1-.1.3-.2.4-.3.4-.7.9-1.1,1.3Z"/></g></svg>