<?xml version="1.0" encoding="UTF-8"?><svg id="Camada_2" xmlns="http://www.w3.org/2000/svg" width="64" height="51.4" xmlns:xlink="http://www.w3.org/1999/xlink" viewBox="0 0 64 51.4"><defs><style>.cls-1{fill:url(#Gradiente_sem_nome_145);}.cls-2{fill:url(#Gradiente_sem_nome_105);}.cls-3{fill:url(#Gradiente_sem_nome_358);}.cls-4{fill:url(#Gradiente_sem_nome_335);}.cls-5{fill:url(#Gradiente_sem_nome_364);}</style><linearGradient id="Gradiente_sem_nome_358" x1="8.9" y1="51.2" x2="18.1" y2="0" gradientUnits="userSpaceOnUse"><stop offset="0" stop-color="#992b00"/><stop offset=".2" stop-color="#9f3100"/><stop offset=".4" stop-color="#b14201"/><stop offset=".7" stop-color="#ce5d02"/><stop offset="1" stop-color="#f68404"/><stop offset="1" stop-color="#f88605"/></linearGradient><linearGradient id="Gradiente_sem_nome_364" x1="25.3" y1="40.5" x2="38.9" y2="40.5" gradientUnits="userSpaceOnUse"><stop offset=".4" stop-color="#a23400"/><stop offset=".6" stop-color="#015141"/></linearGradient><linearGradient id="Gradiente_sem_nome_335" x1="62.5" y1="48.5" x2="37.9" y2="-4.5" gradientUnits="userSpaceOnUse"><stop offset="0" stop-color="#00493d"/><stop offset=".2" stop-color="#004e3f"/><stop offset=".4" stop-color="#025d47"/><stop offset=".7" stop-color="#047655"/><stop offset="1" stop-color="#089967"/><stop offset="1" stop-color="#099b69"/></linearGradient><linearGradient id="Gradiente_sem_nome_105" x1="41.6" y1="37.7" x2="47" y2="37.7" gradientUnits="userSpaceOnUse"><stop offset="0" stop-color="#00493d"/><stop offset="1" stop-color="#099b69"/></linearGradient><linearGradient id="Gradiente_sem_nome_145" x1="18.6" y1="37.5" x2="22.6" y2="37.5" gradientUnits="userSpaceOnUse"><stop offset="0" stop-color="#a93507"/><stop offset=".2" stop-color="#b64206"/><stop offset=".7" stop-color="#d96605"/><stop offset="1" stop-color="#f88605"/></linearGradient></defs><g id="Camada_1-2"><path class="cls-3" d="M26.7,31.2c-1.4,1.9-2.2,4.2-1.6,6.6,0,0,.5,1.6.6,1.8h0c.3,1,1.1,2.1,1.9,2.5l.8.4c-2.2-.2-3.5-2.3-4.4-4.1,0,0,0,0-.1,0-.1.1-.5.5-.6.7-.4.5-.9,1.1-1,1.8l-.2.9v-1c0-.2.2-.8.3-1,.3-.8.8-1.5,1.3-2.1,0-.4-.2-.7-.3-1.1-.2-.8-.2-1.6-.1-2.4-2,1.3-4,2.3-6.4,2.2,0,0-.1,0-.1,0,1.2,0,2.4-.2,3.4-.9.3-.2.9-.8,1.1-1.1,0,0,0-.1,0-.1-1.6.6-3.3.9-4.9,1.5-1.2.4-2.4,1.1-3.7,1.2h-.1c0,0,.1,0,.2,0,1.4-.3,2.6-1.4,3.9-2.1,2.2-1.2,4.8-1.7,6.8-3.3l-.9.2-4.8,1.2c3.7-1.1,4.3-1.7,4.9-2.1,3.1-2.2,5.5-4.9,6.4-8.6.1-.4.1-.9.3-1.3,0,0-.1.1-.2.2-.7,1.4-1.5,2.8-2.4,4.1l-.2.2v-15.1c-.1,0,0,0,0,0-.4.7-.8,1.8-1.2,2.5-2.9,6.1-5.8,12.2-8.6,18.4h-.1c-1.2.5-2.4.9-3.5,1.4-1.1-2.4-2.1-4.9-3.2-7.3-1.8-4.2-3.7-8.4-5.4-12.6-.1-.3-.2-.7-.4-1,0,0,0-.1-.1,0v36c0,0-4.2,0-4.2,0V0c.3,0,.7,0,1,0,1.2,0,2.5,0,3.8,0,.2,0,.5-.1.7,0,2.9,6.6,5.7,13.3,8.6,19.9.3.7.6,1.5,1,2.1,0,0,0,0,0,0L25.6,0h5.6c0,6.1,0,12.3,0,18.5,0,1.8,0,3.7,0,5.5s-1.1,3-1.8,3.9c-.8,1.2-1.9,2.1-2.7,3.3Z"/><path class="cls-5" d="M38.9,42c-.2-1.3-1.1-2.4-2-3.3,0-1-.2-1.9-.6-2.8-.5-1-1.3-1.6-2-2.5-.9-1.1-1.7-2.4-2.1-3.8,0,0,0,0,0,0-.6,2.1-1.8,3.2-3.1,4.8-1.1,1.3-1.7,2.6-1.6,4.4-.9.8-1.8,1.8-2,3.1,0,0,.3,1.2.4,1.5,0,0-.2-.7-.1-1.1,0-.8.8-1.9,1.3-2.5,0,0,.4-.5.5-.4l.3.8c-.6.8-1.1,1.7-1.4,2.7,0,.3-.2.8-.2,1.1,0,0,0,.2,0,.2,0-1,.4-2,.9-2.8.2-.3.5-.6.6-.9.1.1.3.4.3.6,0,.2,0,.6-.1.9,0,1.2.5,1.8.8,2.9.3,1.2.2,2.4-.4,3.6l-.4.6c1-.9,1.5-2.4,1.4-3.7,0-1.1-.8-2.1-.6-3.3,0,0,.2.1.2.1.3.3.7.9,1,1.3.8,1.2,1.1,2.5.7,3.9.1-.1.2-.3.3-.5.8-2-.5-4.3-1.6-5.9.1,0,.2.1.2.2.2.2.5.4.8.7h0c-.3-.5-.5-.8-.7-1.2-.2-.3-.6-.6-.7-.9-.3-.6-.2-1.6,0-2.2.1-.6.5-1.3.8-1.8,0,0,0,0,0,0,.2,1.3.8,2.1,1.4,3.2-.6,2.3.4,4.6.5,6.9-.2,1.2-.2,2.3,0,3.4,0,.7.3,1.4.3,2l.3-1.3c0-.7.3-1.4.3-2.2.1-1.9-.4-3.8-.1-5.7,0-.8.4-1.6.4-2.4,0-.2,0-.6,0-.8,0-.1.6-1,.7-1.2.3-.6.6-1.3.7-2.1.8,1,1.2,2.5.8,3.8-.2.5-.6.9-1,1.3-.2.2-.4.6-.4.9l.6-.7h0c-1,1.6-2.2,3.8-1.5,5.7,0,.2.2.4.3.5-.3-.9-.2-1.8.1-2.7.4-1,1.1-1.8,1.7-2.6.3,1.1-.4,2.1-.5,3.2-.2,1.3.2,2.5,1,3.4.2.2.4.4.6.7h0c-.9-1.1-1.5-2.6-1.2-4,.2-1.1,1-2,.9-3.1,0-.2-.2-.8-.2-.9,0,0,.3-.6.4-.7,0,0,0,0,0,0,.9,1.1,1.5,2.5,1.6,3.9v-.6c0-.4,0-.8,0-1.2-.2-1-.7-1.8-1.3-2.6l.2-.7c0,0,0,0,0,0,1,.9,1.9,2.6,1.6,3.9,0-.1.5-1.1.5-1.3ZM32.1,37.6h0s0,0,0,0c0,0,0,0,0,0,0,0,0,0,0,0-.2-.3-1.2-1.5-1.2-2.9s1.1-2.9,1.2-3c0,0,0,0,0,0,0,0,0,0,0,0,0,.1,1.2,1.4,1.2,3s-1.2,3-1.2,3Z"/><path class="cls-4" d="M58.9,47.5V11.5s-8.9,20.7-8.9,20.7c-1-.3-1.9-.6-2.9-1-.2,0-.9-.3-.9-.4-2.1-4.4-4.1-8.9-6.1-13.3-1-2.1-2-4.4-3-6.4,0,0,0-.1-.1-.1v14s0,0,0,0c-.4-.6-.9-1.5-1.2-2.2-.2-.4-.4-.8-.6-1.2-.1-.2-.2-.5-.4-.7,0,.4.1.8.2,1.2.8,3.9,3.7,6.9,7,8.9,1.5.9,3.1,1.6,4.8,2.2h-.2s-3.6-1.1-3.6-1.1l-2.5-.7h0c.5.3,1,.7,1.5,1,1.7,1,3.7,1.4,5.5,2.3,1.3.6,2.4,1.6,3.8,2.1l1,.2c-1.7,0-3.2-.8-4.7-1.3-1.3-.4-2.7-.7-4-1.1-.2,0-.4-.2-.6-.2-.1,0,0,.3.1.3,1.2,1.7,3.7,2,5.6,1.8,0,.1,0,0,0,0-.5.1-1.5.1-2,0-1.9,0-3.8-1-5.4-2,0,0-.4-.3-.4-.3.1,1.2,0,2.4-.4,3.5.9,1.2,1.9,2.5,1.6,4.1v-.4c-.3-1.2-1.1-2.1-1.9-3,0,0,0,0,0,0-.8,1.8-2.1,3.9-4.3,4l.6-.2c1.1-.5,1.8-1.6,2.2-2.7,0,0,.4-1.1.5-1.3.3-1.3.3-2.7,0-3.9-1-3.6-4.6-5.6-5.8-9.3-.2-.5-.2-.7-.1-1.2,0-1.7,0-3.4,0-5.1,0-6.2,0-12.4,0-18.6h5.1c0,0,10.2,22.1,10.2,22.1L58.2,0h5.7v47.5s-5,0-5,0Z"/><path class="cls-2" d="M42.5,36.8c.9.8,1.7,1.4,2.7,1.9l1.7.7c0,0-.1,0-.2,0-.9-.3-2-.7-2.8-1.2-.9-.6-1.7-1.4-2.4-2.2h0c.3.2.6.5.9.8Z"/><path class="cls-1" d="M22,36.8c-.9,1-2.1,1.8-3.4,2.2l1.1-.6c1.1-.6,2-1.5,2.8-2.4,0,0,0,.1,0,.2-.2.2-.4.5-.5.6Z"/></g></svg>