<?xml version="1.0" encoding="UTF-8"?><svg id="Camada_2" xmlns="http://www.w3.org/2000/svg" width="16" height="12.9" xmlns:xlink="http://www.w3.org/1999/xlink" viewBox="0 0 16 12.9"><defs><style>.cls-1{fill:url(#Gradiente_sem_nome_145);}.cls-2{fill:url(#Gradiente_sem_nome_105);}.cls-3{fill:url(#Gradiente_sem_nome_358);}.cls-4{fill:url(#Gradiente_sem_nome_335);}.cls-5{fill:url(#Gradiente_sem_nome_364);}</style><linearGradient id="Gradiente_sem_nome_358" x1="2.2" y1="12.8" x2="4.5" y2="0" gradientUnits="userSpaceOnUse"><stop offset="0" stop-color="#992b00"/><stop offset=".2" stop-color="#9f3100"/><stop offset=".4" stop-color="#b14201"/><stop offset=".7" stop-color="#ce5d02"/><stop offset="1" stop-color="#f68404"/><stop offset="1" stop-color="#f88605"/></linearGradient><linearGradient id="Gradiente_sem_nome_364" x1="6.3" y1="10.1" x2="9.7" y2="10.1" gradientUnits="userSpaceOnUse"><stop offset=".4" stop-color="#a23400"/><stop offset=".6" stop-color="#015141"/></linearGradient><linearGradient id="Gradiente_sem_nome_335" x1="15.6" y1="12.1" x2="9.5" y2="-1.1" gradientUnits="userSpaceOnUse"><stop offset="0" stop-color="#00493d"/><stop offset=".2" stop-color="#004e3f"/><stop offset=".4" stop-color="#025d47"/><stop offset=".7" stop-color="#047655"/><stop offset="1" stop-color="#089967"/><stop offset="1" stop-color="#099b69"/></linearGradient><linearGradient id="Gradiente_sem_nome_105" x1="10.4" y1="9.4" x2="11.7" y2="9.4" gradientUnits="userSpaceOnUse"><stop offset="0" stop-color="#00493d"/><stop offset="1" stop-color="#099b69"/></linearGradient><linearGradient id="Gradiente_sem_nome_145" x1="4.7" y1="9.4" x2="5.7" y2="9.4" gradientUnits="userSpaceOnUse"><stop offset="0" stop-color="#a93507"/><stop offset=".2" stop-color="#b64206"/><stop offset=".7" stop-color="#d96605"/><stop offset="1" stop-color="#f88605"/></linearGradient></defs><g id="Camada_1-2"><path class="cls-3" d="M6.7,7.8c-.3.5-.5,1.1-.4,1.6,0,0,.1.4.1.4h0c0,.3.3.5.5.6h.2c-.6,0-.9-.5-1.1-.9,0,0,0,0,0,0,0,0-.1.1-.1.2-.1.1-.2.3-.3.5v.2s0-.3,0-.3c0,0,0-.2,0-.2,0-.2.2-.4.3-.5,0,0,0-.2,0-.3,0-.2,0-.4,0-.6-.5.3-1,.6-1.6.6,0,0,0,0,0,0,.3,0,.6,0,.9-.2,0,0,.2-.2.3-.3,0,0,0,0,0,0-.4.1-.8.2-1.2.4-.3.1-.6.3-.9.3h0s0,0,0,0c.3,0,.7-.4,1-.5.6-.3,1.2-.4,1.7-.8h-.2c0,0-1.2.4-1.2.4.9-.3,1.1-.4,1.2-.5.8-.5,1.4-1.2,1.6-2.2,0-.1,0-.2,0-.3,0,0,0,0,0,0-.2.3-.4.7-.6,1h0s0-3.7,0-3.7c0,0,0,0,0,0-.1.2-.2.4-.3.6-.7,1.5-1.5,3.1-2.2,4.6h0c-.3.1-.6.2-.9.4-.3-.6-.5-1.2-.8-1.8-.5-1-.9-2.1-1.4-3.1,0,0,0-.2,0-.3,0,0,0,0,0,0v9s-1,0-1,0V0c0,0,.2,0,.3,0,.3,0,.6,0,.9,0,0,0,.1,0,.2,0,.7,1.7,1.4,3.3,2.2,5,0,.2.2.4.2.5,0,0,0,0,0,0L6.4,0h1.4c0,1.5,0,3.1,0,4.6,0,.5,0,.9,0,1.4s-.3.7-.4,1c-.2.3-.5.5-.7.8Z"/><path class="cls-5" d="M9.7,10.5c0-.3-.3-.6-.5-.8,0-.3,0-.5-.2-.7-.1-.2-.3-.4-.5-.6-.2-.3-.4-.6-.5-.9,0,0,0,0,0,0-.2.5-.4.8-.8,1.2-.3.3-.4.7-.4,1.1-.2.2-.5.5-.5.8,0,0,0,.3.1.4,0,0,0-.2,0-.3,0-.2.2-.5.3-.6,0,0,.1-.1.1-.1v.2c0,.2-.2.4-.3.7,0,0,0,.2,0,.3,0,0,0,0,0,0,0-.2.1-.5.2-.7,0,0,.1-.1.2-.2,0,0,0,0,0,.1,0,0,0,.2,0,.2,0,.3.1.5.2.7,0,.3,0,.6-.1.9h0c.2,0,.4-.4.4-.8,0-.3-.2-.5-.1-.8,0,0,0,0,0,0,0,0,.2.2.2.3.2.3.3.6.2,1,0,0,0,0,0-.1.2-.5-.1-1.1-.4-1.5,0,0,0,0,0,0,0,0,.1.1.2.2h0c0-.1-.1-.2-.2-.3,0,0-.1-.1-.2-.2,0-.1,0-.4,0-.5,0-.2.1-.3.2-.5,0,0,0,0,0,0,0,.3.2.5.4.8-.1.6.1,1.1.1,1.7,0,.3,0,.6,0,.9,0,.2,0,.3,0,.5v-.3c0-.2.1-.4.1-.5,0-.5,0-.9,0-1.4,0-.2,0-.4.1-.6,0,0,0-.1,0-.2,0,0,.1-.2.2-.3,0-.2.2-.3.2-.5.2.3.3.6.2.9,0,.1-.2.2-.2.3,0,0-.1.1-.1.2l.2-.2h0c-.3.4-.6.9-.4,1.4,0,0,0,.1,0,.1,0-.2,0-.5,0-.7,0-.2.3-.5.4-.7,0,.3,0,.5-.1.8,0,.3,0,.6.3.9,0,0,.1.1.1.2h0c-.2-.3-.4-.6-.3-1,0-.3.2-.5.2-.8,0,0,0-.2,0-.2,0,0,0-.2,0-.2,0,0,0,0,0,0,.2.3.4.6.4,1h0c0-.2,0-.3,0-.4,0-.2-.2-.4-.3-.6v-.2c0,0,0,0,0,0,.2.2.5.6.4,1,0,0,.1-.3.1-.3ZM8,9.4h0s0,0,0,0c0,0,0,0,0,0,0,0,0,0,0,0,0,0-.3-.4-.3-.7s.3-.7.3-.7c0,0,0,0,0,0,0,0,0,0,0,0,0,0,.3.4.3.7s-.3.7-.3.7Z"/><path class="cls-4" d="M14.7,11.9V2.9s-2.2,5.2-2.2,5.2c-.2,0-.5-.2-.7-.2,0,0-.2,0-.2,0-.5-1.1-1-2.2-1.5-3.3-.2-.5-.5-1.1-.8-1.6,0,0,0,0,0,0v3.5s0,0,0,0c-.1-.2-.2-.4-.3-.5,0,0-.1-.2-.1-.3,0,0,0-.1,0-.2,0,.1,0,.2,0,.3.2,1,.9,1.7,1.7,2.2.4.2.8.4,1.2.5h0s-.9-.3-.9-.3l-.6-.2h0c.1,0,.2.2.4.3.4.2.9.4,1.4.6.3.2.6.4,1,.5h.3c-.4,0-.8-.1-1.2-.3-.3-.1-.7-.2-1-.3,0,0-.1,0-.2,0,0,0,0,0,0,0,.3.4.9.5,1.4.5,0,0,0,0,0,0-.1,0-.4,0-.5,0-.5,0-.9-.3-1.3-.5,0,0,0,0-.1,0,0,.3,0,.6,0,.9.2.3.5.6.4,1h0c0-.4-.3-.6-.5-.8,0,0,0,0,0,0-.2.5-.5,1-1.1,1h.2c.3-.2.4-.5.5-.7,0,0,0-.3.1-.3,0-.3,0-.7,0-1-.2-.9-1.2-1.4-1.5-2.3,0-.1,0-.2,0-.3,0-.4,0-.8,0-1.3,0-1.5,0-3.1,0-4.6h1.3s2.6,5.5,2.6,5.5L14.6,0h1.4v11.9s-1.3,0-1.3,0Z"/><path class="cls-2" d="M10.6,9.2c.2.2.4.4.7.5l.4.2s0,0,0,0c-.2,0-.5-.2-.7-.3s-.4-.3-.6-.6h0c0,0,.1.1.2.2Z"/><path class="cls-1" d="M5.5,9.2c-.2.2-.5.5-.8.5l.3-.2c.3-.2.5-.4.7-.6,0,0,0,0,0,0,0,0,0,.1-.1.2Z"/></g></svg>