<?xml version="1.0" encoding="UTF-8"?><svg id="Camada_2" xmlns="http://www.w3.org/2000/svg" width="48" height="38.6" xmlns:xlink="http://www.w3.org/1999/xlink" viewBox="0 0 48 38.6"><defs><style>.cls-1{fill:url(#Gradiente_sem_nome_145);}.cls-2{fill:url(#Gradiente_sem_nome_105);}.cls-3{fill:url(#Gradiente_sem_nome_358);}.cls-4{fill:url(#Gradiente_sem_nome_335);}.cls-5{fill:url(#Gradiente_sem_nome_364);}</style><linearGradient id="Gradiente_sem_nome_358" x1="6.6" y1="38.4" x2="13.6" y2="0" gradientUnits="userSpaceOnUse"><stop offset="0" stop-color="#992b00"/><stop offset=".2" stop-color="#9f3100"/><stop offset=".4" stop-color="#b14201"/><stop offset=".7" stop-color="#ce5d02"/><stop offset="1" stop-color="#f68404"/><stop offset="1" stop-color="#f88605"/></linearGradient><linearGradient id="Gradiente_sem_nome_364" x1="19" y1="30.4" x2="29.2" y2="30.4" gradientUnits="userSpaceOnUse"><stop offset=".4" stop-color="#a23400"/><stop offset=".6" stop-color="#015141"/></linearGradient><linearGradient id="Gradiente_sem_nome_335" x1="46.9" y1="36.4" x2="28.4" y2="-3.4" gradientUnits="userSpaceOnUse"><stop offset="0" stop-color="#00493d"/><stop offset=".2" stop-color="#004e3f"/><stop offset=".4" stop-color="#025d47"/><stop offset=".7" stop-color="#047655"/><stop offset="1" stop-color="#089967"/><stop offset="1" stop-color="#099b69"/></linearGradient><linearGradient id="Gradiente_sem_nome_105" x1="31.2" y1="28.3" x2="35.2" y2="28.3" gradientUnits="userSpaceOnUse"><stop offset="0" stop-color="#00493d"/><stop offset="1" stop-color="#099b69"/></linearGradient><linearGradient id="Gradiente_sem_nome_145" x1="14" y1="28.1" x2="17" y2="28.1" gradientUnits="userSpaceOnUse"><stop offset="0" stop-color="#a93507"/><stop offset=".2" stop-color="#b64206"/><stop offset=".7" stop-color="#d96605"/><stop offset="1" stop-color="#f88605"/></linearGradient></defs><g id="Camada_1-2"><path class="cls-3" d="M20.1,23.4c-1,1.4-1.6,3.2-1.2,4.9,0,0,.4,1.2.4,1.3h0c.2.8.8,1.6,1.5,1.8l.6.3c-1.7-.2-2.6-1.7-3.3-3.1,0,0,0,0,0,0,0,0-.3.4-.4.5-.3.4-.6.9-.8,1.4v.7c-.1,0-.1-.8-.1-.8,0-.1.2-.6.2-.7.2-.6.6-1.1,1-1.6,0-.3-.1-.5-.2-.8-.1-.6-.1-1.2,0-1.8-1.5,1-3,1.8-4.8,1.7,0,0-.1,0-.1,0,.9,0,1.8-.2,2.6-.7.2-.2.7-.6.8-.8,0,0,0,0,0-.1-1.2.4-2.5.7-3.7,1.1-.9.3-1.8.8-2.7.9h-.1s.1,0,.2,0c1-.2,2-1.1,2.9-1.6,1.7-.9,3.6-1.3,5.1-2.5l-.7.2-3.6.9c2.8-.8,3.3-1.2,3.7-1.6,2.3-1.6,4.1-3.7,4.8-6.5,0-.3.1-.7.2-1,0,0,0,0-.1.1-.6,1-1.1,2.1-1.8,3h-.2c0,.1,0-11.2,0-11.2,0,0,0,0,0,0-.3.5-.6,1.3-.9,1.9-2.2,4.6-4.4,9.2-6.5,13.8h0c-.9.4-1.8.7-2.6,1.1-.8-1.8-1.6-3.7-2.4-5.5-1.4-3.1-2.8-6.3-4.1-9.4-.1-.2-.2-.5-.3-.8,0,0,0,0,0,0v27s-3.1,0-3.1,0V0c.3,0,.5,0,.8,0,.9,0,1.9,0,2.8,0,.1,0,.4,0,.5,0,2.2,5,4.3,10,6.5,15,.2.5.5,1.1.7,1.6,0,0,0,0,0,0L19.2,0h4.2c0,4.6,0,9.2,0,13.9,0,1.4,0,2.8,0,4.1s-.8,2.2-1.3,2.9c-.6.9-1.4,1.6-2.1,2.5Z"/><path class="cls-5" d="M29.2,31.5c-.2-1-.8-1.8-1.5-2.5,0-.8-.1-1.5-.5-2.1-.4-.7-1-1.2-1.5-1.8-.7-.8-1.3-1.8-1.6-2.8,0,0,0,0,0,0-.5,1.6-1.3,2.4-2.3,3.6-.8,1-1.3,2-1.2,3.3-.7.6-1.4,1.4-1.5,2.3,0,0,.2.9.3,1.1,0,0-.1-.5,0-.8,0-.6.6-1.4,1-1.8,0,0,.3-.3.4-.3l.2.6c-.5.6-.8,1.3-1,2,0,.2-.1.6-.1.8,0,0,0,.1,0,.1,0-.7.3-1.5.7-2.1.1-.2.4-.4.5-.7,0,0,.2.3.3.4,0,.2,0,.5,0,.7,0,.9.4,1.4.6,2.2.3.9.1,1.8-.3,2.7l-.3.4c.7-.7,1.2-1.8,1.1-2.8,0-.8-.6-1.6-.4-2.5,0,0,.1,0,.1.1.2.3.6.7.7,1,.6.9.8,1.9.5,2.9.1,0,.2-.3.2-.4.6-1.5-.3-3.2-1.2-4.5,0,0,.1.1.2.2.2.2.4.3.6.5h0c-.2-.4-.3-.6-.6-.9-.2-.2-.4-.4-.6-.7-.2-.4-.2-1.2,0-1.6.1-.5.4-1,.6-1.4,0,0,0,0,0,0,.1,1,.6,1.6,1.1,2.4-.4,1.8.3,3.4.4,5.2-.1.9-.1,1.7,0,2.6,0,.5.2,1,.3,1.5l.2-1c0-.5.2-1.1.2-1.6.1-1.4-.3-2.8-.1-4.3,0-.6.3-1.2.3-1.8,0-.2,0-.4,0-.6,0,0,.4-.7.5-.9.3-.5.5-1,.5-1.6.6.8.9,1.9.6,2.8-.1.4-.5.7-.7,1-.1.2-.3.4-.3.6l.5-.5h0c-.8,1.2-1.7,2.8-1.1,4.3,0,.1.1.3.3.4-.2-.7-.2-1.4,0-2,.3-.7.8-1.4,1.3-2,.2.8-.3,1.6-.4,2.4-.1.9.2,1.8.8,2.6.1.2.3.3.4.5h0c-.7-.8-1.1-1.9-.9-3,.2-.8.7-1.5.7-2.4,0-.2-.2-.6-.1-.7,0,0,.3-.5.3-.5,0,0,0,0,0,0,.7.8,1.1,1.9,1.2,3v-.4c0-.3,0-.6,0-.9-.2-.7-.5-1.3-.9-1.9v-.5c.2,0,.2,0,.2,0,.7.6,1.5,1.9,1.2,2.9,0-.1.3-.8.4-1ZM24.1,28.2h0s0,0,0,0c0,0,0,0,0,0,0,0,0,0,0,0-.2-.2-.9-1.1-.9-2.2s.9-2.2.9-2.2c0,0,0,0,0,0,0,0,0,0,0,0,0,0,.9,1.1.9,2.2s-.9,2.2-.9,2.2Z"/><path class="cls-4" d="M44.2,35.6V8.6s-6.7,15.5-6.7,15.5c-.7-.2-1.4-.5-2.1-.7-.1,0-.6-.2-.7-.3-1.5-3.3-3.1-6.6-4.6-10-.7-1.6-1.5-3.3-2.3-4.8,0,0,0,0,0-.1v10.5s0,0,0,0c-.3-.5-.7-1.1-.9-1.6-.2-.3-.3-.6-.4-.9,0-.2-.1-.4-.3-.6,0,.3,0,.6.2.9.6,2.9,2.8,5.2,5.2,6.7,1.1.7,2.3,1.2,3.6,1.6h-.1s-2.7-.9-2.7-.9l-1.9-.5h0c.4.3.7.5,1.1.8,1.3.7,2.8,1.1,4.1,1.7,1,.5,1.8,1.2,2.9,1.6l.8.2c-1.3,0-2.4-.6-3.6-1-1-.3-2-.6-3-.9-.1,0-.3-.2-.5-.2-.1,0,0,.2,0,.2.9,1.3,2.8,1.5,4.2,1.4,0,0,0,0,0,0-.4,0-1.1,0-1.5,0-1.5,0-2.8-.8-4-1.5,0,0-.3-.2-.3-.2.1.9,0,1.8-.3,2.6.7.9,1.4,1.9,1.2,3.1v-.3c-.2-.9-.8-1.6-1.4-2.2,0,0,0,0,0,0-.6,1.4-1.6,2.9-3.2,3l.5-.2c.9-.4,1.3-1.2,1.6-2,0,0,.3-.8.3-1,.2-.9.2-2,0-2.9-.7-2.7-3.5-4.2-4.4-7-.1-.4-.1-.5-.1-.9,0-1.3,0-2.5,0-3.8,0-4.6,0-9.3,0-13.9h3.8s7.7,16.6,7.7,16.6L43.7,0h4.3v35.6s-3.8,0-3.8,0Z"/><path class="cls-2" d="M31.9,27.6c.6.6,1.3,1.1,2.1,1.4l1.3.5s0,0-.1,0c-.7-.2-1.5-.5-2.1-.9s-1.3-1-1.8-1.7h0c.2.2.4.4.7.6Z"/><path class="cls-1" d="M16.5,27.6c-.7.7-1.6,1.4-2.5,1.6l.9-.5c.8-.5,1.5-1.1,2.1-1.8,0,0,0,.1,0,.1-.1.2-.3.3-.4.5Z"/></g></svg>