<?xml version="1.0" encoding="UTF-8"?><svg id="Camada_2" xmlns="http://www.w3.org/2000/svg" width="60" height="13.5" xmlns:xlink="http://www.w3.org/1999/xlink" viewBox="0 0 60 13.5"><defs><style>.cls-1{fill:url(#Gradiente_sem_nome_17-13);}.cls-2{fill:url(#Gradiente_sem_nome_17-14);}.cls-3{fill:url(#Gradiente_sem_nome_17-15);}.cls-4{fill:url(#Gradiente_sem_nome_17-4);}.cls-5{fill:url(#Gradiente_sem_nome_13-7);}.cls-6{fill:url(#Gradiente_sem_nome_13-8);}.cls-7{fill:url(#Gradiente_sem_nome_17-11);}.cls-8{fill:url(#Gradiente_sem_nome_17-18);}.cls-9{fill:url(#Gradiente_sem_nome_13-3);}.cls-10{fill:url(#Gradiente_sem_nome_17);}.cls-11{fill:url(#Gradiente_sem_nome_17-16);}.cls-12{fill:url(#Gradiente_sem_nome_13-9);}.cls-13{fill:url(#Gradiente_sem_nome_17-3);}.cls-14{fill:url(#Gradiente_sem_nome_17-9);}.cls-15{fill:url(#Gradiente_sem_nome_13-2);}.cls-16{fill:url(#Gradiente_sem_nome_17-20);}.cls-17{fill:url(#Gradiente_sem_nome_13);}.cls-18{fill:url(#Gradiente_sem_nome_17-2);}.cls-19{fill:url(#Gradiente_sem_nome_17-19);}.cls-20{fill:url(#Gradiente_sem_nome_17-10);}.cls-21{fill:url(#Gradiente_sem_nome_17-6);}.cls-22{fill:url(#Gradiente_sem_nome_17-12);}.cls-23{fill:url(#Gradiente_sem_nome_17-8);}.cls-24{fill:url(#Gradiente_sem_nome_17-7);}.cls-25{fill:url(#Gradiente_sem_nome_13-4);}.cls-26{fill:url(#Gradiente_sem_nome_13-5);}.cls-27{fill:url(#Gradiente_sem_nome_13-6);}.cls-28{fill:url(#Gradiente_sem_nome_17-17);}.cls-29{fill:url(#Gradiente_sem_nome_17-5);}</style><linearGradient id="Gradiente_sem_nome_17" x1="4" y1="10" x2="4" y2="13.5" gradientUnits="userSpaceOnUse"><stop offset="0" stop-color="#00493d"/><stop offset=".1" stop-color="#025f48"/><stop offset=".3" stop-color="#057956"/><stop offset=".6" stop-color="#078c60"/><stop offset=".8" stop-color="#089767"/><stop offset="1" stop-color="#099b69"/></linearGradient><linearGradient id="Gradiente_sem_nome_17-2" x1="5.6" y1="10.6" x2="5.6" y2="12.6" xlink:href="#Gradiente_sem_nome_17"/><linearGradient id="Gradiente_sem_nome_17-3" x1="8.3" y1="10.1" x2="8.3" y2="13.1" xlink:href="#Gradiente_sem_nome_17"/><linearGradient id="Gradiente_sem_nome_17-4" x1="11.1" y1="9.9" x2="11.1" y2="13.5" xlink:href="#Gradiente_sem_nome_17"/><linearGradient id="Gradiente_sem_nome_17-5" x1="13.1" y1="10.6" x2="13.1" y2="12.6" xlink:href="#Gradiente_sem_nome_17"/><linearGradient id="Gradiente_sem_nome_17-6" x1="15.6" y1="9.1" x2="15.6" y2="13.2" xlink:href="#Gradiente_sem_nome_17"/><linearGradient id="Gradiente_sem_nome_17-7" x1="18.1" y1="9.9" x2="18.1" y2="13.5" xlink:href="#Gradiente_sem_nome_17"/><linearGradient id="Gradiente_sem_nome_17-8" x1="20.5" y1="10.4" x2="20.5" y2="13" xlink:href="#Gradiente_sem_nome_17"/><linearGradient id="Gradiente_sem_nome_17-9" x1="24.5" y1="10.3" x2="24.5" y2="12.6" xlink:href="#Gradiente_sem_nome_17"/><linearGradient id="Gradiente_sem_nome_17-10" x1="27.1" y1="10.3" x2="27.1" y2="13" xlink:href="#Gradiente_sem_nome_17"/><linearGradient id="Gradiente_sem_nome_17-11" x1="29.5" y1="9.9" x2="29.5" y2="13.5" xlink:href="#Gradiente_sem_nome_17"/><linearGradient id="Gradiente_sem_nome_17-12" x1="33" y1="10.1" x2="33" y2="13.1" xlink:href="#Gradiente_sem_nome_17"/><linearGradient id="Gradiente_sem_nome_17-13" x1="35.7" y1="10.5" x2="35.7" y2="13" xlink:href="#Gradiente_sem_nome_17"/><linearGradient id="Gradiente_sem_nome_17-14" x1="37.6" y1="10.8" x2="37.6" y2="12.8" xlink:href="#Gradiente_sem_nome_17"/><linearGradient id="Gradiente_sem_nome_17-15" x1="39.6" y1="10.1" x2="39.6" y2="13.5" xlink:href="#Gradiente_sem_nome_17"/><linearGradient id="Gradiente_sem_nome_17-16" x1="43" y1="10.3" x2="43" y2="12.7" xlink:href="#Gradiente_sem_nome_17"/><linearGradient id="Gradiente_sem_nome_17-17" x1="47.8" y1="10.4" x2="47.8" y2="13" xlink:href="#Gradiente_sem_nome_17"/><linearGradient id="Gradiente_sem_nome_17-18" x1="49.7" y1="10.8" x2="49.7" y2="12.8" xlink:href="#Gradiente_sem_nome_17"/><linearGradient id="Gradiente_sem_nome_17-19" x1="52.1" y1="10.2" x2="52.1" y2="12.9" xlink:href="#Gradiente_sem_nome_17"/><linearGradient id="Gradiente_sem_nome_17-20" x1="54.9" y1="10.1" x2="54.9" y2="13.5" xlink:href="#Gradiente_sem_nome_17"/><linearGradient id="Gradiente_sem_nome_13" x1="3.5" y1="8.4" x2="3.5" y2=".3" gradientUnits="userSpaceOnUse"><stop offset="0" stop-color="#992b00"/><stop offset=".1" stop-color="#aa3b00"/><stop offset=".4" stop-color="#cc5b02"/><stop offset=".6" stop-color="#e47303"/><stop offset=".8" stop-color="#f28104"/><stop offset="1" stop-color="#f88605"/></linearGradient><linearGradient id="Gradiente_sem_nome_13-2" x1="10.8" x2="10.8" y2="2.3" xlink:href="#Gradiente_sem_nome_13"/><linearGradient id="Gradiente_sem_nome_13-3" x1="16.6" x2="16.6" y2="0" xlink:href="#Gradiente_sem_nome_13"/><linearGradient id="Gradiente_sem_nome_13-4" x1="22.5" x2="22.5" y2="2.2" xlink:href="#Gradiente_sem_nome_13"/><linearGradient id="Gradiente_sem_nome_13-5" x1="32.3" x2="32.3" xlink:href="#Gradiente_sem_nome_13"/><linearGradient id="Gradiente_sem_nome_13-6" x1="39.5" x2="39.5" y2="2.3" xlink:href="#Gradiente_sem_nome_13"/><linearGradient id="Gradiente_sem_nome_13-7" x1="45.5" y1="8.3" x2="45.5" y2="2.2" xlink:href="#Gradiente_sem_nome_13"/><linearGradient id="Gradiente_sem_nome_13-8" x1="51.3" x2="51.3" y2="0" xlink:href="#Gradiente_sem_nome_13"/><linearGradient id="Gradiente_sem_nome_13-9" x1="57.3" x2="57.3" y2="2.2" xlink:href="#Gradiente_sem_nome_13"/></defs><g id="Camada_2-2"><path class="cls-10" d="M4.7,10.3c-.8.3-1.2,1.1-1.2,1.5,0,.6.7,1.2,1.2,1.5,0,0,0,0,0,.1s0,0-.2,0,0,0,0,0c-.9-.5-1.4-1.2-1.4-1.9s.6-1.4,1.4-1.7c0,0,0,0,0,0,.1,0,.3,0,.3.2,0,0,0,0-.1.1Z"/><path class="cls-18" d="M5.5,12.6c-.5,0-.7-.5-.7-.9,0-.8.6-1.1.8-1.1s.2,0,.3.1c.2,0,.5,0,.5.8,0,.5-.4,1.1-.9,1.1ZM5.8,11c-.4,0-.7.6-.7.9s.1.3.2.3c.2,0,.5-.2.5-.3,0-.2.2-.5.2-.7h0c0-.2-.2-.2-.2-.2Z"/><path class="cls-13" d="M9.4,10.6c0,.3,0,.9,0,1.4s0,.4,0,.6c0,0-.2.2-.3.2s0,0,0,0c-.2-.1-1.3-1.3-1.5-1.5,0,.3,0,1.2,0,1.6s0,.3,0,.3-.3-.2-.3-.3c0,0,0-.2,0-.4,0-.3,0-.8,0-1.2s0-.4,0-.5,0-.1.2-.1,0,0,0,0c.1,0,1.4,1.5,1.6,1.7,0,0,0-1,0-1.6s0-.6,0-.6.3.1.3.3c0,0,0,0,0,.2Z"/><path class="cls-4" d="M10.7,10.4c0,.3-.1,1.7-.1,1.7.2,0,.4-.2.7-.2.3,0,.5.1.5.2,0,0-.1.2-.3.2-.2,0-.5,0-.9.2,0,0,0,0,0,0,0,.2,0,.6.1.6,0,0,.5-.1.6-.1s.4,0,.4.1c0,.2-.9.3-1,.4,0,0,0,0-.1,0-.4,0-.5-.8-.5-1.6s0-1.5,0-1.6,0-.2,0-.2,0,0,0,0c.5,0,.9-.2,1.2-.2s.4.1.5.2h0c0,0-1,.2-1.2.3Z"/><path class="cls-29" d="M13.2,11.7c.3.2.6.6.6.6,0,0,0,0,0,0-.1,0-.4-.3-.7-.5-.3.3-.5.7-.7.7s0,0,0-.2,0-.1,0-.2c0-.2.4-.5.4-.6-.1-.2-.4-.4-.5-.6t0,0s0,0,0,0,0,0,0,0c0,0,.3.2.6.4.2-.2.7-.7.8-.8,0,0,0,0,0,0,.1,0,.3.2.3.3,0,0-.6.5-.9.8Z"/><path class="cls-21" d="M16.7,11.3c0,.3,0,.7-.3,1-.3.5-.9.9-1.3.9s-.5-.2-.6-.3c0,0-.2-.3-.2-.7s0-.5.2-.9c.3-.6.8-.8,1.2-.8,0-.1.2-.1.3-.1.1,0,.5,0,.6.7,0,0,0,.1,0,.2ZM15.8,10.6c-.2.2-.5.3-.8.9-.2.3-.2.7-.2.9,0,.5.2.5.3.5.6,0,1.2-.8,1.2-1.7s0-.1,0-.2c0-.4-.2-.4-.4-.4ZM16.8,9.2s0,0,0,0c0,0-.5.5-.6.6,0,0-.1,0-.2,0s0,0,0,0c0,0-.3-.5-.4-.5s-.3.5-.4.5c0,0,0,0,0,0,0,0-.1,0-.1-.2s.3-.6.5-.6.4.5.5.6c0,0,.4-.6.7-.6s0,0,0,0h0Z"/><path class="cls-24" d="M17.7,10.4c0,.3-.1,1.7-.1,1.7.2,0,.4-.2.7-.2.3,0,.5.1.5.2,0,0-.1.2-.3.2-.2,0-.5,0-.9.2,0,0,0,0,0,0,0,.2,0,.6.1.6,0,0,.5-.1.6-.1s.4,0,.4.1c0,.2-.9.3-1,.4,0,0,0,0-.1,0-.4,0-.5-.8-.5-1.6s0-1.5,0-1.6,0-.2,0-.2,0,0,0,0c.5,0,.9-.2,1.2-.2s.4.1.5.2h0c0,0-1,.2-1.2.3Z"/><path class="cls-23" d="M21.8,10.8c0,0-.2,0-.3,0-.6,0-1.9.5-2.1.8h0c0,0,1.4.4,1.6.5,0,0,.3.3.3.4s0,0,0,.1c-.1,0-.9.5-1.1.5s-.4,0-.4-.2c0,0,1.1-.4,1.1-.6s0,0,0,0c0-.2-1.3-.2-1.6-.6,0,0,0-.2,0-.3s0-.2,0-.2c.2-.2,1.3-.8,2.2-.8s.5.1.6.3c0,0-.1,0-.2,0Z"/><path class="cls-14" d="M25.5,12.5s-.2-.1-.4-.4c-.2.3-.5.5-.8.5-.5,0-.9-.4-.9-1s.6-1.3,1-1.3,0,0,.2,0c0,0,0,0,.2,0,.2,0,.6.1.6.9s0,.3,0,.5c0,0,.1.1.2.2.2.3.2.3.2.4,0,.1,0,.2-.2.2ZM24.6,10.6s0,0,0,0c-.3.1-.5.3-.6.7,0,.2-.1.3-.1.5,0,.4.1.6.3.6s.5-.3.6-.6c-.3-.3-.4-.4-.4-.6,0,0,0-.1,0-.1.1,0,.3.2.5.3,0,0,0-.2,0-.3s0,0,0-.1c0-.2-.2-.3-.3-.3Z"/><path class="cls-20" d="M28.1,10.7c0,.8-.6,2.2-1.2,2.3,0,0-.1,0-.2,0-.2,0-.4,0-.5-.2-.1-.2-.2-.6-.2-1s0-.7.2-1c0,0,0,0,0,0,.1,0,.3.1.3.2-.1.3-.2.7-.2,1.1s0,.8.2.8c.5,0,1.1-1.4,1.1-2.3,0,0,.2-.1.3-.1s.1,0,.1.2c0,0,0,.1,0,.2Z"/><path class="cls-7" d="M29.1,10.4c0,.3-.1,1.7-.1,1.7.2,0,.4-.2.7-.2.3,0,.5.1.5.2,0,0-.1.2-.3.2-.2,0-.5,0-.9.2,0,0,0,0,0,0,0,.2,0,.6.1.6,0,0,.5-.1.6-.1s.4,0,.4.1c0,.2-.9.3-1,.4,0,0,0,0-.1,0-.4,0-.5-.8-.5-1.6s0-1.5,0-1.6,0-.2,0-.2,0,0,0,0c.5,0,.9-.2,1.2-.2s.4.1.5.2h0c0,0-1,.2-1.2.3Z"/><path class="cls-22" d="M33.9,12.2c0,.3-.9.8-1.1.8s-.7-.2-.7-.8c0-.9.9-2.1,1.5-2.2,0,0,0,0,0,0,.1,0,.2,0,.2.2s0,0,0,0c-.2,0-1.4,1.2-1.4,2.1s0,.3.2.3c.3,0,.9-.4,1.1-.7,0,0,0,0,0,0,0,0,.1,0,.1.1h0Z"/><path class="cls-1" d="M35.3,12.2c.2.2.6.4.9.6,0,0,0,0,0,0,0,0-.1.1-.2.1-.3,0-.7-.5-1.1-.6,0,0,0,0,0,0,0,.2.1.5.1.6s0,0-.1,0-.2,0-.2-.1c-.1-.2-.3-.8-.3-1.4s0-.9,0-.9c.3,0,.6,0,.8,0,.4,0,.8,0,.9,0,.3.1.6.3.6.6h0c0,.3-.8.8-1.6,1ZM35.5,10.7c-.2,0-.3,0-.5,0,0,.2,0,.5,0,.9s0,.3,0,.4c.3,0,1.6-.7,1.6-1h0c0-.2-.5-.3-1-.3Z"/><path class="cls-2" d="M37.9,11.7c0,.6,0,1.1-.2,1.1s-.2-.2-.2-.3c0-.2-.1-.8-.1-1.3s0-.4.1-.4.3,0,.3.3c0,.1,0,.3,0,.5Z"/><path class="cls-3" d="M40.9,12.8c0,0,0,0-.1,0-.4,0-.3-.2-.5-.9-.5.2-1.3.3-1.3.3-.1.2-.4,1.1-.4,1.1,0,0-.1,0-.2,0s0,0,0,0c0-.5,1.1-3.2,1.2-3.2.1,0,.2-.1.3-.1s.2,0,.2,0c.3.3.9,2.1.9,2.5,0,0,0,0,0,0ZM39.7,10.5c0,0-.4.8-.6,1.5.7-.3,1.1-.3,1.1-.3,0,0-.5-1.2-.5-1.2Z"/><path class="cls-11" d="M44.4,12.5s0,0,0,0c-.2-.4-.3-1-.4-1,0,0-.8.8-.9,1,0,0-.1,0-.2,0-.1,0-.2,0-.3,0,0,0-.2-.8-.3-1.5-.3.5-.7,1.2-.8,1.6,0,0,0,0-.2,0s-.1,0-.1,0c0,0,.9-2,1-2.2,0-.1.2-.2.3-.2s.1,0,.1,0c0,.3.2,1.2.4,1.8.6-.7.9-1.2,1.2-1.2s0,0,0,0c.1,0,.5,1.1.5,1.3,0,0-.2.2-.3.2Z"/><path class="cls-28" d="M49,10.4c-.2.4-1,2-1,2,0,0,0,.2,0,.3,0,0-.2.3-.3.3s0,0,0,0c-.4-.7-1.1-2-1.1-2.3s.1-.1.3-.1.2,0,.2.1c.2.8.6,1.5.8,1.9.2-.4.7-1.7,1-2,0,0,.1,0,.2,0s0,0,0,0,0,0,0,0Z"/><path class="cls-8" d="M49.9,11.7c0,.6,0,1.1-.2,1.1s-.2-.2-.2-.3c0-.2-.1-.8-.1-1.3s0-.4.1-.4.3,0,.3.3c0,.1,0,.3,0,.5Z"/><path class="cls-19" d="M51,12.9s0,0,0,0c-.1,0-.2,0-.2-.2s0,0,0-.1c-.1-.1-.2-.6-.2-1.1s0-.7,0-.9c0,0-.3-.2-.3-.2s.7,0,.9,0c.9,0,1.8,0,2,.3.2.1.4.3.4.6s-1.5,1.5-2.8,1.9ZM53.3,10.7c-.2-.1-1.2-.2-1.8-.2s-.5,0-.5.7,0,.9.1,1.2c.9-.4,2.3-1.2,2.3-1.5h0c0,0,0-.1-.1-.2Z"/><path class="cls-16" d="M56.3,12.8c0,0,0,0-.1,0-.4,0-.3-.2-.5-.9-.5.2-1.3.3-1.3.3-.1.2-.4,1.1-.4,1.1,0,0-.1,0-.2,0s0,0,0,0c0-.5,1.1-3.2,1.2-3.2.1,0,.2-.1.3-.1s.2,0,.2,0c.3.3.9,2.1.9,2.5,0,0,0,0,0,0ZM55.1,10.5c0,0-.4.8-.6,1.5.7-.3,1.1-.3,1.1-.3,0,0-.5-1.2-.5-1.2Z"/><path class="cls-17" d="M7.1,8.3h-1.2v-4.2c0-.5,0-1.2,0-1.4,0,.2-.3.8-.5,1.2l-1.9,4.5L1.6,3.9c-.2-.5-.4-1-.5-1.2,0,.2,0,.9,0,1.4v4.2H0V.3h1.2l1.8,4.2c.2.5.4,1,.5,1.4.1-.3.3-.9.5-1.4L5.8.3h1.3v7.9Z"/><path class="cls-15" d="M13.2,8.3h-1.2v-.6c-.3.4-.9.7-1.5.7-1.4,0-2.1-.9-2.1-2.7v-3.4h1.2v3.4c0,1.2.5,1.6,1.2,1.6s1.2-.6,1.2-1.5v-3.5h1.2v6Z"/><path class="cls-9" d="M19.1,8.3h-1.2v-.6c-.4.4-.9.7-1.6.7-1.3,0-2.3-.9-2.3-3.2s1.1-3,2.3-3,1.2.3,1.5.7V.6l1.2-.6v8.3ZM18,6.6v-2.5c-.3-.4-.8-.8-1.4-.8-.8,0-1.3.6-1.3,1.9s.5,2.2,1.3,2.2,1-.4,1.3-.8Z"/><path class="cls-25" d="M24.9,8.3h-1.1v-.6c-.4.4-1,.7-1.6.7-1,0-2.1-.5-2.1-2s1-1.9,2.4-1.9,1,0,1.3.2v-.4c0-.6-.4-1-1.1-1s-1.1.1-1.6.4l-.5-.9c.6-.4,1.2-.5,2-.5,1.3,0,2.2.6,2.2,2v4.1ZM23.7,6.6v-.9c-.3-.2-.7-.3-1.4-.3s-1.2.3-1.2.9.4,1,1.1,1,1.2-.4,1.4-.8Z"/><path class="cls-26" d="M35.8,8.3h-1.2v-4.2c0-.5,0-1.2,0-1.4,0,.2-.3.8-.5,1.2l-1.9,4.5-1.9-4.5c-.2-.5-.4-1-.5-1.2,0,.2,0,.9,0,1.4v4.2h-1.1V.3h1.2l1.8,4.2c.2.5.4,1,.5,1.4.1-.3.3-.9.5-1.4l1.7-4.2h1.3v7.9Z"/><path class="cls-27" d="M41.9,8.3h-1.2v-.6c-.3.4-.9.7-1.5.7-1.4,0-2.1-.9-2.1-2.7v-3.4h1.2v3.4c0,1.2.5,1.6,1.2,1.6s1.2-.6,1.2-1.5v-3.5h1.2v6Z"/><path class="cls-5" d="M47.9,8.3h-1.2v-3.4c0-1.2-.5-1.6-1.2-1.6s-1.2.6-1.2,1.5v3.5h-1.2V2.3h1.2v.6c.3-.4.9-.7,1.5-.7,1.4,0,2.1.9,2.1,2.7v3.4Z"/><path class="cls-6" d="M53.8,8.3h-1.2v-.6c-.4.4-.9.7-1.6.7-1.3,0-2.3-.9-2.3-3.2s1.1-3,2.3-3,1.2.3,1.5.7V.6l1.2-.6v8.3ZM52.6,6.6v-2.5c-.3-.4-.8-.8-1.4-.8-.8,0-1.3.6-1.3,1.9s.5,2.2,1.3,2.2,1-.4,1.3-.8Z"/><path class="cls-12" d="M60,5.3c0,2-1.2,3.1-2.7,3.1s-2.6-1.2-2.6-3.1,1.2-3.1,2.7-3.1,2.7,1.2,2.7,3.1ZM58.8,5.3c0-1.2-.6-2-1.5-2s-1.4.8-1.4,2,.6,2,1.5,2,1.5-.9,1.5-2Z"/></g></svg>