<?xml version="1.0" encoding="UTF-8"?><svg id="Camada_2" xmlns="http://www.w3.org/2000/svg" width="120" height="27.1" xmlns:xlink="http://www.w3.org/1999/xlink" viewBox="0 0 120 27.1"><defs><style>.cls-1{fill:url(#Gradiente_sem_nome_17-13);}.cls-2{fill:url(#Gradiente_sem_nome_17-14);}.cls-3{fill:url(#Gradiente_sem_nome_17-15);}.cls-4{fill:url(#Gradiente_sem_nome_17-4);}.cls-5{fill:url(#Gradiente_sem_nome_13-7);}.cls-6{fill:url(#Gradiente_sem_nome_13-8);}.cls-7{fill:url(#Gradiente_sem_nome_17-11);}.cls-8{fill:url(#Gradiente_sem_nome_17-18);}.cls-9{fill:url(#Gradiente_sem_nome_13-3);}.cls-10{fill:url(#Gradiente_sem_nome_17);}.cls-11{fill:url(#Gradiente_sem_nome_17-16);}.cls-12{fill:url(#Gradiente_sem_nome_13-9);}.cls-13{fill:url(#Gradiente_sem_nome_17-3);}.cls-14{fill:url(#Gradiente_sem_nome_17-9);}.cls-15{fill:url(#Gradiente_sem_nome_13-2);}.cls-16{fill:url(#Gradiente_sem_nome_17-20);}.cls-17{fill:url(#Gradiente_sem_nome_13);}.cls-18{fill:url(#Gradiente_sem_nome_17-2);}.cls-19{fill:url(#Gradiente_sem_nome_17-19);}.cls-20{fill:url(#Gradiente_sem_nome_17-10);}.cls-21{fill:url(#Gradiente_sem_nome_17-6);}.cls-22{fill:url(#Gradiente_sem_nome_17-12);}.cls-23{fill:url(#Gradiente_sem_nome_17-8);}.cls-24{fill:url(#Gradiente_sem_nome_17-7);}.cls-25{fill:url(#Gradiente_sem_nome_13-4);}.cls-26{fill:url(#Gradiente_sem_nome_13-5);}.cls-27{fill:url(#Gradiente_sem_nome_13-6);}.cls-28{fill:url(#Gradiente_sem_nome_17-17);}.cls-29{fill:url(#Gradiente_sem_nome_17-5);}</style><linearGradient id="Gradiente_sem_nome_17" x1="7.9" y1="20" x2="7.9" y2="27.1" gradientUnits="userSpaceOnUse"><stop offset="0" stop-color="#00493d"/><stop offset=".1" stop-color="#025f48"/><stop offset=".3" stop-color="#057956"/><stop offset=".6" stop-color="#078c60"/><stop offset=".8" stop-color="#089767"/><stop offset="1" stop-color="#099b69"/></linearGradient><linearGradient id="Gradiente_sem_nome_17-2" x1="11.1" y1="21.3" x2="11.1" y2="25.3" xlink:href="#Gradiente_sem_nome_17"/><linearGradient id="Gradiente_sem_nome_17-3" x1="16.6" y1="20.2" x2="16.6" y2="26.2" xlink:href="#Gradiente_sem_nome_17"/><linearGradient id="Gradiente_sem_nome_17-4" x1="22.1" y1="19.8" x2="22.1" y2="27" xlink:href="#Gradiente_sem_nome_17"/><linearGradient id="Gradiente_sem_nome_17-5" x1="26.3" y1="21.3" x2="26.3" y2="25.2" xlink:href="#Gradiente_sem_nome_17"/><linearGradient id="Gradiente_sem_nome_17-6" x1="31.2" y1="18.1" x2="31.2" y2="26.3" xlink:href="#Gradiente_sem_nome_17"/><linearGradient id="Gradiente_sem_nome_17-7" x1="36.2" y1="19.8" x2="36.2" y2="27" xlink:href="#Gradiente_sem_nome_17"/><linearGradient id="Gradiente_sem_nome_17-8" x1="41" y1="20.8" x2="41" y2="26.1" xlink:href="#Gradiente_sem_nome_17"/><linearGradient id="Gradiente_sem_nome_17-9" x1="49.1" y1="20.6" x2="49.1" y2="25.2" xlink:href="#Gradiente_sem_nome_17"/><linearGradient id="Gradiente_sem_nome_17-10" x1="54.1" y1="20.7" x2="54.1" y2="25.9" xlink:href="#Gradiente_sem_nome_17"/><linearGradient id="Gradiente_sem_nome_17-11" x1="59.1" y1="19.8" x2="59.1" y2="27" xlink:href="#Gradiente_sem_nome_17"/><linearGradient id="Gradiente_sem_nome_17-12" x1="66" y1="20.2" x2="66" y2="26.2" xlink:href="#Gradiente_sem_nome_17"/><linearGradient id="Gradiente_sem_nome_17-13" x1="71.4" y1="21" x2="71.4" y2="26" xlink:href="#Gradiente_sem_nome_17"/><linearGradient id="Gradiente_sem_nome_17-14" x1="75.3" y1="21.7" x2="75.3" y2="25.6" xlink:href="#Gradiente_sem_nome_17"/><linearGradient id="Gradiente_sem_nome_17-15" x1="79.2" y1="20.3" x2="79.2" y2="27" xlink:href="#Gradiente_sem_nome_17"/><linearGradient id="Gradiente_sem_nome_17-16" x1="86" y1="20.5" x2="86" y2="25.4" xlink:href="#Gradiente_sem_nome_17"/><linearGradient id="Gradiente_sem_nome_17-17" x1="95.5" y1="20.7" x2="95.5" y2="26" xlink:href="#Gradiente_sem_nome_17"/><linearGradient id="Gradiente_sem_nome_17-18" x1="99.3" y1="21.7" x2="99.3" y2="25.6" xlink:href="#Gradiente_sem_nome_17"/><linearGradient id="Gradiente_sem_nome_17-19" x1="104.1" y1="20.4" x2="104.1" y2="25.9" xlink:href="#Gradiente_sem_nome_17"/><linearGradient id="Gradiente_sem_nome_17-20" x1="109.9" y1="20.3" x2="109.9" y2="27" xlink:href="#Gradiente_sem_nome_17"/><linearGradient id="Gradiente_sem_nome_13" x1="7.1" y1="16.8" x2="7.1" y2=".7" gradientUnits="userSpaceOnUse"><stop offset="0" stop-color="#992b00"/><stop offset=".1" stop-color="#aa3b00"/><stop offset=".4" stop-color="#cc5b02"/><stop offset=".6" stop-color="#e47303"/><stop offset=".8" stop-color="#f28104"/><stop offset="1" stop-color="#f88605"/></linearGradient><linearGradient id="Gradiente_sem_nome_13-2" x1="21.6" x2="21.6" y2="4.6" xlink:href="#Gradiente_sem_nome_13"/><linearGradient id="Gradiente_sem_nome_13-3" x1="33.3" x2="33.3" y2="0" xlink:href="#Gradiente_sem_nome_13"/><linearGradient id="Gradiente_sem_nome_13-4" x1="44.9" x2="44.9" y2="4.4" xlink:href="#Gradiente_sem_nome_13"/><linearGradient id="Gradiente_sem_nome_13-5" x1="64.5" x2="64.5" xlink:href="#Gradiente_sem_nome_13"/><linearGradient id="Gradiente_sem_nome_13-6" x1="79.1" x2="79.1" y2="4.6" xlink:href="#Gradiente_sem_nome_13"/><linearGradient id="Gradiente_sem_nome_13-7" x1="91" y1="16.5" x2="91" y2="4.4" xlink:href="#Gradiente_sem_nome_13"/><linearGradient id="Gradiente_sem_nome_13-8" x1="102.6" x2="102.6" y2="0" xlink:href="#Gradiente_sem_nome_13"/><linearGradient id="Gradiente_sem_nome_13-9" x1="114.7" x2="114.7" y2="4.4" xlink:href="#Gradiente_sem_nome_13"/></defs><g id="Camada_2-2"><path class="cls-10" d="M9.4,20.6c-1.7.7-2.4,2.3-2.4,3.1,0,1.3,1.5,2.3,2.5,3,0,0,.1.2.1.3s0,.2-.3.2-.1,0-.2,0c-1.7-.9-2.9-2.4-2.9-3.7s1.2-2.8,2.7-3.3c0,0,0,0,0,0,.2,0,.6.2.6.3,0,0,0,.2-.2.2Z"/><path class="cls-18" d="M11,25.3c-1,0-1.5-1-1.5-1.8,0-1.6,1.1-2.2,1.7-2.2s.4,0,.5.2c.3,0,.9.1,1,1.6,0,1-.9,2.2-1.7,2.2ZM11.6,22.1c-.8,0-1.5,1.1-1.5,1.8s.2.6.5.6c.4,0,.9-.4,1.1-.7.2-.3.3-1,.3-1.3h0c0-.4-.3-.4-.5-.4Z"/><path class="cls-13" d="M18.9,21.2c0,.6,0,1.7,0,2.9s0,.8,0,1.2c0,.2-.3.3-.6.3s-.1,0-.2,0c-.4-.3-2.5-2.6-3.1-3.1,0,.7.1,2.4.1,3.2s0,.5-.1.5-.5-.3-.6-.6c0,0,0-.4,0-.9,0-.7,0-1.6,0-2.4s0-.8,0-1,.2-.2.3-.2.1,0,.2,0c.2.2,2.9,3,3.3,3.4,0,0-.1-1.9-.1-3.2s0-1.1.2-1.1.7.3.7.7c0,0,0,.2,0,.3Z"/><path class="cls-4" d="M21.3,20.8c0,.5-.3,3.3-.3,3.3.4,0,.8-.4,1.3-.4.5,0,1,.2,1,.4,0,.1-.3.3-.5.3-.4,0-1,.2-1.8.5,0,0,0,0,0,.2,0,.4.2,1.1.3,1.1.1,0,1-.3,1.3-.3s.9.1.9.3c0,.3-1.7.7-1.9.7,0,0-.2,0-.3,0-.8,0-1-1.7-1-3.1s.2-3.1.2-3.1-.1-.3-.1-.5,0-.1,0-.1c1-.2,1.9-.4,2.3-.4s.9.2.9.4h0c0,.2-2,.4-2.5.6Z"/><path class="cls-29" d="M26.4,23.5c.5.5,1.2,1.2,1.2,1.2,0,0,0,.2-.2.2-.2,0-.8-.6-1.3-1-.6.5-1.1,1.3-1.4,1.3s-.2-.2-.2-.4,0-.2,0-.3c0-.3.8-1.1.9-1.2-.3-.3-.9-.8-1.1-1.2t0,0c0,0,0,0,.2,0s.1,0,.2,0c0,0,.7.5,1.2.9.3-.4,1.4-1.4,1.6-1.6,0,0,0,0,.1,0,.2,0,.6.3.6.5,0,.1-1.1,1-1.7,1.7Z"/><path class="cls-21" d="M33.3,22.5c0,.6-.2,1.4-.5,2-.5,1.1-1.9,1.8-2.6,1.8s-1-.4-1.2-.6c0-.1-.3-.6-.3-1.3s.1-1.1.5-1.7c.6-1.2,1.6-1.7,2.4-1.7,0-.3.5-.3.5-.3.3,0,1,.2,1.1,1.4,0,.1,0,.3,0,.4ZM31.6,21.2c-.4.4-1.1.6-1.7,1.8-.4.7-.5,1.3-.5,1.8,0,.9.4,1.1.7,1.1,1.1,0,2.4-1.6,2.4-3.4s0-.2,0-.3c0-.8-.5-.8-.8-.9ZM33.7,18.4c0,0,0,.1,0,.2,0,.2-1.1,1-1.2,1.1-.1,0-.3.2-.4.2s0,0-.1,0c-.1,0-.6-1-.7-1s-.6,1-.8,1.1c0,0,0,0,0,0,0,0-.3-.2-.3-.4s.7-1.2,1.1-1.2.8,1.1,1,1.1c.1,0,.8-1.2,1.3-1.2s.2,0,.2.2h0Z"/><path class="cls-24" d="M35.5,20.8c0,.5-.3,3.3-.3,3.3.4,0,.8-.4,1.3-.4.5,0,1,.2,1,.4,0,.1-.3.3-.5.3-.4,0-1,.2-1.8.5,0,0,0,0,0,.2,0,.4.2,1.1.3,1.1.1,0,1-.3,1.3-.3s.9.1.9.3c0,.3-1.7.7-1.9.7,0,0-.2,0-.3,0-.8,0-1-1.7-1-3.1s.2-3.1.2-3.1-.1-.3-.1-.5,0-.1,0-.1c1-.2,1.9-.4,2.3-.4s.9.2.9.4h0c0,.2-2,.4-2.5.6Z"/><path class="cls-23" d="M43.5,21.6c-.2,0-.3-.1-.7-.1-1.3,0-3.9,1.1-4.2,1.7h0c0,.2,2.9.8,3.2,1,.1,0,.5.5.5.8s0,.2,0,.2c-.2.2-1.8,1-2.2,1s-.8-.2-.8-.3c0-.2,2.2-.7,2.2-1.1s0,0,0,0c0-.4-2.6-.5-3.3-1.2,0,0-.2-.4-.2-.6s0-.4.1-.5c.4-.4,2.7-1.6,4.4-1.6s1,.2,1.3.6c0,0-.2.2-.4.2Z"/><path class="cls-14" d="M51,25s-.3-.3-.8-.8c-.4.7-1.1,1-1.6,1-1,0-1.7-.8-1.7-2.1s1.2-2.5,2.1-2.5.2.1.3.2c0,0,.2-.1.3-.1.4,0,1.1.3,1.1,1.7s0,.6-.1,1c.1.1.2.3.3.4.3.5.5.6.5.8,0,.3-.2.5-.3.5ZM49.3,21.1s0,0-.1,0c-.7.2-.9.6-1.3,1.4-.2.3-.2.7-.2,1,0,.7.2,1.2.6,1.2s.9-.5,1.2-1.2c-.5-.6-.8-.8-.8-1.2,0-.2,0-.2.1-.2.2,0,.7.4,1,.6,0-.2,0-.4,0-.6s0-.2,0-.3c0-.5-.3-.7-.6-.7Z"/><path class="cls-20" d="M56.3,21.3c0,1.6-1.3,4.4-2.4,4.6,0,0-.2,0-.4,0-.4,0-.9,0-1.1-.4-.3-.4-.4-1.2-.4-2s.1-1.5.4-2c0,0,0,0,.1,0,.2,0,.6.3.6.4-.2.7-.3,1.5-.3,2.1s.2,1.6.4,1.6c1.1,0,2.2-2.8,2.2-4.6,0-.2.3-.3.5-.3s.3.2.3.4c0,0,0,.2,0,.3Z"/><path class="cls-7" d="M58.3,20.8c0,.5-.3,3.3-.3,3.3.4,0,.8-.4,1.3-.4.5,0,1,.2,1,.4,0,.1-.3.3-.5.3-.4,0-1,.2-1.8.5,0,0,0,0,0,.2,0,.4.2,1.1.3,1.1.1,0,1-.3,1.3-.3s.9.1.9.3c0,.3-1.7.7-1.9.7,0,0-.2,0-.3,0-.8,0-1-1.7-1-3.1s.2-3.1.2-3.1-.1-.3-.1-.5,0-.1,0-.1c1-.2,1.9-.4,2.3-.4s.9.2.9.4h0c0,.2-2,.4-2.5.6Z"/><path class="cls-22" d="M67.9,24.5c0,.6-1.8,1.7-2.3,1.7s-1.4-.4-1.4-1.5c0-1.8,1.8-4.2,3.1-4.4,0,0,0,0,0,0,.2,0,.5.2.5.3s0,0,0,0c-.5.2-2.8,2.4-2.8,4.2s0,.7.3.7c.6,0,1.9-.8,2.2-1.3,0,0,0,0,.2,0,.1,0,.2,0,.3.3h0Z"/><path class="cls-1" d="M70.7,24.4c.4.3,1.2.7,1.9,1.2,0,0,0,0,0,0,0,.1-.2.2-.5.2-.5,0-1.4-.9-2.2-1.3,0,0,0,0,0,0,0,.3.3,1,.3,1.2s-.2.2-.3.2-.3,0-.4-.2c-.3-.4-.5-1.6-.5-2.8s0-1.9.2-1.9c.6,0,1.1-.1,1.6-.1.9,0,1.6,0,1.9.2.6.2,1.3.7,1.3,1.1h0c0,.6-1.6,1.6-3.2,2.1ZM70.9,21.5c-.3,0-.6,0-.9,0-.1.4-.2,1.1-.2,1.7s0,.6,0,.7c.6-.1,3.1-1.4,3.1-2h0c0-.4-1.1-.5-2.1-.5Z"/><path class="cls-2" d="M75.8,23.3c0,1.3,0,2.2-.3,2.2s-.3-.3-.4-.5c-.1-.3-.2-1.7-.2-2.5s0-.9.3-.9.5.1.6.6c0,.3,0,.7,0,1.1Z"/><path class="cls-3" d="M81.8,25.6c0,.1-.1.2-.3.2-.7,0-.6-.5-1-1.7-1,.3-2.7.5-2.7.5-.2.5-.8,2.2-.9,2.3,0,0-.3.2-.4.2s-.1,0-.1,0c0-1,2.2-6.3,2.4-6.5.2-.1.5-.2.7-.2s.3,0,.4.1c.6.7,1.7,4.2,1.9,5,0,0,0,0,0,.1ZM79.4,21c-.1,0-.8,1.7-1.3,3,1.4-.6,2.3-.6,2.3-.6,0,0-.9-2.4-1-2.4Z"/><path class="cls-11" d="M88.9,25.1s0,0,0,0c-.3-.9-.7-2-.7-2-.2,0-1.6,1.7-1.9,2.1,0,.1-.2.2-.4.2-.2,0-.4,0-.5-.2-.2-.2-.4-1.6-.7-3-.7,1-1.4,2.5-1.7,3.1,0,0-.2.1-.3.1s-.2,0-.2-.1c0-.1,1.8-4,2-4.4.2-.2.4-.4.6-.4s.2,0,.2.2c.2.6.3,2.3.7,3.6,1.1-1.4,1.9-2.4,2.4-2.4s.1,0,.1,0c.2.2,1,2.2,1,2.7,0,.2-.5.4-.7.4Z"/><path class="cls-28" d="M98.1,20.9c-.4.8-2,3.9-2,4,0,0,0,.4-.2.5,0,.1-.5.5-.7.5s-.1,0-.1,0c-.7-1.4-2.2-4.1-2.2-4.7s.2-.3.5-.3.3,0,.4.2c.5,1.5,1.3,3.1,1.7,3.8.4-.9,1.4-3.3,2.1-4,0,0,.3-.1.4-.1s.1,0,.1,0,0,0,0,0Z"/><path class="cls-8" d="M99.8,23.3c0,1.3,0,2.2-.3,2.2s-.3-.3-.4-.5c-.1-.3-.2-1.7-.2-2.5s0-.9.3-.9.5.1.6.6c0,.3,0,.7,0,1.1Z"/><path class="cls-19" d="M102,25.9c0,0-.1,0-.2,0-.2,0-.3-.2-.3-.5s0-.2,0-.3c-.2-.2-.3-1.3-.3-2.3s0-1.4.1-1.9c-.2-.1-.5-.3-.5-.5s1.3-.1,1.8-.1c1.8,0,3.5.2,4,.5.3.2.9.5.9,1.2s-3,3.1-5.5,3.8ZM106.5,21.4c-.5-.3-2.4-.5-3.6-.5s-1-.2-1,1.5,0,1.9.3,2.4c1.8-.7,4.5-2.4,4.5-3.1h0c0-.2-.1-.3-.2-.3Z"/><path class="cls-16" d="M112.5,25.6c0,.1-.1.2-.3.2-.7,0-.6-.5-1-1.7-1,.3-2.7.5-2.7.5-.2.5-.8,2.2-.9,2.3,0,0-.3.2-.4.2s-.1,0-.1,0c0-1,2.2-6.3,2.4-6.5.2-.1.5-.2.7-.2s.3,0,.4.1c.6.7,1.7,4.2,1.9,5,0,0,0,0,0,.1ZM110.1,21c-.1,0-.8,1.7-1.3,3,1.4-.6,2.3-.6,2.3-.6,0,0-.9-2.4-1-2.4Z"/><path class="cls-17" d="M14.2,16.5h-2.3v-8.4c0-1,0-2.3,0-2.8-.2.5-.6,1.6-1,2.5l-3.9,8.9L3.2,7.8c-.4-.9-.8-2-1-2.5,0,.5,0,1.8,0,2.8v8.4H0V.7h2.4l3.6,8.5c.4.9.9,2.1,1.1,2.7.2-.7.7-1.8,1.1-2.7L11.7.7h2.5v15.9Z"/><path class="cls-15" d="M26.4,16.5h-2.3v-1.1c-.6.9-1.8,1.4-3,1.4-2.8,0-4.2-1.8-4.2-5.3v-6.8h2.3v6.7c0,2.4.9,3.3,2.5,3.3s2.4-1.1,2.4-3v-7h2.3v11.9Z"/><path class="cls-9" d="M38.3,16.5h-2.3v-1.1c-.9.8-1.9,1.4-3.1,1.4-2.6,0-4.6-1.9-4.6-6.4s2.2-6,4.7-6,2.3.6,3,1.4V1.2l2.3-1.2v16.5ZM36,13.1v-5c-.5-.7-1.6-1.6-2.8-1.6-1.7,0-2.6,1.3-2.6,3.8s1,4.3,2.7,4.3,2.1-.7,2.7-1.5Z"/><path class="cls-25" d="M49.8,16.5h-2.3v-1.2c-.8.8-2,1.4-3.3,1.4-1.9,0-4.1-1.1-4.1-4s2-3.9,4.7-3.9,2,.2,2.7.5v-.9c0-1.3-.8-2-2.2-2s-2.2.2-3.1.7l-.9-1.8c1.1-.7,2.4-1.1,4.1-1.1,2.7,0,4.5,1.3,4.5,4v8.2ZM47.5,13.2v-1.7c-.6-.3-1.5-.5-2.7-.5s-2.5.7-2.5,1.8.7,2,2.3,2,2.3-.8,2.9-1.5Z"/><path class="cls-26" d="M71.6,16.5h-2.3v-8.4c0-1,0-2.3,0-2.8-.2.5-.6,1.6-1,2.5l-3.9,8.9-3.8-8.9c-.4-.9-.8-2-1-2.5,0,.5,0,1.8,0,2.8v8.4h-2.2V.7h2.4l3.6,8.5c.4.9.9,2.1,1.1,2.7.2-.7.7-1.8,1.1-2.7l3.5-8.5h2.5v15.9Z"/><path class="cls-27" d="M83.8,16.5h-2.3v-1.1c-.6.9-1.8,1.4-3,1.4-2.8,0-4.2-1.8-4.2-5.3v-6.8h2.3v6.7c0,2.4.9,3.3,2.5,3.3s2.4-1.1,2.4-3v-7h2.3v11.9Z"/><path class="cls-5" d="M95.8,16.5h-2.3v-6.7c0-2.4-.9-3.3-2.4-3.3s-2.5,1.1-2.5,3v7h-2.3V4.6h2.3v1.1c.6-.9,1.8-1.4,3-1.4,2.8,0,4.2,1.8,4.2,5.3v6.8Z"/><path class="cls-6" d="M107.6,16.5h-2.3v-1.1c-.9.8-1.9,1.4-3.1,1.4-2.6,0-4.6-1.9-4.6-6.4s2.2-6,4.7-6,2.3.6,3,1.4V1.2l2.3-1.2v16.5ZM105.3,13.1v-5c-.5-.7-1.6-1.6-2.8-1.6-1.7,0-2.6,1.3-2.6,3.8s1,4.3,2.7,4.3,2.1-.7,2.7-1.5Z"/><path class="cls-12" d="M120,10.5c0,3.9-2.3,6.3-5.4,6.3s-5.2-2.5-5.2-6.2,2.3-6.2,5.3-6.2,5.3,2.4,5.3,6.1ZM117.6,10.6c0-2.4-1.2-4-3-4s-2.9,1.6-2.9,3.9,1.2,4,3,4,2.9-1.8,2.9-4Z"/></g></svg>