<svg xmlns="http://www.w3.org/2000/svg" xmlns:xlink="http://www.w3.org/1999/xlink" width="400" zoomAndPan="magnify" viewBox="0 0 300 299.999988" height="400" preserveAspectRatio="xMidYMid meet" version="1.0"><path fill="#80b2e8" d="M 210.414062 48.226562 C 211.820312 48.882812 213.207031 49.582031 214.570312 50.324219 C 215.933594 51.066406 217.273438 51.847656 218.59375 52.671875 C 219.910156 53.492188 221.207031 54.359375 222.476562 55.261719 C 223.75 56.164062 224.992188 57.109375 226.214844 58.089844 C 227.433594 59.074219 228.628906 60.09375 229.792969 61.152344 C 230.960938 62.207031 232.097656 63.304688 233.207031 64.433594 C 234.316406 65.566406 235.394531 66.730469 236.445312 67.933594 C 237.496094 69.136719 238.515625 70.371094 239.503906 71.640625 C 240.492188 72.910156 241.449219 74.214844 242.371094 75.546875 C 243.296875 76.882812 244.1875 78.246094 245.042969 79.640625 C 245.902344 81.039062 246.722656 82.460938 247.511719 83.917969 C 248.300781 85.371094 249.054688 86.851562 249.773438 88.359375 C 250.492188 89.867188 251.175781 91.402344 251.820312 92.960938 C 252.464844 94.519531 253.074219 96.101562 253.648438 97.707031 C 254.21875 99.316406 254.753906 100.941406 255.253906 102.59375 C 255.75 104.242188 256.207031 105.910156 256.628906 107.601562 C 257.050781 109.289062 257.433594 110.996094 257.777344 112.722656 C 258.121094 114.445312 258.425781 116.183594 258.6875 117.941406 C 258.953125 119.695312 259.179688 121.464844 259.367188 123.246094 C 259.554688 125.027344 259.699219 126.824219 259.808594 128.628906 C 259.914062 130.433594 259.984375 132.246094 260.011719 134.070312 C 260.039062 135.890625 260.027344 137.722656 259.972656 139.558594 C 259.921875 141.394531 259.832031 143.238281 259.699219 145.085938 C 259.566406 146.929688 259.398438 148.777344 259.1875 150.628906 C 258.976562 152.480469 258.726562 154.332031 258.4375 156.183594 C 258.148438 158.035156 257.820312 159.886719 257.453125 161.734375 C 257.085938 163.582031 256.679688 165.425781 256.234375 167.265625 C 255.792969 169.105469 255.308594 170.9375 254.789062 172.765625 C 254.269531 174.589844 253.710938 176.410156 253.117188 178.21875 C 252.523438 180.027344 251.890625 181.828125 251.222656 183.613281 C 250.554688 185.402344 249.851562 187.175781 249.109375 188.9375 C 248.371094 190.699219 247.59375 192.449219 246.785156 194.179688 C 245.976562 195.910156 245.132812 197.625 244.253906 199.324219 C 243.375 201.019531 242.464844 202.699219 241.523438 204.359375 C 240.578125 206.015625 239.601562 207.65625 238.59375 209.269531 C 237.589844 210.886719 236.550781 212.480469 235.480469 214.050781 C 234.414062 215.621094 233.316406 217.167969 232.1875 218.6875 C 231.0625 220.207031 229.90625 221.699219 228.722656 223.167969 C 227.542969 224.632812 226.332031 226.070312 225.097656 227.480469 C 223.859375 228.890625 222.601562 230.269531 221.3125 231.617188 C 220.027344 232.964844 218.71875 234.28125 217.386719 235.566406 C 216.054688 236.851562 214.699219 238.101562 213.320312 239.320312 C 211.945312 240.539062 210.546875 241.71875 209.132812 242.867188 C 207.714844 244.015625 206.277344 245.128906 204.824219 246.203125 C 203.371094 247.277344 201.902344 248.3125 200.414062 249.3125 C 198.925781 250.3125 197.421875 251.273438 195.90625 252.195312 C 194.386719 253.117188 192.859375 254 191.316406 254.84375 C 189.769531 255.683594 188.214844 256.484375 186.648438 257.246094 C 185.082031 258.003906 183.507812 258.722656 181.921875 259.398438 C 180.339844 260.074219 178.746094 260.710938 177.144531 261.300781 C 175.546875 261.890625 173.941406 262.4375 172.328125 262.941406 C 170.71875 263.445312 169.105469 263.90625 167.488281 264.320312 C 165.867188 264.738281 164.25 265.109375 162.625 265.4375 C 161.003906 265.761719 159.382812 266.046875 157.761719 266.28125 C 156.140625 266.519531 154.523438 266.710938 152.90625 266.855469 C 151.292969 267.003906 149.679688 267.105469 148.070312 267.160156 C 146.460938 267.21875 144.859375 267.226562 143.265625 267.191406 C 141.667969 267.15625 140.082031 267.078125 138.503906 266.949219 C 136.921875 266.824219 135.351562 266.652344 133.792969 266.4375 C 132.234375 266.21875 130.6875 265.960938 129.148438 265.652344 C 127.613281 265.347656 126.089844 264.996094 124.582031 264.601562 C 123.074219 264.203125 121.582031 263.765625 120.101562 263.28125 C 118.625 262.796875 117.164062 262.269531 115.722656 261.699219 C 114.277344 261.125 112.855469 260.511719 111.449219 259.855469 C 110.042969 259.199219 108.660156 258.5 107.296875 257.757812 C 105.933594 257.015625 104.59375 256.234375 103.273438 255.410156 C 101.953125 254.589844 100.660156 253.722656 99.386719 252.820312 C 98.117188 251.917969 96.871094 250.972656 95.652344 249.992188 C 94.433594 249.007812 93.238281 247.988281 92.074219 246.929688 C 90.90625 245.875 89.769531 244.777344 88.660156 243.648438 C 87.550781 242.515625 86.46875 241.347656 85.417969 240.148438 C 84.371094 238.945312 83.351562 237.710938 82.363281 236.441406 C 81.375 235.171875 80.417969 233.867188 79.492188 232.535156 C 78.570312 231.199219 77.679688 229.835938 76.820312 228.441406 C 75.964844 227.042969 75.140625 225.621094 74.351562 224.164062 C 73.5625 222.710938 72.808594 221.230469 72.09375 219.722656 C 71.375 218.214844 70.691406 216.679688 70.046875 215.121094 C 69.398438 213.5625 68.789062 211.980469 68.21875 210.375 C 67.644531 208.765625 67.109375 207.140625 66.613281 205.488281 C 66.117188 203.839844 65.65625 202.171875 65.234375 200.480469 C 64.816406 198.792969 64.433594 197.085938 64.089844 195.359375 C 63.746094 193.636719 63.441406 191.898438 63.175781 190.140625 C 62.910156 188.386719 62.683594 186.617188 62.5 184.835938 C 62.3125 183.054688 62.164062 181.257812 62.058594 179.453125 C 61.949219 177.648438 61.882812 175.835938 61.855469 174.011719 C 61.828125 172.191406 61.839844 170.359375 61.890625 168.523438 C 61.945312 166.6875 62.035156 164.84375 62.167969 162.996094 C 62.296875 161.152344 62.46875 159.304688 62.679688 157.453125 C 62.890625 155.601562 63.140625 153.75 63.429688 151.898438 C 63.71875 150.046875 64.046875 148.195312 64.414062 146.347656 C 64.78125 144.5 65.1875 142.65625 65.628906 140.816406 C 66.074219 138.976562 66.554688 137.144531 67.078125 135.316406 C 67.597656 133.492188 68.152344 131.671875 68.75 129.863281 C 69.34375 128.054688 69.976562 126.253906 70.644531 124.46875 C 71.3125 122.679688 72.015625 120.90625 72.753906 119.144531 C 73.496094 117.382812 74.269531 115.632812 75.082031 113.902344 C 75.890625 112.171875 76.734375 110.457031 77.613281 108.757812 C 78.488281 107.0625 79.398438 105.382812 80.34375 103.722656 C 81.289062 102.066406 82.261719 100.425781 83.269531 98.8125 C 84.277344 97.195312 85.316406 95.601562 86.382812 94.03125 C 87.453125 92.460938 88.550781 90.914062 89.675781 89.394531 C 90.804688 87.875 91.957031 86.382812 93.140625 84.914062 C 94.324219 83.449219 95.535156 82.011719 96.769531 80.601562 C 98.003906 79.191406 99.265625 77.8125 100.550781 76.464844 C 101.835938 75.117188 103.148438 73.800781 104.480469 72.515625 C 105.8125 71.230469 107.167969 69.980469 108.542969 68.761719 C 109.921875 67.542969 111.316406 66.363281 112.734375 65.214844 C 114.152344 64.066406 115.585938 62.953125 117.039062 61.878906 C 118.496094 60.804688 119.964844 59.769531 121.453125 58.769531 C 122.941406 57.769531 124.441406 56.808594 125.960938 55.886719 C 127.476562 54.964844 129.007812 54.082031 130.550781 53.238281 C 132.09375 52.398438 133.648438 51.597656 135.214844 50.835938 C 136.78125 50.078125 138.359375 49.359375 139.941406 48.683594 C 141.527344 48.007812 143.121094 47.371094 144.71875 46.78125 C 146.320312 46.191406 147.925781 45.644531 149.535156 45.140625 C 151.148438 44.636719 152.761719 44.175781 154.378906 43.761719 C 155.996094 43.34375 157.617188 42.972656 159.238281 42.644531 C 160.859375 42.320312 162.480469 42.035156 164.101562 41.800781 C 165.722656 41.5625 167.34375 41.371094 168.957031 41.222656 C 170.574219 41.078125 172.1875 40.976562 173.792969 40.921875 C 175.402344 40.863281 177.003906 40.855469 178.601562 40.890625 C 180.195312 40.925781 181.785156 41.003906 183.363281 41.132812 C 184.941406 41.257812 186.511719 41.429688 188.074219 41.644531 C 189.632812 41.863281 191.179688 42.121094 192.714844 42.429688 C 194.253906 42.734375 195.773438 43.085938 197.28125 43.480469 C 198.792969 43.878906 200.285156 44.316406 201.761719 44.800781 C 203.238281 45.285156 204.699219 45.8125 206.144531 46.382812 C 207.585938 46.957031 209.011719 47.570312 210.414062 48.226562 Z M 210.414062 48.226562 " fill-opacity="1" fill-rule="nonzero"/><path fill="#d2edff" d="M 193.160156 40.160156 C 194.566406 40.816406 195.949219 41.515625 197.3125 42.257812 C 198.675781 43 200.019531 43.78125 201.335938 44.605469 C 202.65625 45.429688 203.949219 46.292969 205.222656 47.195312 C 206.492188 48.097656 207.738281 49.042969 208.957031 50.023438 C 210.179688 51.007812 211.371094 52.027344 212.539062 53.085938 C 213.703125 54.144531 214.84375 55.238281 215.953125 56.367188 C 217.0625 57.5 218.140625 58.667969 219.191406 59.867188 C 220.242188 61.070312 221.261719 62.304688 222.25 63.574219 C 223.234375 64.84375 224.191406 66.148438 225.117188 67.480469 C 226.039062 68.816406 226.929688 70.179688 227.789062 71.578125 C 228.644531 72.972656 229.46875 74.398438 230.257812 75.851562 C 231.046875 77.304688 231.800781 78.785156 232.519531 80.292969 C 233.238281 81.800781 233.917969 83.335938 234.566406 84.894531 C 235.210938 86.453125 235.820312 88.035156 236.390625 89.644531 C 236.964844 91.25 237.5 92.878906 237.996094 94.527344 C 238.496094 96.175781 238.953125 97.847656 239.375 99.535156 C 239.796875 101.222656 240.175781 102.929688 240.519531 104.65625 C 240.863281 106.378906 241.167969 108.121094 241.433594 109.875 C 241.699219 111.628906 241.925781 113.398438 242.113281 115.179688 C 242.296875 116.964844 242.445312 118.757812 242.550781 120.5625 C 242.660156 122.367188 242.726562 124.179688 242.753906 126.003906 C 242.78125 127.828125 242.769531 129.65625 242.71875 131.492188 C 242.667969 133.332031 242.574219 135.171875 242.445312 137.019531 C 242.3125 138.863281 242.140625 140.714844 241.929688 142.566406 C 241.71875 144.417969 241.472656 146.269531 241.179688 148.121094 C 240.890625 149.972656 240.5625 151.820312 240.199219 153.667969 C 239.832031 155.515625 239.425781 157.359375 238.980469 159.199219 C 238.535156 161.039062 238.054688 162.871094 237.535156 164.699219 C 237.015625 166.527344 236.457031 168.34375 235.863281 170.152344 C 235.265625 171.960938 234.636719 173.761719 233.964844 175.546875 C 233.296875 177.335938 232.59375 179.109375 231.855469 180.875 C 231.113281 182.636719 230.339844 184.382812 229.53125 186.113281 C 228.71875 187.84375 227.875 189.558594 227 191.257812 C 226.121094 192.953125 225.210938 194.632812 224.265625 196.292969 C 223.324219 197.949219 222.347656 199.589844 221.339844 201.207031 C 220.332031 202.820312 219.296875 204.414062 218.226562 205.984375 C 217.160156 207.554688 216.0625 209.101562 214.933594 210.621094 C 213.808594 212.140625 212.652344 213.636719 211.46875 215.101562 C 210.285156 216.566406 209.078125 218.003906 207.839844 219.414062 C 206.605469 220.824219 205.34375 222.203125 204.058594 223.550781 C 202.773438 224.898438 201.464844 226.214844 200.128906 227.5 C 198.796875 228.785156 197.441406 230.035156 196.066406 231.253906 C 194.691406 232.472656 193.292969 233.65625 191.875 234.800781 C 190.460938 235.949219 189.023438 237.0625 187.570312 238.136719 C 186.117188 239.210938 184.644531 240.25 183.15625 241.25 C 181.671875 242.246094 180.167969 243.207031 178.652344 244.128906 C 177.132812 245.050781 175.601562 245.933594 174.058594 246.777344 C 172.515625 247.617188 170.960938 248.417969 169.394531 249.179688 C 167.828125 249.9375 166.253906 250.65625 164.667969 251.332031 C 163.082031 252.011719 161.492188 252.644531 159.890625 253.234375 C 158.289062 253.824219 156.6875 254.371094 155.074219 254.875 C 153.464844 255.378906 151.847656 255.839844 150.230469 256.257812 C 148.613281 256.671875 146.992188 257.042969 145.371094 257.371094 C 143.75 257.699219 142.128906 257.980469 140.507812 258.214844 C 138.886719 258.453125 137.269531 258.644531 135.652344 258.792969 C 134.035156 258.9375 132.421875 259.039062 130.816406 259.09375 C 129.207031 259.152344 127.605469 259.160156 126.011719 259.125 C 124.414062 259.089844 122.828125 259.011719 121.246094 258.886719 C 119.667969 258.757812 118.097656 258.585938 116.539062 258.371094 C 114.976562 258.15625 113.429688 257.894531 111.894531 257.585938 C 110.359375 257.28125 108.835938 256.929688 107.328125 256.535156 C 105.820312 256.136719 104.324219 255.699219 102.847656 255.214844 C 101.371094 254.730469 99.910156 254.203125 98.464844 253.632812 C 97.023438 253.058594 95.597656 252.445312 94.195312 251.789062 C 92.789062 251.132812 91.40625 250.433594 90.042969 249.691406 C 88.679688 248.953125 87.335938 248.167969 86.019531 247.347656 C 84.699219 246.523438 83.402344 245.660156 82.132812 244.753906 C 80.863281 243.851562 79.617188 242.90625 78.394531 241.925781 C 77.175781 240.945312 75.984375 239.921875 74.816406 238.867188 C 73.652344 237.808594 72.511719 236.714844 71.402344 235.582031 C 70.292969 234.449219 69.214844 233.285156 68.164062 232.082031 C 67.113281 230.878906 66.09375 229.644531 65.105469 228.375 C 64.117188 227.105469 63.164062 225.804688 62.238281 224.46875 C 61.316406 223.132812 60.425781 221.769531 59.566406 220.375 C 58.710938 218.976562 57.886719 217.554688 57.097656 216.101562 C 56.308594 214.644531 55.554688 213.164062 54.835938 211.65625 C 54.117188 210.148438 53.4375 208.613281 52.789062 207.054688 C 52.144531 205.496094 51.535156 203.914062 50.960938 202.308594 C 50.390625 200.699219 49.855469 199.074219 49.359375 197.421875 C 48.859375 195.773438 48.402344 194.105469 47.980469 192.414062 C 47.558594 190.726562 47.179688 189.019531 46.835938 187.296875 C 46.492188 185.570312 46.1875 183.832031 45.921875 182.074219 C 45.65625 180.320312 45.429688 178.550781 45.242188 176.769531 C 45.058594 174.988281 44.910156 173.195312 44.800781 171.390625 C 44.695312 169.582031 44.628906 167.769531 44.601562 165.945312 C 44.574219 164.125 44.585938 162.292969 44.636719 160.457031 C 44.6875 158.621094 44.78125 156.777344 44.910156 154.933594 C 45.042969 153.085938 45.214844 151.238281 45.425781 149.386719 C 45.632812 147.535156 45.882812 145.683594 46.171875 143.832031 C 46.460938 141.980469 46.789062 140.128906 47.15625 138.28125 C 47.523438 136.433594 47.929688 134.589844 48.375 132.75 C 48.820312 130.910156 49.300781 129.078125 49.820312 127.25 C 50.339844 125.425781 50.898438 123.605469 51.492188 121.796875 C 52.089844 119.988281 52.71875 118.191406 53.386719 116.402344 C 54.054688 114.613281 54.761719 112.839844 55.5 111.078125 C 56.242188 109.316406 57.015625 107.570312 57.824219 105.835938 C 58.636719 104.105469 59.480469 102.390625 60.355469 100.691406 C 61.234375 98.996094 62.144531 97.316406 63.089844 95.660156 C 64.03125 94 65.007812 92.363281 66.015625 90.746094 C 67.023438 89.128906 68.058594 87.535156 69.128906 85.964844 C 70.195312 84.394531 71.292969 82.847656 72.421875 81.328125 C 73.546875 79.808594 74.703125 78.316406 75.886719 76.847656 C 77.070312 75.382812 78.277344 73.945312 79.515625 72.535156 C 80.75 71.125 82.011719 69.746094 83.296875 68.398438 C 84.582031 67.050781 85.890625 65.734375 87.222656 64.449219 C 88.558594 63.164062 89.910156 61.914062 91.289062 60.695312 C 92.664062 59.476562 94.0625 58.296875 95.480469 57.148438 C 96.894531 56 98.332031 54.890625 99.785156 53.8125 C 101.238281 52.738281 102.710938 51.703125 104.195312 50.703125 C 105.683594 49.703125 107.1875 48.742188 108.703125 47.820312 C 110.222656 46.898438 111.753906 46.015625 113.296875 45.175781 C 114.839844 44.332031 116.394531 43.53125 117.960938 42.769531 C 119.527344 42.011719 121.101562 41.292969 122.6875 40.617188 C 124.273438 39.941406 125.863281 39.308594 127.464844 38.714844 C 129.0625 38.125 130.667969 37.578125 132.28125 37.074219 C 133.890625 36.570312 135.503906 36.109375 137.125 35.695312 C 138.742188 35.277344 140.363281 34.90625 141.984375 34.578125 C 143.605469 34.253906 145.226562 33.972656 146.847656 33.734375 C 148.46875 33.496094 150.085938 33.304688 151.703125 33.160156 C 153.320312 33.011719 154.929688 32.910156 156.539062 32.855469 C 158.148438 32.800781 159.75 32.789062 161.34375 32.824219 C 162.941406 32.859375 164.527344 32.941406 166.109375 33.066406 C 167.6875 33.191406 169.257812 33.363281 170.816406 33.578125 C 172.375 33.796875 173.925781 34.058594 175.460938 34.363281 C 176.996094 34.667969 178.519531 35.019531 180.027344 35.417969 C 181.535156 35.8125 183.03125 36.253906 184.507812 36.734375 C 185.984375 37.21875 187.445312 37.746094 188.886719 38.320312 C 190.332031 38.890625 191.753906 39.503906 193.160156 40.160156 Z M 193.160156 40.160156 " fill-opacity="1" fill-rule="nonzero"/><path fill="#312f84" d="M 181.949219 64.132812 C 183.039062 64.640625 184.109375 65.179688 185.164062 65.753906 C 186.21875 66.328125 187.253906 66.933594 188.273438 67.570312 C 189.296875 68.207031 190.296875 68.875 191.28125 69.574219 C 192.261719 70.273438 193.226562 71 194.171875 71.761719 C 195.113281 72.519531 196.035156 73.308594 196.9375 74.128906 C 197.839844 74.945312 198.722656 75.792969 199.578125 76.667969 C 200.4375 77.542969 201.273438 78.445312 202.085938 79.375 C 202.898438 80.304688 203.683594 81.261719 204.449219 82.242188 C 205.214844 83.226562 205.953125 84.230469 206.667969 85.265625 C 207.382812 86.296875 208.070312 87.351562 208.734375 88.429688 C 209.398438 89.511719 210.035156 90.613281 210.644531 91.738281 C 211.253906 92.863281 211.835938 94.007812 212.394531 95.171875 C 212.949219 96.339844 213.476562 97.527344 213.976562 98.730469 C 214.476562 99.9375 214.945312 101.164062 215.390625 102.40625 C 215.832031 103.648438 216.246094 104.90625 216.628906 106.183594 C 217.015625 107.457031 217.371094 108.75 217.695312 110.054688 C 218.023438 111.363281 218.316406 112.683594 218.582031 114.015625 C 218.847656 115.351562 219.085938 116.695312 219.289062 118.054688 C 219.496094 119.410156 219.667969 120.78125 219.8125 122.15625 C 219.957031 123.535156 220.070312 124.921875 220.15625 126.320312 C 220.238281 127.714844 220.289062 129.117188 220.3125 130.527344 C 220.332031 131.9375 220.324219 133.355469 220.285156 134.773438 C 220.242188 136.195312 220.171875 137.621094 220.070312 139.046875 C 219.96875 140.476562 219.835938 141.90625 219.675781 143.339844 C 219.511719 144.769531 219.316406 146.203125 219.09375 147.632812 C 218.871094 149.066406 218.617188 150.496094 218.332031 151.925781 C 218.050781 153.355469 217.734375 154.78125 217.390625 156.203125 C 217.046875 157.628906 216.675781 159.046875 216.273438 160.457031 C 215.871094 161.871094 215.441406 163.277344 214.980469 164.675781 C 214.519531 166.074219 214.03125 167.46875 213.515625 168.851562 C 212.996094 170.234375 212.453125 171.605469 211.878906 172.96875 C 211.308594 174.332031 210.707031 175.683594 210.082031 177.019531 C 209.457031 178.359375 208.804688 179.6875 208.125 181 C 207.445312 182.3125 206.742188 183.609375 206.011719 184.894531 C 205.28125 186.175781 204.527344 187.445312 203.746094 188.695312 C 202.96875 189.945312 202.167969 191.175781 201.339844 192.390625 C 200.511719 193.605469 199.664062 194.800781 198.792969 195.976562 C 197.921875 197.152344 197.027344 198.308594 196.113281 199.441406 C 195.199219 200.578125 194.261719 201.6875 193.308594 202.777344 C 192.351562 203.867188 191.375 204.933594 190.382812 205.976562 C 189.386719 207.019531 188.375 208.039062 187.34375 209.03125 C 186.3125 210.027344 185.265625 210.996094 184.199219 211.9375 C 183.136719 212.878906 182.054688 213.792969 180.957031 214.679688 C 179.863281 215.566406 178.753906 216.425781 177.628906 217.257812 C 176.503906 218.089844 175.367188 218.890625 174.214844 219.664062 C 173.066406 220.4375 171.902344 221.183594 170.730469 221.894531 C 169.554688 222.609375 168.371094 223.289062 167.175781 223.941406 C 165.984375 224.59375 164.78125 225.210938 163.570312 225.800781 C 162.359375 226.386719 161.140625 226.941406 159.914062 227.464844 C 158.6875 227.988281 157.457031 228.480469 156.21875 228.9375 C 154.980469 229.394531 153.738281 229.816406 152.492188 230.207031 C 151.246094 230.597656 150 230.953125 148.746094 231.273438 C 147.496094 231.59375 146.242188 231.882812 144.988281 232.136719 C 143.734375 232.386719 142.480469 232.605469 141.226562 232.789062 C 139.972656 232.972656 138.722656 233.121094 137.472656 233.234375 C 136.21875 233.347656 134.972656 233.425781 133.730469 233.46875 C 132.484375 233.511719 131.246094 233.519531 130.011719 233.492188 C 128.777344 233.464844 127.550781 233.402344 126.328125 233.304688 C 125.105469 233.210938 123.894531 233.078125 122.6875 232.910156 C 121.480469 232.742188 120.28125 232.539062 119.09375 232.300781 C 117.90625 232.066406 116.730469 231.792969 115.5625 231.488281 C 114.394531 231.183594 113.242188 230.839844 112.097656 230.46875 C 110.953125 230.09375 109.824219 229.683594 108.707031 229.242188 C 107.59375 228.800781 106.492188 228.328125 105.40625 227.816406 C 104.316406 227.308594 103.246094 226.769531 102.191406 226.195312 C 101.136719 225.625 100.101562 225.019531 99.078125 224.382812 C 98.058594 223.746094 97.058594 223.078125 96.074219 222.378906 C 95.09375 221.679688 94.128906 220.949219 93.183594 220.1875 C 92.242188 219.429688 91.316406 218.640625 90.417969 217.820312 C 89.515625 217.003906 88.632812 216.15625 87.777344 215.28125 C 86.917969 214.40625 86.082031 213.503906 85.269531 212.574219 C 84.457031 211.644531 83.671875 210.691406 82.90625 209.707031 C 82.140625 208.726562 81.402344 207.71875 80.6875 206.6875 C 79.972656 205.65625 79.285156 204.597656 78.621094 203.519531 C 77.957031 202.441406 77.320312 201.339844 76.710938 200.214844 C 76.101562 199.089844 75.519531 197.945312 74.960938 196.777344 C 74.40625 195.609375 73.878906 194.425781 73.378906 193.21875 C 72.878906 192.011719 72.40625 190.789062 71.964844 189.546875 C 71.523438 188.304688 71.109375 187.042969 70.722656 185.769531 C 70.339844 184.492188 69.984375 183.199219 69.660156 181.894531 C 69.332031 180.585938 69.039062 179.269531 68.773438 177.933594 C 68.507812 176.601562 68.269531 175.253906 68.066406 173.898438 C 67.859375 172.539062 67.6875 171.171875 67.542969 169.792969 C 67.398438 168.414062 67.285156 167.027344 67.199219 165.632812 C 67.117188 164.234375 67.066406 162.832031 67.042969 161.421875 C 67.023438 160.011719 67.03125 158.597656 67.070312 157.175781 C 67.113281 155.753906 67.183594 154.332031 67.285156 152.902344 C 67.386719 151.472656 67.519531 150.042969 67.679688 148.613281 C 67.84375 147.179688 68.035156 145.75 68.261719 144.316406 C 68.484375 142.882812 68.738281 141.453125 69.023438 140.023438 C 69.304688 138.59375 69.621094 137.167969 69.964844 135.746094 C 70.304688 134.324219 70.679688 132.90625 71.082031 131.492188 C 71.484375 130.078125 71.914062 128.671875 72.375 127.273438 C 72.835938 125.875 73.324219 124.484375 73.839844 123.101562 C 74.359375 121.71875 74.902344 120.34375 75.472656 118.980469 C 76.046875 117.621094 76.644531 116.269531 77.273438 114.929688 C 77.898438 113.589844 78.550781 112.261719 79.230469 110.949219 C 79.910156 109.636719 80.613281 108.339844 81.34375 107.054688 C 82.074219 105.773438 82.828125 104.507812 83.605469 103.257812 C 84.386719 102.007812 85.1875 100.773438 86.015625 99.558594 C 86.839844 98.34375 87.691406 97.148438 88.5625 95.972656 C 89.433594 94.796875 90.328125 93.640625 91.242188 92.507812 C 92.15625 91.375 93.09375 90.261719 94.046875 89.171875 C 95.003906 88.082031 95.980469 87.015625 96.972656 85.972656 C 97.96875 84.929688 98.980469 83.910156 100.011719 82.917969 C 101.042969 81.925781 102.089844 80.957031 103.15625 80.015625 C 104.21875 79.074219 105.300781 78.15625 106.394531 77.269531 C 107.492188 76.382812 108.601562 75.523438 109.726562 74.691406 C 110.851562 73.859375 111.988281 73.058594 113.140625 72.285156 C 114.289062 71.511719 115.453125 70.769531 116.625 70.054688 C 117.800781 69.34375 118.984375 68.660156 120.175781 68.007812 C 121.371094 67.359375 122.574219 66.738281 123.785156 66.152344 C 124.996094 65.5625 126.214844 65.007812 127.441406 64.484375 C 128.667969 63.960938 129.898438 63.472656 131.136719 63.015625 C 132.375 62.558594 133.617188 62.132812 134.859375 61.742188 C 136.105469 61.355469 137.355469 61 138.609375 60.675781 C 139.859375 60.355469 141.113281 60.066406 142.367188 59.816406 C 143.621094 59.5625 144.875 59.34375 146.128906 59.160156 C 147.382812 58.976562 148.632812 58.828125 149.882812 58.714844 C 151.132812 58.601562 152.382812 58.523438 153.625 58.480469 C 154.867188 58.4375 156.109375 58.429688 157.34375 58.457031 C 158.578125 58.484375 159.804688 58.546875 161.027344 58.644531 C 162.246094 58.742188 163.460938 58.875 164.667969 59.042969 C 165.875 59.207031 167.070312 59.410156 168.261719 59.648438 C 169.449219 59.886719 170.625 60.15625 171.792969 60.460938 C 172.960938 60.769531 174.113281 61.109375 175.257812 61.484375 C 176.398438 61.859375 177.53125 62.265625 178.644531 62.707031 C 179.761719 63.148438 180.863281 63.625 181.949219 64.132812 Z M 181.949219 64.132812 " fill-opacity="1" fill-rule="nonzero"/><path fill="#d2edff" d="M 169.53125 90.695312 C 171 91.378906 172.421875 92.152344 173.800781 93.015625 C 175.179688 93.875 176.507812 94.820312 177.78125 95.847656 C 179.058594 96.875 180.277344 97.980469 181.4375 99.160156 C 182.597656 100.34375 183.691406 101.597656 184.726562 102.925781 C 185.757812 104.253906 186.722656 105.648438 187.621094 107.105469 C 188.515625 108.566406 189.339844 110.082031 190.089844 111.660156 C 190.84375 113.238281 191.515625 114.867188 192.117188 116.546875 C 192.714844 118.226562 193.234375 119.949219 193.671875 121.714844 C 194.113281 123.480469 194.472656 125.28125 194.75 127.113281 C 195.027344 128.949219 195.222656 130.8125 195.335938 132.699219 C 195.445312 134.585938 195.476562 136.488281 195.421875 138.410156 C 195.367188 140.332031 195.230469 142.257812 195.007812 144.195312 C 194.789062 146.128906 194.488281 148.0625 194.105469 149.996094 C 193.71875 151.925781 193.257812 153.847656 192.710938 155.757812 C 192.167969 157.667969 191.546875 159.558594 190.847656 161.425781 C 190.148438 163.296875 189.378906 165.136719 188.53125 166.945312 C 187.683594 168.753906 186.765625 170.527344 185.78125 172.261719 C 184.792969 173.996094 183.742188 175.683594 182.625 177.328125 C 181.507812 178.96875 180.332031 180.554688 179.09375 182.089844 C 177.859375 183.621094 176.566406 185.09375 175.222656 186.503906 C 173.878906 187.914062 172.488281 189.253906 171.046875 190.527344 C 169.609375 191.800781 168.128906 193 166.609375 194.125 C 165.089844 195.246094 163.535156 196.292969 161.949219 197.253906 C 160.363281 198.21875 158.75 199.097656 157.113281 199.894531 C 155.476562 200.6875 153.820312 201.394531 152.148438 202.011719 C 150.476562 202.628906 148.792969 203.15625 147.101562 203.589844 C 145.410156 204.023438 143.714844 204.367188 142.023438 204.613281 C 140.328125 204.863281 138.640625 205.015625 136.957031 205.074219 C 135.277344 205.132812 133.609375 205.09375 131.960938 204.964844 C 130.308594 204.832031 128.679688 204.605469 127.074219 204.285156 C 125.46875 203.964844 123.890625 203.550781 122.347656 203.046875 C 120.800781 202.539062 119.292969 201.945312 117.824219 201.257812 C 116.355469 200.570312 114.933594 199.796875 113.554688 198.933594 C 112.175781 198.074219 110.847656 197.128906 109.570312 196.105469 C 108.296875 195.078125 107.078125 193.972656 105.917969 192.789062 C 104.757812 191.605469 103.660156 190.351562 102.628906 189.023438 C 101.597656 187.695312 100.632812 186.304688 99.734375 184.84375 C 98.839844 183.386719 98.015625 181.867188 97.261719 180.289062 C 96.511719 178.714844 95.835938 177.085938 95.238281 175.40625 C 94.640625 173.726562 94.121094 172.003906 93.679688 170.238281 C 93.242188 168.472656 92.882812 166.671875 92.605469 164.835938 C 92.328125 163 92.132812 161.140625 92.019531 159.253906 C 91.910156 157.363281 91.878906 155.460938 91.933594 153.539062 C 91.988281 151.621094 92.125 149.691406 92.34375 147.757812 C 92.566406 145.820312 92.867188 143.886719 93.25 141.957031 C 93.636719 140.023438 94.097656 138.101562 94.644531 136.191406 C 95.1875 134.285156 95.808594 132.394531 96.507812 130.523438 C 97.203125 128.65625 97.976562 126.816406 98.824219 125.003906 C 99.671875 123.195312 100.585938 121.421875 101.574219 119.6875 C 102.5625 117.953125 103.613281 116.265625 104.730469 114.625 C 105.847656 112.980469 107.023438 111.394531 108.261719 109.859375 C 109.496094 108.328125 110.789062 106.855469 112.132812 105.445312 C 113.476562 104.035156 114.867188 102.695312 116.308594 101.421875 C 117.746094 100.148438 119.226562 98.949219 120.746094 97.828125 C 122.265625 96.703125 123.820312 95.660156 125.40625 94.695312 C 126.992188 93.730469 128.605469 92.851562 130.242188 92.058594 C 131.878906 91.261719 133.535156 90.554688 135.207031 89.9375 C 136.878906 89.320312 138.5625 88.792969 140.253906 88.359375 C 141.945312 87.925781 143.636719 87.582031 145.332031 87.335938 C 147.027344 87.089844 148.714844 86.933594 150.398438 86.875 C 152.078125 86.820312 153.746094 86.855469 155.394531 86.988281 C 157.046875 87.117188 158.675781 87.34375 160.28125 87.664062 C 161.886719 87.984375 163.464844 88.398438 165.007812 88.90625 C 166.554688 89.410156 168.058594 90.007812 169.53125 90.695312 Z M 169.53125 90.695312 " fill-opacity="1" fill-rule="nonzero"/><path fill="#312f84" d="M 155.292969 121.140625 C 155.949219 121.449219 156.589844 121.796875 157.210938 122.183594 C 157.828125 122.570312 158.425781 122.992188 159 123.457031 C 159.570312 123.917969 160.117188 124.414062 160.640625 124.945312 C 161.160156 125.476562 161.652344 126.039062 162.117188 126.636719 C 162.582031 127.230469 163.015625 127.859375 163.417969 128.511719 C 163.820312 129.167969 164.191406 129.851562 164.527344 130.558594 C 164.863281 131.265625 165.167969 132 165.4375 132.753906 C 165.707031 133.507812 165.9375 134.28125 166.136719 135.074219 C 166.332031 135.867188 166.496094 136.675781 166.621094 137.5 C 166.742188 138.324219 166.832031 139.164062 166.882812 140.011719 C 166.933594 140.859375 166.945312 141.710938 166.921875 142.574219 C 166.894531 143.4375 166.835938 144.304688 166.734375 145.175781 C 166.636719 146.042969 166.5 146.910156 166.328125 147.78125 C 166.15625 148.648438 165.949219 149.511719 165.703125 150.367188 C 165.460938 151.226562 165.179688 152.074219 164.867188 152.914062 C 164.550781 153.753906 164.207031 154.582031 163.824219 155.394531 C 163.445312 156.207031 163.03125 157.003906 162.589844 157.785156 C 162.144531 158.5625 161.671875 159.320312 161.171875 160.058594 C 160.671875 160.796875 160.140625 161.507812 159.585938 162.199219 C 159.03125 162.886719 158.449219 163.546875 157.847656 164.179688 C 157.242188 164.816406 156.617188 165.417969 155.972656 165.988281 C 155.324219 166.5625 154.660156 167.101562 153.976562 167.605469 C 153.292969 168.109375 152.597656 168.578125 151.882812 169.011719 C 151.171875 169.445312 150.449219 169.839844 149.710938 170.195312 C 148.976562 170.554688 148.234375 170.871094 147.480469 171.148438 C 146.730469 171.425781 145.972656 171.664062 145.214844 171.859375 C 144.453125 172.054688 143.695312 172.207031 142.933594 172.316406 C 142.171875 172.429688 141.414062 172.496094 140.65625 172.523438 C 139.902344 172.550781 139.152344 172.535156 138.414062 172.476562 C 137.671875 172.414062 136.9375 172.3125 136.21875 172.171875 C 135.496094 172.027344 134.789062 171.839844 134.09375 171.613281 C 133.402344 171.386719 132.722656 171.117188 132.0625 170.808594 C 131.402344 170.5 130.765625 170.152344 130.144531 169.765625 C 129.527344 169.378906 128.929688 168.957031 128.355469 168.496094 C 127.785156 168.035156 127.238281 167.539062 126.714844 167.007812 C 126.195312 166.476562 125.703125 165.910156 125.238281 165.316406 C 124.773438 164.71875 124.339844 164.09375 123.9375 163.4375 C 123.535156 162.78125 123.164062 162.101562 122.828125 161.390625 C 122.492188 160.683594 122.1875 159.953125 121.917969 159.195312 C 121.648438 158.441406 121.417969 157.667969 121.21875 156.875 C 121.019531 156.082031 120.859375 155.273438 120.734375 154.449219 C 120.609375 153.625 120.523438 152.789062 120.472656 151.941406 C 120.421875 151.09375 120.410156 150.238281 120.433594 149.375 C 120.457031 148.511719 120.519531 147.644531 120.621094 146.777344 C 120.71875 145.90625 120.855469 145.039062 121.027344 144.171875 C 121.199219 143.300781 121.40625 142.441406 121.652344 141.582031 C 121.894531 140.722656 122.175781 139.875 122.488281 139.035156 C 122.800781 138.195312 123.148438 137.371094 123.53125 136.554688 C 123.910156 135.742188 124.324219 134.945312 124.765625 134.167969 C 125.207031 133.386719 125.679688 132.628906 126.183594 131.890625 C 126.683594 131.152344 127.214844 130.441406 127.769531 129.753906 C 128.324219 129.0625 128.902344 128.402344 129.507812 127.769531 C 130.113281 127.136719 130.738281 126.53125 131.382812 125.960938 C 132.03125 125.390625 132.695312 124.851562 133.378906 124.347656 C 134.0625 123.839844 134.757812 123.371094 135.472656 122.9375 C 136.183594 122.507812 136.90625 122.109375 137.644531 121.753906 C 138.378906 121.398438 139.121094 121.078125 139.875 120.800781 C 140.625 120.523438 141.378906 120.289062 142.140625 120.09375 C 142.902344 119.898438 143.660156 119.742188 144.421875 119.632812 C 145.183594 119.519531 145.941406 119.453125 146.695312 119.425781 C 147.453125 119.398438 148.199219 119.417969 148.941406 119.476562 C 149.683594 119.535156 150.417969 119.636719 151.136719 119.78125 C 151.859375 119.925781 152.566406 120.109375 153.261719 120.335938 C 153.953125 120.5625 154.632812 120.832031 155.292969 121.140625 Z M 155.292969 121.140625 " fill-opacity="1" fill-rule="nonzero"/><path fill="#8282db" d="M 78.367188 102.023438 C 78.367188 102.023438 61.167969 45.640625 43.703125 37.023438 C 26.238281 28.402344 31.910156 80.289062 31.910156 80.289062 Z M 78.367188 102.023438 " fill-opacity="1" fill-rule="nonzero"/><path fill="#8282db" d="M 69.160156 119.398438 C 69.160156 119.398438 17.84375 134.542969 10.8125 121.164062 C 3.777344 107.785156 21.722656 102.023438 21.722656 102.023438 Z M 69.160156 119.398438 " fill-opacity="1" fill-rule="nonzero"/><path fill="#5656bf" d="M 43.417969 87.007812 C 43.25 87.007812 43.089844 86.976562 42.9375 86.917969 C 42.78125 86.855469 42.640625 86.769531 42.519531 86.65625 C 42.398438 86.546875 42.300781 86.414062 42.226562 86.265625 C 42.152344 86.117188 42.109375 85.957031 42.09375 85.792969 L 38.972656 50.746094 C 38.96875 50.578125 38.996094 50.414062 39.050781 50.253906 C 39.109375 50.09375 39.195312 49.949219 39.308594 49.820312 C 39.421875 49.695312 39.554688 49.59375 39.707031 49.515625 C 39.859375 49.4375 40.019531 49.394531 40.1875 49.378906 C 40.359375 49.363281 40.523438 49.378906 40.6875 49.429688 C 40.851562 49.476562 41 49.554688 41.132812 49.660156 C 41.265625 49.765625 41.375 49.890625 41.460938 50.039062 C 41.546875 50.1875 41.601562 50.34375 41.628906 50.511719 L 44.746094 85.558594 C 44.761719 85.734375 44.746094 85.90625 44.691406 86.074219 C 44.636719 86.242188 44.554688 86.394531 44.441406 86.53125 C 44.328125 86.664062 44.195312 86.773438 44.035156 86.855469 C 43.878906 86.9375 43.714844 86.984375 43.539062 87.003906 Z M 43.417969 87.007812 " fill-opacity="1" fill-rule="nonzero"/><path fill="#5656bf" d="M 53.621094 91.777344 C 53.453125 91.777344 53.292969 91.746094 53.136719 91.6875 C 52.980469 91.625 52.839844 91.539062 52.714844 91.421875 C 52.589844 91.308594 52.492188 91.175781 52.421875 91.023438 C 52.347656 90.871094 52.304688 90.710938 52.292969 90.542969 L 50.761719 69.132812 C 50.742188 68.953125 50.757812 68.773438 50.808594 68.597656 C 50.859375 68.421875 50.941406 68.265625 51.058594 68.125 C 51.175781 67.984375 51.3125 67.871094 51.476562 67.785156 C 51.636719 67.703125 51.808594 67.65625 51.992188 67.640625 C 52.175781 67.628906 52.351562 67.652344 52.523438 67.710938 C 52.699219 67.773438 52.851562 67.863281 52.988281 67.984375 C 53.121094 68.109375 53.226562 68.253906 53.300781 68.417969 C 53.378906 68.585938 53.417969 68.761719 53.421875 68.941406 L 54.925781 90.351562 C 54.9375 90.53125 54.917969 90.699219 54.859375 90.867188 C 54.804688 91.035156 54.71875 91.1875 54.601562 91.320312 C 54.488281 91.453125 54.351562 91.558594 54.195312 91.636719 C 54.035156 91.71875 53.871094 91.765625 53.691406 91.777344 Z M 53.621094 91.777344 " fill-opacity="1" fill-rule="nonzero"/><path fill="#5656bf" d="M 22.15625 118.183594 C 21.820312 118.1875 21.527344 118.082031 21.273438 117.863281 C 21.019531 117.640625 20.871094 117.367188 20.824219 117.035156 C 20.78125 116.703125 20.851562 116.398438 21.035156 116.121094 C 21.222656 115.839844 21.476562 115.65625 21.800781 115.570312 L 43.0625 109.652344 C 43.230469 109.601562 43.40625 109.589844 43.582031 109.609375 C 43.757812 109.628906 43.921875 109.683594 44.074219 109.765625 C 44.230469 109.851562 44.363281 109.964844 44.472656 110.101562 C 44.582031 110.242188 44.664062 110.394531 44.710938 110.566406 C 44.761719 110.734375 44.773438 110.90625 44.753906 111.082031 C 44.734375 111.257812 44.683594 111.425781 44.597656 111.578125 C 44.511719 111.734375 44.398438 111.867188 44.261719 111.976562 C 44.125 112.085938 43.96875 112.167969 43.800781 112.214844 L 22.511719 118.140625 C 22.394531 118.167969 22.277344 118.183594 22.15625 118.183594 Z M 22.15625 118.183594 " fill-opacity="1" fill-rule="nonzero"/><path fill="#5656bf" d="M 146.980469 143.386719 L 146.851562 143.46875 C 146.328125 143.769531 145.765625 143.949219 145.164062 144.007812 C 144.5625 144.066406 143.972656 144.003906 143.398438 143.816406 L 27.292969 105.628906 C 26.644531 105.414062 26.019531 105.152344 25.414062 104.84375 C 24.808594 104.53125 24.230469 104.175781 23.683594 103.773438 C 23.132812 103.371094 22.617188 102.929688 22.136719 102.445312 C 21.65625 101.960938 21.21875 101.445312 20.820312 100.894531 C 20.421875 100.339844 20.066406 99.761719 19.757812 99.15625 C 19.453125 98.546875 19.191406 97.921875 18.984375 97.273438 C 18.773438 96.625 18.617188 95.964844 18.511719 95.292969 C 18.40625 94.621094 18.351562 93.945312 18.351562 93.261719 C 18.351562 91.859375 18.574219 90.492188 19.019531 89.160156 C 19.167969 88.71875 19.335938 88.292969 19.53125 87.871094 C 19.722656 87.449219 19.9375 87.042969 20.175781 86.644531 C 20.414062 86.246094 20.667969 85.863281 20.949219 85.492188 C 21.226562 85.121094 21.523438 84.769531 21.835938 84.429688 C 22.152344 84.089844 22.484375 83.769531 22.835938 83.46875 C 23.183594 83.164062 23.550781 82.882812 23.929688 82.617188 C 24.308594 82.351562 24.703125 82.109375 25.109375 81.886719 C 25.515625 81.664062 25.933594 81.464844 26.359375 81.289062 C 26.785156 81.109375 27.222656 80.957031 27.664062 80.824219 C 28.109375 80.695312 28.558594 80.585938 29.015625 80.503906 C 29.46875 80.417969 29.929688 80.359375 30.390625 80.328125 C 30.851562 80.292969 31.3125 80.28125 31.777344 80.296875 C 32.238281 80.3125 32.699219 80.351562 33.15625 80.414062 C 33.613281 80.480469 34.070312 80.566406 34.515625 80.679688 C 34.964844 80.792969 35.40625 80.929688 35.84375 81.089844 C 36.277344 81.246094 36.703125 81.429688 37.117188 81.632812 L 146.769531 135.863281 C 147.527344 136.234375 148.121094 136.785156 148.542969 137.515625 C 148.6875 137.757812 148.804688 138.011719 148.898438 138.28125 C 148.992188 138.546875 149.058594 138.820312 149.097656 139.101562 C 149.136719 139.378906 149.148438 139.664062 149.128906 139.945312 C 149.113281 140.226562 149.066406 140.503906 148.996094 140.777344 C 148.921875 141.050781 148.824219 141.316406 148.699219 141.570312 C 148.574219 141.824219 148.425781 142.0625 148.25 142.285156 C 148.078125 142.511719 147.886719 142.714844 147.671875 142.898438 C 147.457031 143.085938 147.226562 143.25 146.980469 143.386719 Z M 146.980469 143.386719 " fill-opacity="1" fill-rule="nonzero"/></svg>