<?xml version="1.0" encoding="UTF-8"?>
<svg id="Camada_2" data-name="Camada 2" xmlns="http://www.w3.org/2000/svg" width="39.1" height="48" viewBox="0 0 39.1 48">
  <defs>
    <style>
      .cls-1 {
        fill: #ff2116;
      }

      .cls-2 {
        fill: #2c2c2c;
      }

      .cls-3 {
        fill: #f5f5f5;
      }
    </style>
  </defs>
  <g id="Camada_1-2" data-name="Camada 1">
    <g>
      <path class="cls-1" d="M5,0C2.2,0,0,2.2,0,5v38.1c0,2.7,2.2,4.9,5,4.9h29.1c2.7,0,5-2.2,5-5V11.7s0-.9-.3-1.8c-.4-.8-1-1.4-1-1.4h0l-7.2-7.1h0s-.6-.6-1.5-1c-1.2-.4-2.3-.4-2.3-.4H5Z"/>
      <path class="cls-3" d="M5,1.6h21.8s.9,0,1.5.3c.6.3,1.1.7,1.1.7h0l7.2,7.1s.4.5.6.9c.2.4.2,1.1.2,1.1h0v31.3c0,1.9-1.5,3.3-3.3,3.3H5c-1.9,0-3.3-1.5-3.3-3.3V5c0-1.9,1.5-3.3,3.3-3.3h0v-.1Z"/>
      <path class="cls-1" d="M9.7,28.6c-1.1-1.1,0-2.7,3.4-4.3l2.1-1,.8-1.8c.4-1,1.1-2.6,1.5-3.5l.7-1.8-.5-1.3c-.6-1.6-.8-4-.4-4.9.5-1.2,2.1-1,2.7.2.5,1,.4,2.8-.1,5l-.5,1.8.4.7c.2.4.9,1.3,1.5,2.1l1.1,1.4,1.4-.2c4.4-.6,5.9.4,5.9,1.8s-3.5,1.9-6.4-.1c-.7-.5-1.1-.9-1.1-.9,0,0-1.8.4-2.7.6-.9.2-1.4.4-2.7.9,0,0-.5.7-.8,1.2-1.2,1.9-2.5,3.4-3.5,4-1.1.6-2.2.7-2.8.1ZM11.5,28c.6-.4,1.9-1.9,2.8-3.3l.4-.6-1.6.8c-2.5,1.3-3.7,2.5-3.1,3.2.3.4.7.4,1.5-.1h0ZM27.8,23.4c.6-.4.5-1.3-.2-1.7-.5-.3-1-.3-2.4-.3-.9,0-2.3.2-2.5.3,0,0,.8.5,1.1.7.5.3,1.5.7,2.4,1,.8.2,1.2.2,1.6,0h0ZM21.3,20.6c-.4-.4-1-1.2-1.4-1.8-.5-.7-.8-1.2-.8-1.2,0,0-.4,1.2-.7,2l-1,2.4-.3.6s1.5-.5,2.3-.7,2.5-.5,2.5-.5l-.6-.7v-.1ZM19.2,12.2c0-.8.1-1.6-.1-2-.7-.8-1.6-.1-1.4,1.7,0,.6.2,1.7.4,2.3l.4,1.2.3-.9c.1-.5.4-1.6.5-2.4h0l-.1.1Z"/>
      <path class="cls-2" d="M11.7,33.8h1.8c.6,0,1.1,0,1.4.2.4.1.7.3.9.7s.4.8.4,1.4-.1.9-.3,1.2-.5.6-.8.8-.9.2-1.6.2h-.6v2.9h-1.2v-7.4ZM12.9,34.7v2.6h.6c.5,0,.9-.1,1.1-.3.2-.2.3-.5.3-1s0-.6-.2-.8c-.1-.2-.3-.3-.5-.4h-1.4l.1-.1ZM17.1,33.8h1.7c.8,0,1.4.1,1.9.4.5.3.8.7,1.1,1.3.2.6.4,1.2.4,1.9s-.1,1.4-.3,1.9c-.2.6-.6,1-1,1.4-.5.3-1.1.5-1.9.5h-1.7v-7.3l-.2-.1ZM18.3,34.7v5.4h.5c.7,0,1.2-.2,1.5-.7s.5-1.1.5-2c0-1.8-.7-2.7-2-2.7h-.5ZM23.3,33.8h4.1v1h-2.9v2.2h2.3v1h-2.3v3.2h-1.2v-7.4Z"/>
    </g>
  </g>
</svg>