<svg xmlns="http://www.w3.org/2000/svg" xmlns:xlink="http://www.w3.org/1999/xlink" width="48" zoomAndPan="magnify" viewBox="0 0 36 36.000001" height="48" preserveAspectRatio="xMidYMid meet" version="1.0"><defs><clipPath id="a2ec9434a6"><path d="M 0.488281 0 L 35.511719 0 L 35.511719 35.027344 L 0.488281 35.027344 Z M 0.488281 0 " clip-rule="nonzero"/></clipPath></defs><g clip-path="url(#a2ec9434a6)"><path fill="#0068ff" d="M 18.003906 0 C 18.578125 0 19.148438 0.0273438 19.71875 0.0859375 C 20.289062 0.140625 20.855469 0.226562 21.421875 0.335938 C 21.984375 0.449219 22.539062 0.585938 23.085938 0.753906 C 23.636719 0.921875 24.175781 1.113281 24.707031 1.332031 C 25.234375 1.554688 25.753906 1.796875 26.261719 2.066406 C 26.765625 2.339844 27.257812 2.632812 27.734375 2.953125 C 28.210938 3.269531 28.671875 3.613281 29.113281 3.976562 C 29.558594 4.339844 29.984375 4.726562 30.386719 5.128906 C 30.792969 5.535156 31.179688 5.960938 31.542969 6.402344 C 31.90625 6.847656 32.25 7.308594 32.566406 7.785156 C 32.886719 8.261719 33.179688 8.753906 33.449219 9.257812 C 33.722656 9.765625 33.964844 10.28125 34.1875 10.8125 C 34.40625 11.34375 34.597656 11.882812 34.765625 12.429688 C 34.929688 12.980469 35.070312 13.535156 35.183594 14.097656 C 35.292969 14.660156 35.378906 15.226562 35.433594 15.800781 C 35.492188 16.371094 35.519531 16.941406 35.519531 17.515625 C 35.519531 18.089844 35.492188 18.664062 35.433594 19.234375 C 35.378906 19.804688 35.292969 20.371094 35.183594 20.933594 C 35.070312 21.496094 34.929688 22.050781 34.765625 22.601562 C 34.597656 23.148438 34.40625 23.6875 34.1875 24.21875 C 33.964844 24.75 33.722656 25.265625 33.449219 25.773438 C 33.179688 26.277344 32.886719 26.769531 32.566406 27.246094 C 32.25 27.726562 31.90625 28.183594 31.542969 28.628906 C 31.179688 29.070312 30.792969 29.496094 30.386719 29.902344 C 29.984375 30.308594 29.558594 30.691406 29.113281 31.054688 C 28.671875 31.421875 28.210938 31.761719 27.734375 32.082031 C 27.257812 32.398438 26.765625 32.695312 26.261719 32.964844 C 25.753906 33.234375 25.234375 33.480469 24.707031 33.699219 C 24.175781 33.917969 23.636719 34.113281 23.085938 34.277344 C 22.539062 34.445312 21.984375 34.582031 21.421875 34.695312 C 20.855469 34.808594 20.289062 34.890625 19.71875 34.949219 C 19.148438 35.003906 18.578125 35.03125 18.003906 35.03125 C 17.429688 35.03125 16.855469 35.003906 16.285156 34.949219 C 15.714844 34.890625 15.148438 34.808594 14.585938 34.695312 C 14.023438 34.582031 13.46875 34.445312 12.917969 34.277344 C 12.367188 34.113281 11.828125 33.917969 11.300781 33.699219 C 10.769531 33.480469 10.25 33.234375 9.746094 32.964844 C 9.238281 32.695312 8.75 32.398438 8.269531 32.082031 C 7.792969 31.761719 7.335938 31.421875 6.890625 31.054688 C 6.445312 30.691406 6.023438 30.308594 5.617188 29.902344 C 5.210938 29.496094 4.828125 29.070312 4.460938 28.628906 C 4.097656 28.183594 3.757812 27.726562 3.4375 27.246094 C 3.121094 26.769531 2.824219 26.277344 2.554688 25.773438 C 2.285156 25.265625 2.039062 24.75 1.820312 24.21875 C 1.601562 23.6875 1.40625 23.148438 1.242188 22.601562 C 1.074219 22.050781 0.933594 21.496094 0.824219 20.933594 C 0.710938 20.371094 0.628906 19.804688 0.570312 19.234375 C 0.515625 18.664062 0.488281 18.089844 0.488281 17.515625 C 0.488281 16.941406 0.515625 16.371094 0.570312 15.800781 C 0.628906 15.226562 0.710938 14.660156 0.824219 14.097656 C 0.933594 13.535156 1.074219 12.980469 1.242188 12.429688 C 1.40625 11.882812 1.601562 11.34375 1.820312 10.8125 C 2.039062 10.28125 2.285156 9.765625 2.554688 9.257812 C 2.824219 8.753906 3.121094 8.261719 3.4375 7.785156 C 3.757812 7.308594 4.097656 6.847656 4.460938 6.402344 C 4.828125 5.960938 5.210938 5.535156 5.617188 5.128906 C 6.023438 4.726562 6.445312 4.339844 6.890625 3.976562 C 7.335938 3.613281 7.792969 3.269531 8.269531 2.953125 C 8.75 2.632812 9.238281 2.339844 9.746094 2.066406 C 10.25 1.796875 10.769531 1.554688 11.300781 1.332031 C 11.828125 1.113281 12.367188 0.921875 12.917969 0.753906 C 13.46875 0.585938 14.023438 0.449219 14.585938 0.335938 C 15.148438 0.226562 15.714844 0.140625 16.285156 0.0859375 C 16.855469 0.0273438 17.429688 0 18.003906 0 Z M 18.003906 0 " fill-opacity="1" fill-rule="nonzero"/></g><path fill="#ffffff" d="M 29.882812 23.992188 L 29.882812 24.292969 C 29.882812 24.945312 29.34375 25.488281 28.6875 25.488281 L 7.324219 25.488281 C 6.667969 25.488281 6.128906 24.945312 6.128906 24.292969 L 6.128906 23.992188 C 6.128906 23.9375 6.1875 23.878906 6.242188 23.878906 L 15.679688 23.878906 C 15.695312 24.21875 15.976562 24.503906 16.335938 24.503906 L 19.695312 24.503906 C 20.050781 24.503906 20.320312 24.234375 20.347656 23.878906 L 29.785156 23.878906 C 29.828125 23.878906 29.882812 23.921875 29.882812 23.992188 Z M 27.890625 10.355469 L 27.890625 22.257812 C 27.890625 22.710938 27.523438 23.082031 27.066406 23.082031 L 8.90625 23.082031 C 8.449219 23.082031 8.078125 22.710938 8.078125 22.257812 L 8.078125 10.34375 C 8.078125 9.886719 8.449219 9.515625 8.90625 9.515625 L 27.082031 9.515625 C 27.535156 9.53125 27.890625 9.902344 27.890625 10.355469 Z M 9.445312 21.800781 L 26.554688 21.800781 C 26.597656 21.800781 26.625 21.773438 26.625 21.730469 L 26.625 10.871094 C 26.625 10.828125 26.597656 10.796875 26.554688 10.796875 L 9.445312 10.796875 C 9.402344 10.796875 9.375 10.828125 9.375 10.871094 L 9.375 21.730469 C 9.386719 21.773438 9.417969 21.800781 9.445312 21.800781 Z M 9.445312 21.800781 " fill-opacity="1" fill-rule="nonzero"/></svg>