<svg xmlns="http://www.w3.org/2000/svg" xmlns:xlink="http://www.w3.org/1999/xlink" width="400" zoomAndPan="magnify" viewBox="0 0 300 299.999988" height="400" preserveAspectRatio="xMidYMid meet" version="1.0"><path fill="#13508b" d="M 294.570312 131.1875 C 293.046875 140.84375 290.121094 150.054688 285.792969 158.820312 C 281.933594 166.808594 276.886719 173.957031 270.644531 180.257812 C 266.238281 184.960938 261.46875 189.296875 257.171875 194.109375 C 256.402344 195.539062 255.519531 196.886719 254.511719 198.15625 C 253.476562 199.382812 252.324219 200.492188 251.054688 201.476562 C 250.652344 201.839844 250.214844 202.132812 249.777344 202.460938 C 249.648438 202.546875 249.527344 202.640625 249.414062 202.75 C 249.195312 202.898438 248.976562 202.96875 248.757812 203.117188 C 248.539062 203.261719 248.359375 203.371094 248.140625 203.480469 C 246.863281 204.25 245.53125 204.894531 244.132812 205.414062 C 243.914062 205.523438 243.699219 205.632812 243.515625 205.703125 C 241.207031 206.480469 238.839844 206.992188 236.414062 207.234375 C 236.265625 207.550781 236.15625 207.878906 236.085938 208.21875 C 234.191406 221.417969 228.695312 226.996094 215.765625 229.183594 C 215.230469 229.398438 214.777344 229.730469 214.410156 230.175781 C 214.042969 230.621094 213.800781 231.128906 213.691406 231.699219 C 213.605469 233.464844 213.292969 235.1875 212.75 236.871094 C 212.207031 238.554688 211.453125 240.136719 210.488281 241.621094 C 209.527344 243.105469 208.386719 244.433594 207.070312 245.613281 C 205.753906 246.792969 204.308594 247.78125 202.730469 248.578125 C 199.066406 250.125 195.304688 251.363281 191.441406 252.296875 C 191.332031 253.097656 191.1875 254.410156 190.96875 255.722656 C 190.800781 256.882812 190.535156 258.019531 190.179688 259.136719 C 189.820312 260.253906 189.375 261.332031 188.835938 262.375 C 188.300781 263.414062 187.679688 264.40625 186.976562 265.34375 C 186.277344 266.28125 185.5 267.15625 184.65625 267.964844 C 183.808594 268.773438 182.898438 269.507812 181.929688 270.164062 C 180.960938 270.820312 179.941406 271.394531 178.878906 271.882812 C 177.8125 272.367188 176.714844 272.765625 175.585938 273.070312 C 174.453125 273.375 173.304688 273.582031 172.140625 273.695312 C 170.585938 273.898438 169.027344 273.917969 167.464844 273.757812 C 165.90625 273.597656 164.382812 273.257812 162.902344 272.742188 C 161.417969 272.226562 160.015625 271.546875 158.691406 270.703125 C 157.367188 269.863281 156.15625 268.878906 155.0625 267.753906 C 151.457031 264.179688 148.214844 260.207031 144.355469 255.90625 C 141.003906 259.476562 138.710938 262.210938 136.164062 264.691406 C 135.449219 265.445312 134.683594 266.140625 133.867188 266.777344 C 133.050781 267.417969 132.191406 267.988281 131.289062 268.5 C 130.386719 269.007812 129.449219 269.449219 128.480469 269.816406 C 127.511719 270.183594 126.523438 270.480469 125.511719 270.699219 C 124.496094 270.917969 123.472656 271.0625 122.441406 271.128906 C 121.40625 271.195312 120.375 271.183594 119.339844 271.09375 C 118.308594 271.003906 117.289062 270.839844 116.28125 270.597656 C 115.273438 270.355469 114.289062 270.039062 113.328125 269.648438 C 112.410156 269.347656 111.519531 268.976562 110.65625 268.542969 C 109.792969 268.109375 108.96875 267.613281 108.175781 267.058594 C 107.386719 266.503906 106.640625 265.890625 105.9375 265.226562 C 105.238281 264.558594 104.589844 263.847656 103.992188 263.085938 C 103.398438 262.324219 102.859375 261.523438 102.382812 260.683594 C 101.902344 259.84375 101.488281 258.972656 101.136719 258.070312 C 100.789062 257.167969 100.503906 256.246094 100.289062 255.304688 C 100.074219 254.359375 99.929688 253.40625 99.855469 252.441406 C 99.527344 249.597656 98.617188 248.757812 95.921875 248.46875 C 94.757812 248.355469 93.609375 248.140625 92.480469 247.832031 C 91.351562 247.519531 90.257812 247.117188 89.199219 246.621094 C 88.140625 246.121094 87.128906 245.539062 86.167969 244.867188 C 85.207031 244.195312 84.3125 243.449219 83.480469 242.625 C 82.648438 241.800781 81.890625 240.914062 81.207031 239.960938 C 80.527344 239.007812 79.933594 238.003906 79.421875 236.949219 C 78.914062 235.894531 78.496094 234.800781 78.171875 233.675781 C 77.851562 232.550781 77.625 231.402344 77.496094 230.238281 C 77.351562 229.035156 77.167969 227.871094 76.988281 226.777344 C 63.074219 225.535156 55.792969 217.988281 54.628906 204.574219 C 54.25 204.4375 53.863281 204.351562 53.460938 204.320312 C 52.21875 204.289062 50.988281 204.15625 49.769531 203.910156 C 48.550781 203.667969 47.363281 203.320312 46.203125 202.871094 C 45.046875 202.417969 43.933594 201.871094 42.871094 201.222656 C 41.808594 200.578125 40.808594 199.847656 39.875 199.027344 C 38.941406 198.207031 38.082031 197.308594 37.304688 196.339844 C 36.527344 195.371094 35.835938 194.339844 35.238281 193.25 C 34.640625 192.160156 34.140625 191.023438 33.738281 189.847656 C 33.339844 188.667969 33.042969 187.464844 32.851562 186.234375 C 32.460938 185.085938 31.816406 184.101562 30.921875 183.28125 C 23.488281 175.949219 17.40625 167.625 12.675781 158.308594 C 8.203125 149.117188 5.265625 139.457031 3.863281 129.328125 C 3.316406 121.671875 1.605469 88.238281 24.984375 61.882812 C 29.667969 56.800781 34.855469 52.296875 40.546875 48.378906 C 46.238281 44.460938 52.289062 41.21875 58.707031 38.660156 C 91.515625 25.496094 122.03125 31.835938 149.308594 53.789062 C 149.484375 53.742188 149.652344 53.679688 149.816406 53.605469 C 150.183594 53.359375 150.539062 53.089844 150.875 52.804688 C 153.527344 50.539062 156.304688 48.441406 159.210938 46.511719 C 162.117188 44.585938 165.128906 42.839844 168.246094 41.277344 C 171.363281 39.714844 174.5625 38.347656 177.847656 37.175781 C 181.132812 36.003906 184.472656 35.035156 187.875 34.269531 C 191.277344 33.503906 194.710938 32.945312 198.179688 32.597656 C 201.648438 32.25 205.125 32.113281 208.613281 32.1875 C 212.097656 32.265625 215.566406 32.550781 219.015625 33.046875 C 222.46875 33.542969 225.875 34.246094 229.242188 35.160156 C 236.085938 36.808594 242.605469 39.3125 248.796875 42.667969 C 255.558594 46.429688 261.710938 51.007812 267.257812 56.40625 C 272.804688 61.804688 277.550781 67.835938 281.496094 74.496094 C 282.625 76.355469 298.648438 103.371094 294.570312 131.1875 Z M 294.570312 131.1875 " fill-opacity="1" fill-rule="nonzero"/><path fill="#13508b" d="M 281.496094 74.488281 C 277.550781 67.828125 272.804688 61.796875 267.257812 56.398438 C 261.710938 51 255.558594 46.421875 248.796875 42.660156 C 242.605469 39.304688 236.085938 36.804688 229.242188 35.160156 C 225.875 34.246094 222.46875 33.542969 219.015625 33.046875 C 215.566406 32.550781 212.097656 32.265625 208.613281 32.1875 C 205.125 32.113281 201.648438 32.25 198.179688 32.597656 C 194.710938 32.945312 191.277344 33.503906 187.875 34.269531 C 184.472656 35.035156 181.132812 36.003906 177.847656 37.175781 C 174.5625 38.347656 171.363281 39.714844 168.246094 41.277344 C 165.128906 42.839844 162.117188 44.585938 159.210938 46.511719 C 156.304688 48.441406 153.527344 50.539062 150.875 52.804688 C 150.539062 53.089844 150.183594 53.359375 149.816406 53.605469 C 149.652344 53.679688 149.484375 53.742188 149.308594 53.789062 C 122.03125 31.835938 91.515625 25.496094 58.707031 38.660156 C 52.289062 41.21875 46.238281 44.460938 40.546875 48.378906 C 34.855469 52.296875 29.667969 56.800781 24.984375 61.882812 C 1.605469 88.238281 3.316406 121.671875 3.863281 129.328125 C 5.265625 139.457031 8.203125 149.117188 12.675781 158.308594 C 17.40625 167.625 23.488281 175.949219 30.921875 183.28125 C 31.816406 184.101562 32.460938 185.085938 32.851562 186.234375 C 33.042969 187.464844 33.335938 188.667969 33.738281 189.847656 C 34.140625 191.023438 34.640625 192.160156 35.238281 193.25 C 35.835938 194.339844 36.527344 195.371094 37.304688 196.339844 C 38.082031 197.308594 38.941406 198.207031 39.875 199.027344 C 40.808594 199.847656 41.808594 200.578125 42.871094 201.222656 C 43.933594 201.871094 45.046875 202.417969 46.203125 202.871094 C 47.363281 203.320312 48.550781 203.667969 49.769531 203.910156 C 50.988281 204.15625 52.21875 204.289062 53.460938 204.320312 C 53.863281 204.351562 54.25 204.4375 54.628906 204.574219 C 55.792969 217.988281 63.074219 225.535156 76.988281 226.777344 C 77.167969 227.871094 77.351562 229.035156 77.496094 230.238281 C 77.625 231.402344 77.851562 232.550781 78.171875 233.675781 C 78.496094 234.800781 78.914062 235.894531 79.421875 236.949219 C 79.933594 238.003906 80.527344 239.007812 81.207031 239.960938 C 81.890625 240.914062 82.648438 241.800781 83.480469 242.625 C 84.3125 243.449219 85.207031 244.195312 86.167969 244.867188 C 87.128906 245.539062 88.140625 246.121094 89.199219 246.621094 C 90.257812 247.117188 91.351562 247.519531 92.480469 247.832031 C 93.609375 248.140625 94.757812 248.355469 95.921875 248.46875 C 98.617188 248.757812 99.527344 249.597656 99.855469 252.441406 C 99.929688 253.40625 100.074219 254.359375 100.289062 255.304688 C 100.503906 256.246094 100.789062 257.167969 101.136719 258.070312 C 101.488281 258.972656 101.902344 259.84375 102.382812 260.683594 C 102.859375 261.523438 103.398438 262.324219 103.992188 263.085938 C 104.589844 263.847656 105.238281 264.558594 105.9375 265.226562 C 106.640625 265.890625 107.386719 266.503906 108.175781 267.058594 C 108.96875 267.613281 109.792969 268.109375 110.65625 268.542969 C 111.519531 268.976562 112.410156 269.347656 113.328125 269.648438 C 114.289062 270.039062 115.273438 270.355469 116.28125 270.597656 C 117.289062 270.839844 118.308594 271.003906 119.339844 271.09375 C 120.375 271.183594 121.40625 271.195312 122.441406 271.128906 C 123.472656 271.0625 124.496094 270.917969 125.511719 270.699219 C 126.523438 270.480469 127.511719 270.183594 128.480469 269.816406 C 129.449219 269.449219 130.386719 269.007812 131.289062 268.5 C 132.191406 267.988281 133.050781 267.417969 133.867188 266.777344 C 134.683594 266.140625 135.449219 265.445312 136.160156 264.691406 C 138.710938 262.210938 141.003906 259.476562 144.355469 255.90625 C 148.214844 260.207031 151.457031 264.179688 155.0625 267.753906 C 156.15625 268.878906 157.367188 269.863281 158.691406 270.703125 C 160.015625 271.546875 161.417969 272.226562 162.902344 272.742188 C 164.382812 273.257812 165.90625 273.597656 167.464844 273.757812 C 169.027344 273.917969 170.585938 273.898438 172.140625 273.695312 C 173.304688 273.582031 174.453125 273.375 175.585938 273.070312 C 176.714844 272.765625 177.8125 272.367188 178.878906 271.882812 C 179.941406 271.394531 180.960938 270.820312 181.929688 270.164062 C 182.898438 269.507812 183.808594 268.773438 184.652344 267.964844 C 185.5 267.15625 186.277344 266.28125 186.976562 265.34375 C 187.679688 264.40625 188.300781 263.414062 188.835938 262.375 C 189.375 261.332031 189.820312 260.253906 190.179688 259.136719 C 190.535156 258.019531 190.800781 256.882812 190.96875 255.722656 C 191.1875 254.410156 191.332031 253.097656 191.441406 252.296875 C 195.304688 251.363281 199.066406 250.125 202.730469 248.578125 C 204.308594 247.78125 205.753906 246.792969 207.070312 245.613281 C 208.386719 244.433594 209.527344 243.105469 210.488281 241.621094 C 211.453125 240.136719 212.207031 238.554688 212.75 236.871094 C 213.292969 235.1875 213.605469 233.464844 213.691406 231.699219 C 213.800781 231.128906 214.042969 230.621094 214.410156 230.175781 C 214.777344 229.730469 215.230469 229.398438 215.765625 229.183594 C 228.695312 226.996094 234.191406 221.417969 236.085938 208.21875 C 236.15625 207.878906 236.265625 207.550781 236.414062 207.234375 C 238.839844 206.992188 241.207031 206.480469 243.515625 205.703125 C 243.699219 205.632812 243.914062 205.523438 244.132812 205.414062 C 245.53125 204.894531 246.863281 204.25 248.140625 203.480469 C 248.359375 203.371094 248.578125 203.226562 248.757812 203.117188 C 248.941406 203.007812 249.195312 202.898438 249.414062 202.75 C 249.527344 202.640625 249.648438 202.546875 249.777344 202.460938 C 250.214844 202.132812 250.652344 201.839844 251.054688 201.476562 C 252.324219 200.492188 253.476562 199.382812 254.511719 198.15625 C 255.515625 196.886719 256.402344 195.539062 257.171875 194.109375 C 261.46875 189.296875 266.238281 184.960938 270.644531 180.257812 C 276.886719 173.957031 281.933594 166.808594 285.792969 158.820312 C 290.121094 150.054688 293.046875 140.84375 294.570312 131.1875 C 298.648438 103.371094 282.625 76.355469 281.496094 74.488281 Z M 60.601562 190.464844 C 60.136719 190.890625 59.636719 191.265625 59.097656 191.597656 C 58.5625 191.925781 58 192.199219 57.410156 192.421875 C 56.824219 192.644531 56.21875 192.804688 55.597656 192.910156 C 54.976562 193.015625 54.351562 193.058594 53.722656 193.046875 C 53.09375 193.03125 52.472656 192.953125 51.859375 192.820312 C 51.246094 192.6875 50.648438 192.492188 50.070312 192.246094 C 49.492188 191.996094 48.945312 191.695312 48.425781 191.339844 C 47.90625 190.984375 47.421875 190.582031 46.980469 190.136719 C 46.507812 189.699219 46.082031 189.222656 45.703125 188.699219 C 45.324219 188.179688 45.003906 187.625 44.734375 187.039062 C 44.46875 186.453125 44.261719 185.847656 44.117188 185.21875 C 43.96875 184.59375 43.886719 183.957031 43.867188 183.3125 C 43.851562 182.667969 43.894531 182.03125 44.003906 181.394531 C 44.113281 180.761719 44.285156 180.140625 44.519531 179.542969 C 44.75 178.941406 45.039062 178.371094 45.386719 177.828125 C 45.734375 177.285156 46.132812 176.78125 46.578125 176.320312 C 49.925781 172.582031 53.46875 169.046875 57.214844 165.710938 C 59.113281 164.445312 61.140625 163.4375 63.292969 162.683594 C 64.3125 162.71875 65.308594 162.886719 66.277344 163.195312 C 67.25 163.503906 68.160156 163.9375 69.011719 164.496094 C 69.863281 165.054688 70.621094 165.722656 71.289062 166.492188 C 71.957031 167.261719 72.507812 168.105469 72.945312 169.027344 C 73.398438 169.871094 73.707031 170.765625 73.875 171.707031 C 74.042969 172.648438 74.058594 173.59375 73.925781 174.542969 C 73.789062 175.488281 73.511719 176.390625 73.089844 177.25 C 72.667969 178.109375 72.121094 178.878906 71.453125 179.5625 C 67.992188 183.355469 64.386719 187.039062 60.601562 190.464844 Z M 82.8125 212.777344 C 82.097656 213.453125 81.292969 214.003906 80.402344 214.425781 C 79.511719 214.851562 78.578125 215.125 77.597656 215.253906 C 76.621094 215.378906 75.648438 215.355469 74.679688 215.175781 C 73.710938 214.992188 72.792969 214.667969 71.925781 214.199219 C 70.96875 213.730469 70.105469 213.125 69.335938 212.386719 C 68.566406 211.648438 67.925781 210.8125 67.417969 209.875 C 66.910156 208.9375 66.554688 207.945312 66.355469 206.894531 C 66.152344 205.847656 66.117188 204.792969 66.242188 203.734375 C 66.917969 201.863281 67.828125 200.113281 68.976562 198.484375 C 72.15625 194.902344 75.515625 191.5 79.0625 188.277344 C 79.523438 187.832031 80.023438 187.433594 80.5625 187.082031 C 81.101562 186.730469 81.664062 186.433594 82.257812 186.191406 C 82.851562 185.945312 83.464844 185.757812 84.09375 185.628906 C 84.722656 185.503906 85.359375 185.433594 86 185.425781 C 86.640625 185.417969 87.277344 185.46875 87.910156 185.582031 C 88.542969 185.691406 89.160156 185.863281 89.757812 186.089844 C 90.359375 186.320312 90.933594 186.601562 91.480469 186.941406 C 92.023438 187.277344 92.535156 187.660156 93.007812 188.09375 C 93.5 188.535156 93.945312 189.019531 94.335938 189.550781 C 94.730469 190.078125 95.066406 190.644531 95.34375 191.242188 C 95.621094 191.839844 95.839844 192.460938 95.992188 193.101562 C 96.144531 193.746094 96.230469 194.394531 96.25 195.054688 C 96.269531 195.714844 96.226562 196.371094 96.113281 197.019531 C 96 197.671875 95.824219 198.304688 95.582031 198.917969 C 95.339844 199.53125 95.039062 200.117188 94.679688 200.667969 C 94.320312 201.222656 93.910156 201.734375 93.445312 202.203125 C 90.082031 205.910156 86.539062 209.433594 82.8125 212.777344 Z M 105.902344 234.433594 C 105.433594 234.914062 104.921875 235.34375 104.371094 235.722656 C 103.820312 236.105469 103.234375 236.425781 102.617188 236.691406 C 102.003906 236.953125 101.367188 237.15625 100.710938 237.292969 C 100.054688 237.433594 99.390625 237.503906 98.722656 237.511719 C 98.050781 237.519531 97.386719 237.460938 96.726562 237.335938 C 96.070312 237.210938 95.429688 237.019531 94.808594 236.769531 C 94.1875 236.519531 93.59375 236.207031 93.035156 235.839844 C 92.476562 235.46875 91.957031 235.050781 91.480469 234.578125 C 91.003906 234.105469 90.582031 233.589844 90.210938 233.03125 C 89.84375 232.472656 89.53125 231.882812 89.277344 231.261719 C 89.027344 230.640625 88.839844 230 88.714844 229.34375 C 88.59375 228.683594 88.535156 228.019531 88.546875 227.347656 C 88.554688 226.679688 88.632812 226.015625 88.777344 225.363281 C 88.917969 224.707031 89.125 224.074219 89.398438 223.460938 C 89.667969 222.847656 89.996094 222.269531 90.386719 221.722656 C 90.773438 221.175781 91.210938 220.671875 91.699219 220.214844 C 94.832031 216.894531 98.035156 213.613281 101.386719 210.550781 C 102.082031 209.820312 102.875 209.214844 103.765625 208.734375 C 104.65625 208.253906 105.597656 207.921875 106.59375 207.742188 C 107.589844 207.5625 108.585938 207.542969 109.589844 207.679688 C 110.589844 207.816406 111.546875 208.105469 112.457031 208.546875 C 116.460938 210.332031 118.171875 213.613281 118.574219 219.082031 C 117.707031 221.167969 116.613281 223.121094 115.296875 224.953125 C 112.328125 228.277344 109.195312 231.4375 105.902344 234.433594 Z M 137.945312 246.828125 C 134.746094 250.394531 131.347656 253.761719 127.75 256.925781 C 126.03125 258.164062 124.171875 259.132812 122.179688 259.84375 C 121.152344 259.933594 120.132812 259.878906 119.121094 259.667969 C 118.109375 259.460938 117.148438 259.109375 116.242188 258.617188 C 115.335938 258.121094 114.519531 257.507812 113.792969 256.773438 C 113.066406 256.039062 112.464844 255.214844 111.980469 254.300781 C 111.5 253.5 111.148438 252.644531 110.9375 251.734375 C 110.722656 250.824219 110.652344 249.902344 110.726562 248.96875 C 110.800781 248.039062 111.019531 247.140625 111.375 246.277344 C 111.734375 245.410156 112.214844 244.625 112.820312 243.910156 C 116.476562 239.707031 120.394531 235.773438 124.582031 232.097656 C 125.0625 231.6875 125.578125 231.328125 126.128906 231.019531 C 126.679688 230.714844 127.253906 230.460938 127.855469 230.265625 C 128.457031 230.074219 129.070312 229.9375 129.699219 229.867188 C 130.324219 229.792969 130.953125 229.78125 131.582031 229.832031 C 132.210938 229.882812 132.828125 229.996094 133.4375 230.167969 C 134.042969 230.339844 134.628906 230.570312 135.191406 230.859375 C 135.75 231.148438 136.28125 231.488281 136.773438 231.878906 C 137.269531 232.273438 137.71875 232.710938 138.128906 233.191406 C 138.550781 233.65625 138.929688 234.152344 139.257812 234.6875 C 139.589844 235.222656 139.867188 235.78125 140.089844 236.367188 C 140.3125 236.957031 140.480469 237.558594 140.589844 238.175781 C 140.699219 238.792969 140.75 239.417969 140.742188 240.046875 C 140.730469 240.671875 140.664062 241.296875 140.539062 241.910156 C 140.414062 242.527344 140.230469 243.125 139.992188 243.703125 C 139.75 244.285156 139.460938 244.835938 139.117188 245.363281 C 138.773438 245.886719 138.382812 246.375 137.945312 246.828125 Z M 244.023438 192.761719 C 243.054688 193.714844 241.9375 194.441406 240.675781 194.949219 C 240.578125 194.992188 240.484375 195.027344 240.382812 195.058594 C 239.367188 195.359375 238.328125 195.515625 237.269531 195.515625 C 236.210938 195.519531 235.171875 195.371094 234.152344 195.074219 C 233.136719 194.777344 232.183594 194.339844 231.289062 193.769531 C 230.398438 193.195312 229.605469 192.507812 228.914062 191.703125 C 214.417969 177.304688 200.035156 162.867188 185.578125 148.464844 C 185.105469 147.992188 184.667969 147.480469 184.15625 147.042969 C 183.886719 146.761719 183.589844 146.511719 183.265625 146.289062 C 182.945312 146.066406 182.601562 145.875 182.242188 145.722656 C 181.882812 145.566406 181.511719 145.449219 181.128906 145.367188 C 180.746094 145.289062 180.359375 145.246094 179.96875 145.242188 C 179.574219 145.238281 179.1875 145.273438 178.804688 145.347656 C 178.417969 145.421875 178.046875 145.53125 177.683594 145.683594 C 177.320312 145.832031 176.976562 146.011719 176.648438 146.230469 C 176.324219 146.449219 176.023438 146.695312 175.746094 146.972656 C 175.492188 147.253906 175.269531 147.558594 175.074219 147.882812 C 174.882812 148.210938 174.722656 148.550781 174.597656 148.910156 C 174.472656 149.269531 174.382812 149.636719 174.332031 150.011719 C 174.28125 150.386719 174.265625 150.765625 174.289062 151.144531 C 174.3125 151.523438 174.375 151.894531 174.472656 152.261719 C 174.570312 152.628906 174.703125 152.980469 174.875 153.320312 C 175.042969 153.660156 175.242188 153.980469 175.476562 154.28125 C 175.707031 154.582031 175.96875 154.855469 176.253906 155.101562 C 180.1875 159.183594 184.304688 163.160156 188.308594 167.167969 C 199.488281 178.359375 210.667969 189.554688 221.847656 200.746094 C 222.234375 201.132812 222.585938 201.546875 222.90625 201.988281 C 223.226562 202.433594 223.507812 202.898438 223.75 203.386719 C 223.992188 203.878906 224.195312 204.382812 224.355469 204.90625 C 224.515625 205.429688 224.632812 205.960938 224.707031 206.5 C 224.78125 207.042969 224.808594 207.585938 224.792969 208.132812 C 224.777344 208.679688 224.71875 209.222656 224.613281 209.757812 C 224.511719 210.292969 224.363281 210.820312 224.175781 211.332031 C 223.984375 211.84375 223.757812 212.335938 223.488281 212.8125 C 223.230469 213.277344 222.9375 213.71875 222.605469 214.136719 C 222.277344 214.554688 221.914062 214.941406 221.523438 215.296875 C 221.128906 215.65625 220.707031 215.976562 220.261719 216.265625 C 219.816406 216.554688 219.347656 216.804688 218.859375 217.015625 C 218.375 217.226562 217.871094 217.398438 217.355469 217.523438 C 216.839844 217.652344 216.320312 217.738281 215.789062 217.78125 C 215.261719 217.824219 214.730469 217.824219 214.203125 217.777344 C 213.671875 217.734375 213.148438 217.648438 212.636719 217.515625 C 210.476562 216.917969 208.609375 215.824219 207.027344 214.234375 C 192.425781 199.835938 177.929688 185.324219 163.402344 170.851562 C 162.792969 170.207031 162.148438 169.597656 161.472656 169.027344 C 161.207031 168.777344 160.917969 168.554688 160.609375 168.359375 C 160.300781 168.160156 159.976562 167.996094 159.636719 167.863281 C 159.296875 167.730469 158.945312 167.632812 158.585938 167.566406 C 158.226562 167.503906 157.863281 167.472656 157.496094 167.476562 C 157.132812 167.484375 156.769531 167.523438 156.414062 167.597656 C 156.054688 167.671875 155.707031 167.78125 155.371094 167.921875 C 155.035156 168.066406 154.714844 168.238281 154.410156 168.445312 C 154.109375 168.648438 153.828125 168.878906 153.570312 169.136719 C 153.304688 169.390625 153.070312 169.667969 152.863281 169.96875 C 152.65625 170.269531 152.484375 170.589844 152.34375 170.925781 C 152.199219 171.261719 152.09375 171.609375 152.023438 171.96875 C 151.953125 172.328125 151.921875 172.6875 151.925781 173.054688 C 151.925781 173.417969 151.96875 173.78125 152.046875 174.136719 C 152.121094 174.496094 152.234375 174.839844 152.382812 175.175781 C 152.53125 175.507812 152.710938 175.824219 152.921875 176.121094 C 153.132812 176.417969 153.375 176.691406 153.640625 176.9375 C 158.410156 181.933594 163.363281 186.78125 168.246094 191.667969 C 178.476562 201.914062 188.78125 212.121094 198.980469 222.402344 C 199.46875 222.835938 199.914062 223.316406 200.3125 223.835938 C 200.710938 224.359375 201.058594 224.914062 201.351562 225.5 C 201.644531 226.089844 201.875 226.699219 202.050781 227.332031 C 202.226562 227.964844 202.339844 228.609375 202.394531 229.265625 C 202.445312 229.917969 202.433594 230.574219 202.363281 231.226562 C 202.289062 231.878906 202.15625 232.519531 201.957031 233.144531 C 201.761719 233.773438 201.507812 234.375 201.199219 234.953125 C 200.886719 235.53125 200.523438 236.074219 200.109375 236.582031 C 199.660156 237.121094 199.160156 237.601562 198.609375 238.035156 C 198.058594 238.464844 197.46875 238.835938 196.84375 239.144531 C 196.214844 239.453125 195.5625 239.691406 194.882812 239.863281 C 194.207031 240.03125 193.515625 240.128906 192.820312 240.15625 C 192.121094 240.183594 191.425781 240.132812 190.738281 240.015625 C 190.050781 239.894531 189.378906 239.703125 188.730469 239.445312 C 188.082031 239.183594 187.46875 238.859375 186.886719 238.46875 C 186.308594 238.078125 185.773438 237.632812 185.285156 237.128906 C 178.003906 230.058594 170.902344 222.800781 163.65625 215.691406 C 160.597656 212.628906 157.429688 209.640625 154.261719 206.652344 C 153.824219 206.25 153.386719 205.886719 152.949219 205.558594 L 135.46875 188.058594 C 135.214844 187.820312 134.9375 187.605469 134.640625 187.421875 C 134.34375 187.234375 134.03125 187.078125 133.703125 186.953125 C 133.375 186.828125 133.039062 186.734375 132.695312 186.675781 C 132.347656 186.613281 132 186.585938 131.648438 186.59375 C 131.300781 186.597656 130.953125 186.636719 130.609375 186.710938 C 130.265625 186.785156 129.933594 186.890625 129.613281 187.027344 C 129.289062 187.164062 128.980469 187.328125 128.691406 187.527344 C 128.402344 187.722656 128.132812 187.945312 127.882812 188.191406 C 127.636719 188.441406 127.414062 188.710938 127.21875 189 C 127.023438 189.292969 126.855469 189.597656 126.71875 189.921875 C 126.582031 190.246094 126.476562 190.578125 126.402344 190.921875 C 126.332031 191.265625 126.292969 191.613281 126.285156 191.964844 C 126.277344 192.3125 126.304688 192.664062 126.367188 193.007812 C 126.425781 193.351562 126.519531 193.691406 126.644531 194.019531 C 126.773438 194.34375 126.925781 194.65625 127.113281 194.957031 C 127.296875 195.253906 127.511719 195.53125 127.75 195.789062 L 145.121094 213.214844 C 145.476562 213.734375 145.878906 214.222656 146.320312 214.671875 C 156.300781 224.699219 166.351562 234.652344 176.363281 244.675781 C 176.65625 244.917969 176.933594 245.171875 177.195312 245.445312 C 177.457031 245.71875 177.703125 246.003906 177.933594 246.304688 C 178.164062 246.601562 178.378906 246.914062 178.574219 247.238281 C 178.769531 247.5625 178.945312 247.894531 179.105469 248.238281 C 179.261719 248.582031 179.398438 248.933594 179.519531 249.292969 C 179.636719 249.652344 179.734375 250.015625 179.8125 250.386719 C 179.890625 250.757812 179.945312 251.128906 179.980469 251.507812 C 180.015625 251.882812 180.03125 252.261719 180.023438 252.640625 C 180.015625 253.015625 179.988281 253.394531 179.941406 253.769531 C 179.890625 254.144531 179.820312 254.515625 179.730469 254.882812 C 179.636719 255.25 179.527344 255.609375 179.394531 255.964844 C 179.261719 256.320312 179.113281 256.664062 178.941406 257.003906 C 178.773438 257.339844 178.582031 257.667969 178.375 257.984375 C 178.167969 258.300781 177.945312 258.601562 177.703125 258.894531 C 177.460938 259.183594 177.203125 259.460938 176.933594 259.722656 C 176.660156 259.984375 176.375 260.230469 176.074219 260.460938 C 175.652344 260.804688 175.203125 261.113281 174.730469 261.382812 C 174.257812 261.648438 173.765625 261.875 173.253906 262.0625 C 172.742188 262.246094 172.21875 262.386719 171.683594 262.484375 C 171.148438 262.578125 170.609375 262.628906 170.066406 262.636719 C 169.523438 262.640625 168.980469 262.597656 168.445312 262.511719 C 167.90625 262.425781 167.382812 262.296875 166.867188 262.121094 C 166.351562 261.945312 165.855469 261.726562 165.378906 261.464844 C 164.898438 261.207031 164.449219 260.90625 164.019531 260.570312 C 159.757812 256.816406 155.828125 252.695312 151.855469 248.648438 C 151.558594 248.269531 151.351562 247.84375 151.246094 247.371094 C 151.136719 246.898438 151.132812 246.425781 151.238281 245.953125 C 151.460938 245.167969 151.640625 244.371094 151.773438 243.566406 C 151.90625 242.761719 151.996094 241.949219 152.035156 241.132812 C 152.078125 240.316406 152.074219 239.503906 152.019531 238.6875 C 151.96875 237.871094 151.871094 237.0625 151.726562 236.257812 C 151.582031 235.457031 151.394531 234.664062 151.160156 233.878906 C 150.925781 233.097656 150.648438 232.332031 150.328125 231.582031 C 150.003906 230.832031 149.640625 230.101562 149.238281 229.390625 C 148.832031 228.683594 148.390625 228 147.90625 227.339844 C 147.425781 226.683594 146.90625 226.054688 146.351562 225.453125 C 145.796875 224.855469 145.210938 224.289062 144.59375 223.757812 C 143.972656 223.222656 143.328125 222.730469 142.652344 222.269531 C 141.976562 221.8125 141.277344 221.394531 140.554688 221.015625 C 139.832031 220.636719 139.089844 220.300781 138.328125 220.003906 C 137.570312 219.710938 136.792969 219.460938 136.003906 219.257812 C 135.214844 219.050781 134.414062 218.890625 133.609375 218.777344 C 132.800781 218.664062 131.988281 218.59375 131.171875 218.574219 C 130.777344 218.503906 130.390625 218.40625 130.007812 218.28125 C 128.878906 204.792969 121.488281 197.355469 107.722656 196.117188 C 106.519531 182.589844 99.238281 175.078125 85.835938 173.914062 C 85.1875 170.652344 84.277344 167.46875 83.105469 164.363281 C 82.761719 163.589844 82.375 162.839844 81.941406 162.113281 C 81.511719 161.386719 81.035156 160.691406 80.519531 160.019531 C 80.003906 159.351562 79.453125 158.714844 78.859375 158.113281 C 78.269531 157.511719 77.644531 156.945312 76.984375 156.417969 C 76.324219 155.890625 75.636719 155.402344 74.917969 154.960938 C 74.199219 154.515625 73.457031 154.113281 72.691406 153.757812 C 71.925781 153.402344 71.140625 153.09375 70.339844 152.832031 C 69.535156 152.570312 68.722656 152.355469 67.894531 152.191406 C 67.066406 152.027344 66.230469 151.914062 65.386719 151.851562 C 64.546875 151.789062 63.703125 151.773438 62.859375 151.8125 C 62.015625 151.851562 61.179688 151.9375 60.347656 152.074219 C 59.511719 152.214844 58.691406 152.402344 57.882812 152.636719 C 57.070312 152.875 56.277344 153.160156 55.5 153.492188 C 54.726562 153.824219 53.972656 154.199219 53.238281 154.625 C 52.507812 155.046875 51.804688 155.511719 51.128906 156.015625 C 50.453125 156.523438 49.8125 157.070312 49.203125 157.652344 C 44.429688 161.847656 39.804688 166.222656 34.746094 170.816406 C 32.925781 168.898438 31.21875 166.890625 29.625 164.789062 C 28.027344 162.6875 26.550781 160.503906 25.191406 158.238281 C 23.835938 155.972656 22.605469 153.640625 21.503906 151.238281 C 20.402344 148.839844 19.4375 146.386719 18.605469 143.878906 C 17.773438 141.371094 17.082031 138.828125 16.53125 136.246094 C 15.980469 133.660156 15.570312 131.058594 15.304688 128.429688 C 15.039062 125.800781 14.917969 123.167969 14.941406 120.523438 C 14.964844 117.882812 15.132812 115.253906 15.445312 112.628906 C 19.085938 79.929688 37.113281 57.71875 68.175781 47.144531 C 71.253906 46.113281 74.390625 45.285156 77.578125 44.664062 C 80.769531 44.046875 83.988281 43.640625 87.230469 43.445312 C 90.472656 43.25 93.714844 43.273438 96.957031 43.507812 C 100.199219 43.742188 103.410156 44.191406 106.589844 44.851562 C 109.773438 45.511719 112.898438 46.378906 115.964844 47.449219 C 119.03125 48.523438 122.015625 49.792969 124.914062 51.261719 C 127.8125 52.730469 130.605469 54.382812 133.285156 56.222656 C 135.96875 58.058594 138.515625 60.0625 140.933594 62.238281 C 132.082031 71.097656 123.378906 79.738281 114.75 88.414062 C 111.289062 91.878906 107.722656 95.269531 104.589844 99.023438 C 104.117188 99.597656 103.667969 100.195312 103.25 100.8125 C 102.832031 101.429688 102.445312 102.0625 102.082031 102.71875 C 101.722656 103.371094 101.394531 104.039062 101.097656 104.722656 C 100.800781 105.40625 100.535156 106.101562 100.304688 106.8125 C 100.070312 107.519531 99.871094 108.238281 99.703125 108.964844 C 99.539062 109.691406 99.40625 110.425781 99.308594 111.164062 C 99.210938 111.902344 99.144531 112.644531 99.117188 113.390625 C 99.085938 114.136719 99.09375 114.878906 99.132812 115.625 C 99.171875 116.371094 99.246094 117.109375 99.355469 117.847656 C 99.464844 118.585938 99.609375 119.316406 99.785156 120.042969 C 99.960938 120.765625 100.171875 121.480469 100.414062 122.1875 C 100.65625 122.890625 100.933594 123.582031 101.242188 124.261719 C 101.546875 124.941406 101.886719 125.605469 102.253906 126.253906 C 102.625 126.902344 103.023438 127.53125 103.449219 128.140625 C 103.878906 128.75 104.332031 129.339844 104.816406 129.910156 C 105.296875 130.476562 105.804688 131.023438 106.335938 131.542969 C 106.871094 132.066406 107.425781 132.5625 108.003906 133.035156 C 108.582031 133.503906 109.179688 133.949219 109.796875 134.367188 C 110.417969 134.78125 111.050781 135.167969 111.707031 135.527344 C 112.359375 135.886719 113.03125 136.210938 113.714844 136.507812 C 114.398438 136.804688 115.09375 137.066406 115.804688 137.300781 C 116.511719 137.53125 117.230469 137.730469 117.957031 137.894531 C 118.683594 138.0625 119.417969 138.195312 120.15625 138.292969 C 120.894531 138.390625 121.636719 138.457031 122.382812 138.484375 C 123.125 138.515625 123.871094 138.511719 124.613281 138.472656 C 125.359375 138.433594 126.101562 138.359375 126.839844 138.253906 C 127.574219 138.148438 128.308594 138.007812 129.03125 137.832031 C 129.757812 137.660156 130.472656 137.449219 131.179688 137.210938 C 131.882812 136.972656 132.578125 136.699219 133.257812 136.394531 C 133.9375 136.089844 134.605469 135.757812 135.253906 135.390625 C 135.90625 135.027344 136.535156 134.632812 137.148438 134.207031 C 137.765625 133.785156 138.355469 133.332031 138.929688 132.855469 C 142.898438 129.355469 158.921875 113.679688 169.226562 103.617188 C 190.09375 124.40625 226.984375 161.253906 243.332031 177.660156 C 243.894531 178.105469 244.40625 178.601562 244.859375 179.15625 C 245.316406 179.710938 245.707031 180.304688 246.035156 180.945312 C 246.363281 181.582031 246.617188 182.246094 246.800781 182.9375 C 246.984375 183.632812 247.09375 184.335938 247.128906 185.054688 C 247.160156 185.769531 247.117188 186.480469 246.996094 187.1875 C 246.875 187.894531 246.683594 188.582031 246.414062 189.246094 C 246.148438 189.910156 245.8125 190.539062 245.410156 191.132812 C 245.007812 191.726562 244.542969 192.269531 244.023438 192.761719 Z M 283.644531 124.84375 C 283.058594 131.1875 281.75 137.378906 279.710938 143.414062 C 277.675781 149.453125 274.96875 155.167969 271.589844 160.570312 C 269.585938 163.601562 267.425781 166.519531 265.109375 169.320312 C 262.816406 172.128906 260.484375 174.789062 258.335938 177.484375 C 255.203125 174.207031 252.21875 171.035156 249.269531 167.933594 C 249.269531 167.933594 245.042969 163.558594 240.492188 158.855469 C 233.902344 152.113281 206.589844 124.769531 169.226562 87.730469 C 162.089844 94.910156 137.328125 119.046875 132.449219 123.640625 C 131.90625 124.167969 131.324219 124.644531 130.699219 125.066406 C 130.078125 125.492188 129.421875 125.859375 128.730469 126.167969 C 128.042969 126.476562 127.332031 126.722656 126.597656 126.90625 C 125.867188 127.089844 125.125 127.207031 124.371094 127.257812 C 123.617188 127.308594 122.867188 127.292969 122.117188 127.210938 C 121.367188 127.128906 120.628906 126.984375 119.902344 126.769531 C 119.179688 126.558594 118.480469 126.285156 117.800781 125.949219 C 117.125 125.613281 116.484375 125.21875 115.878906 124.769531 C 115.484375 124.492188 115.109375 124.191406 114.746094 123.871094 C 114.386719 123.550781 114.046875 123.210938 113.722656 122.855469 C 113.398438 122.496094 113.097656 122.121094 112.816406 121.730469 C 112.535156 121.335938 112.277344 120.929688 112.039062 120.507812 C 111.804688 120.089844 111.59375 119.65625 111.40625 119.210938 C 111.21875 118.765625 111.054688 118.3125 110.917969 117.851562 C 110.78125 117.390625 110.667969 116.921875 110.582031 116.445312 C 110.496094 115.96875 110.4375 115.492188 110.40625 115.011719 C 110.375 114.53125 110.371094 114.046875 110.390625 113.566406 C 110.410156 113.082031 110.460938 112.605469 110.535156 112.128906 C 110.609375 111.652344 110.710938 111.179688 110.835938 110.714844 C 110.964844 110.25 111.117188 109.792969 111.292969 109.34375 C 111.472656 108.894531 111.675781 108.457031 111.902344 108.03125 C 112.128906 107.605469 112.375 107.195312 112.648438 106.796875 C 112.921875 106.398438 113.214844 106.015625 113.53125 105.648438 C 113.84375 105.285156 114.179688 104.9375 114.53125 104.609375 C 125.054688 94 135.726562 83.535156 146.25 72.964844 C 153.203125 65.175781 161.164062 58.613281 170.136719 53.277344 C 175.71875 50.21875 181.578125 47.863281 187.722656 46.207031 C 193.867188 44.554688 200.121094 43.652344 206.480469 43.5 C 212.730469 43.667969 218.898438 44.472656 224.984375 45.914062 C 231.070312 47.359375 236.941406 49.410156 242.605469 52.066406 C 246.808594 53.953125 250.730469 56.3125 254.367188 59.140625 C 257.167969 61.351562 259.777344 63.769531 262.195312 66.394531 C 264.648438 68.925781 266.871094 71.648438 268.859375 74.5625 C 271.097656 77.855469 273.113281 81.285156 274.90625 84.84375 C 278.195312 90.972656 280.582031 97.433594 282.066406 104.230469 C 283.550781 111.027344 284.078125 117.898438 283.644531 124.84375 Z M 283.644531 124.84375 " fill-opacity="1" fill-rule="nonzero"/><path fill="#72d6fe" d="M 138.128906 233.191406 C 138.550781 233.65625 138.929688 234.152344 139.257812 234.6875 C 139.589844 235.222656 139.867188 235.78125 140.089844 236.367188 C 140.3125 236.957031 140.480469 237.558594 140.589844 238.175781 C 140.699219 238.792969 140.75 239.417969 140.742188 240.046875 C 140.730469 240.671875 140.664062 241.296875 140.539062 241.910156 C 140.414062 242.527344 140.230469 243.125 139.992188 243.703125 C 139.75 244.285156 139.460938 244.835938 139.117188 245.363281 C 138.773438 245.886719 138.382812 246.375 137.945312 246.828125 C 134.746094 250.394531 131.347656 253.761719 127.75 256.925781 C 126.03125 258.164062 124.171875 259.132812 122.179688 259.84375 C 121.152344 259.933594 120.132812 259.878906 119.121094 259.667969 C 118.109375 259.460938 117.148438 259.109375 116.242188 258.617188 C 115.335938 258.121094 114.519531 257.507812 113.792969 256.773438 C 113.066406 256.039062 112.464844 255.214844 111.980469 254.300781 C 111.5 253.5 111.148438 252.644531 110.9375 251.734375 C 110.722656 250.824219 110.652344 249.902344 110.726562 248.96875 C 110.800781 248.039062 111.019531 247.140625 111.375 246.277344 C 111.734375 245.410156 112.214844 244.625 112.820312 243.910156 C 116.476562 239.707031 120.394531 235.773438 124.582031 232.097656 C 125.0625 231.6875 125.578125 231.328125 126.128906 231.019531 C 126.679688 230.714844 127.253906 230.460938 127.855469 230.265625 C 128.457031 230.074219 129.070312 229.9375 129.699219 229.867188 C 130.324219 229.792969 130.953125 229.78125 131.582031 229.832031 C 132.210938 229.882812 132.828125 229.996094 133.4375 230.167969 C 134.042969 230.339844 134.628906 230.570312 135.191406 230.859375 C 135.75 231.148438 136.28125 231.488281 136.773438 231.878906 C 137.269531 232.273438 137.71875 232.710938 138.128906 233.191406 Z M 93.007812 188.09375 C 92.535156 187.660156 92.023438 187.277344 91.480469 186.941406 C 90.933594 186.601562 90.359375 186.320312 89.757812 186.089844 C 89.160156 185.863281 88.542969 185.691406 87.910156 185.582031 C 87.277344 185.46875 86.640625 185.417969 86 185.425781 C 85.359375 185.433594 84.722656 185.503906 84.09375 185.628906 C 83.464844 185.757812 82.851562 185.945312 82.257812 186.191406 C 81.664062 186.433594 81.101562 186.730469 80.5625 187.082031 C 80.023438 187.433594 79.523438 187.832031 79.0625 188.277344 C 75.515625 191.5 72.15625 194.902344 68.976562 198.484375 C 67.828125 200.113281 66.917969 201.863281 66.242188 203.734375 C 66.117188 204.792969 66.152344 205.847656 66.355469 206.894531 C 66.554688 207.945312 66.910156 208.9375 67.417969 209.875 C 67.925781 210.8125 68.566406 211.648438 69.335938 212.386719 C 70.105469 213.125 70.96875 213.730469 71.925781 214.199219 C 72.792969 214.667969 73.710938 214.992188 74.679688 215.175781 C 75.648438 215.355469 76.621094 215.378906 77.597656 215.253906 C 78.578125 215.125 79.511719 214.851562 80.402344 214.425781 C 81.292969 214.003906 82.097656 213.453125 82.8125 212.777344 C 86.539062 209.433594 90.082031 205.910156 93.445312 202.203125 C 93.910156 201.734375 94.320312 201.222656 94.679688 200.667969 C 95.039062 200.117188 95.339844 199.53125 95.582031 198.917969 C 95.824219 198.304688 96 197.671875 96.113281 197.019531 C 96.226562 196.371094 96.269531 195.714844 96.25 195.054688 C 96.230469 194.394531 96.144531 193.746094 95.992188 193.101562 C 95.839844 192.460938 95.621094 191.839844 95.34375 191.242188 C 95.066406 190.644531 94.730469 190.078125 94.335938 189.550781 C 93.945312 189.019531 93.5 188.535156 93.007812 188.09375 Z M 118.574219 219.082031 C 118.171875 213.613281 116.460938 210.332031 112.457031 208.546875 C 111.546875 208.105469 110.589844 207.816406 109.589844 207.679688 C 108.585938 207.542969 107.589844 207.5625 106.59375 207.742188 C 105.597656 207.921875 104.65625 208.253906 103.765625 208.734375 C 102.875 209.214844 102.082031 209.820312 101.386719 210.550781 C 98.035156 213.613281 94.832031 216.894531 91.699219 220.214844 C 91.210938 220.671875 90.773438 221.175781 90.386719 221.722656 C 89.996094 222.269531 89.667969 222.847656 89.398438 223.460938 C 89.125 224.074219 88.917969 224.707031 88.777344 225.363281 C 88.632812 226.015625 88.554688 226.679688 88.546875 227.347656 C 88.535156 228.019531 88.59375 228.683594 88.714844 229.34375 C 88.839844 230 89.027344 230.640625 89.277344 231.261719 C 89.53125 231.882812 89.84375 232.472656 90.210938 233.03125 C 90.582031 233.589844 91.003906 234.105469 91.480469 234.578125 C 91.957031 235.050781 92.476562 235.46875 93.035156 235.839844 C 93.59375 236.207031 94.1875 236.519531 94.808594 236.769531 C 95.429688 237.019531 96.070312 237.210938 96.726562 237.335938 C 97.386719 237.460938 98.050781 237.519531 98.722656 237.511719 C 99.390625 237.503906 100.054688 237.433594 100.710938 237.292969 C 101.367188 237.15625 102.003906 236.953125 102.617188 236.691406 C 103.234375 236.425781 103.820312 236.105469 104.371094 235.722656 C 104.921875 235.34375 105.433594 234.914062 105.902344 234.433594 C 109.195312 231.4375 112.328125 228.277344 115.296875 224.953125 C 116.613281 223.121094 117.707031 221.167969 118.574219 219.082031 Z M 72.945312 169.027344 C 72.507812 168.105469 71.957031 167.261719 71.289062 166.492188 C 70.621094 165.722656 69.863281 165.054688 69.011719 164.496094 C 68.160156 163.9375 67.25 163.503906 66.277344 163.195312 C 65.308594 162.886719 64.3125 162.71875 63.292969 162.683594 C 61.140625 163.4375 59.113281 164.445312 57.214844 165.710938 C 53.46875 169.046875 49.925781 172.582031 46.578125 176.320312 C 46.132812 176.78125 45.734375 177.285156 45.386719 177.828125 C 45.039062 178.371094 44.75 178.941406 44.519531 179.542969 C 44.285156 180.140625 44.113281 180.761719 44.003906 181.394531 C 43.894531 182.03125 43.851562 182.667969 43.867188 183.3125 C 43.886719 183.957031 43.96875 184.59375 44.117188 185.21875 C 44.261719 185.847656 44.46875 186.453125 44.734375 187.039062 C 45.003906 187.625 45.324219 188.179688 45.703125 188.699219 C 46.082031 189.222656 46.507812 189.699219 46.980469 190.136719 C 47.421875 190.582031 47.90625 190.984375 48.425781 191.339844 C 48.945312 191.695312 49.492188 191.996094 50.070312 192.246094 C 50.648438 192.492188 51.246094 192.6875 51.859375 192.820312 C 52.472656 192.953125 53.09375 193.03125 53.722656 193.046875 C 54.351562 193.058594 54.976562 193.015625 55.597656 192.910156 C 56.21875 192.804688 56.824219 192.644531 57.410156 192.421875 C 58 192.199219 58.5625 191.925781 59.097656 191.597656 C 59.636719 191.265625 60.136719 190.890625 60.601562 190.464844 C 64.386719 187.039062 67.992188 183.355469 71.453125 179.5625 C 72.121094 178.878906 72.667969 178.109375 73.089844 177.25 C 73.511719 176.390625 73.789062 175.488281 73.925781 174.542969 C 74.058594 173.59375 74.042969 172.648438 73.875 171.707031 C 73.707031 170.765625 73.398438 169.871094 72.945312 169.027344 Z M 274.90625 84.847656 C 273.113281 81.292969 271.097656 77.863281 268.859375 74.570312 C 266.871094 71.65625 264.648438 68.933594 262.195312 66.402344 C 259.777344 63.777344 257.167969 61.359375 254.367188 59.148438 C 250.730469 56.320312 246.808594 53.960938 242.605469 52.074219 C 236.945312 49.414062 231.070312 47.363281 224.984375 45.917969 C 218.898438 44.476562 212.730469 43.667969 206.480469 43.5 C 200.121094 43.652344 193.867188 44.554688 187.722656 46.207031 C 181.582031 47.855469 175.71875 50.210938 170.136719 53.269531 C 161.164062 58.605469 153.203125 65.167969 146.25 72.957031 C 135.726562 83.53125 125.054688 93.992188 114.53125 104.601562 C 114.179688 104.929688 113.84375 105.277344 113.527344 105.640625 C 113.214844 106.007812 112.921875 106.390625 112.648438 106.789062 C 112.375 107.1875 112.128906 107.597656 111.902344 108.023438 C 111.675781 108.449219 111.472656 108.886719 111.292969 109.335938 C 111.117188 109.785156 110.964844 110.242188 110.835938 110.707031 C 110.710938 111.171875 110.609375 111.644531 110.535156 112.121094 C 110.460938 112.597656 110.410156 113.078125 110.390625 113.558594 C 110.371094 114.039062 110.375 114.523438 110.40625 115.003906 C 110.4375 115.484375 110.496094 115.964844 110.582031 116.4375 C 110.667969 116.914062 110.78125 117.382812 110.917969 117.84375 C 111.054688 118.308594 111.21875 118.761719 111.40625 119.203125 C 111.59375 119.648438 111.804688 120.082031 112.039062 120.503906 C 112.277344 120.921875 112.535156 121.328125 112.816406 121.722656 C 113.097656 122.113281 113.398438 122.488281 113.722656 122.847656 C 114.046875 123.207031 114.386719 123.542969 114.746094 123.863281 C 115.109375 124.183594 115.484375 124.484375 115.878906 124.761719 C 116.484375 125.210938 117.125 125.605469 117.800781 125.941406 C 118.480469 126.277344 119.179688 126.550781 119.902344 126.761719 C 120.628906 126.976562 121.367188 127.121094 122.117188 127.203125 C 122.867188 127.285156 123.617188 127.300781 124.371094 127.25 C 125.125 127.199219 125.867188 127.082031 126.597656 126.898438 C 127.332031 126.714844 128.042969 126.46875 128.730469 126.160156 C 129.421875 125.851562 130.078125 125.484375 130.699219 125.0625 C 131.324219 124.636719 131.90625 124.160156 132.449219 123.632812 C 137.328125 119.039062 162.089844 94.90625 169.226562 87.722656 C 206.589844 124.761719 233.902344 152.105469 240.492188 158.847656 C 245.042969 163.550781 249.269531 167.925781 249.269531 167.925781 C 252.21875 171.027344 255.203125 174.199219 258.335938 177.480469 C 260.484375 174.78125 262.816406 172.121094 265.109375 169.3125 C 267.425781 166.511719 269.585938 163.59375 271.589844 160.5625 C 274.96875 155.164062 277.675781 149.445312 279.710938 143.40625 C 281.75 137.371094 283.058594 131.179688 283.644531 124.835938 C 284.078125 117.894531 283.550781 111.027344 282.0625 104.230469 C 280.578125 97.4375 278.191406 90.976562 274.90625 84.847656 Z M 274.90625 84.847656 " fill-opacity="1" fill-rule="nonzero"/><path fill="#d7f7ff" d="M 244.023438 192.761719 C 243.054688 193.714844 241.9375 194.441406 240.675781 194.949219 C 240.578125 194.992188 240.484375 195.027344 240.382812 195.058594 C 239.367188 195.359375 238.328125 195.515625 237.269531 195.515625 C 236.210938 195.519531 235.171875 195.371094 234.152344 195.074219 C 233.136719 194.777344 232.183594 194.339844 231.289062 193.769531 C 230.398438 193.195312 229.605469 192.507812 228.914062 191.703125 C 214.417969 177.304688 200.035156 162.867188 185.578125 148.464844 C 185.105469 147.992188 184.667969 147.480469 184.15625 147.042969 C 183.886719 146.761719 183.589844 146.511719 183.265625 146.289062 C 182.945312 146.066406 182.601562 145.875 182.242188 145.722656 C 181.882812 145.566406 181.511719 145.449219 181.128906 145.367188 C 180.746094 145.289062 180.359375 145.246094 179.96875 145.242188 C 179.574219 145.238281 179.1875 145.273438 178.804688 145.347656 C 178.417969 145.421875 178.046875 145.53125 177.683594 145.683594 C 177.320312 145.832031 176.976562 146.011719 176.648438 146.230469 C 176.324219 146.449219 176.023438 146.695312 175.746094 146.972656 C 175.492188 147.253906 175.269531 147.558594 175.074219 147.882812 C 174.882812 148.210938 174.722656 148.550781 174.597656 148.910156 C 174.472656 149.269531 174.382812 149.636719 174.332031 150.011719 C 174.28125 150.386719 174.265625 150.765625 174.289062 151.144531 C 174.3125 151.523438 174.375 151.894531 174.472656 152.261719 C 174.570312 152.628906 174.703125 152.980469 174.875 153.320312 C 175.042969 153.660156 175.242188 153.980469 175.476562 154.28125 C 175.707031 154.582031 175.96875 154.855469 176.253906 155.101562 C 180.1875 159.183594 184.304688 163.160156 188.308594 167.167969 C 199.488281 178.359375 210.667969 189.554688 221.847656 200.746094 C 222.234375 201.132812 222.585938 201.546875 222.90625 201.988281 C 223.226562 202.433594 223.507812 202.898438 223.75 203.386719 C 223.992188 203.878906 224.195312 204.382812 224.355469 204.90625 C 224.515625 205.429688 224.632812 205.960938 224.707031 206.5 C 224.78125 207.042969 224.808594 207.585938 224.792969 208.132812 C 224.777344 208.679688 224.71875 209.222656 224.613281 209.757812 C 224.511719 210.292969 224.363281 210.820312 224.175781 211.332031 C 223.984375 211.84375 223.757812 212.335938 223.488281 212.8125 C 223.230469 213.277344 222.9375 213.71875 222.605469 214.136719 C 222.277344 214.554688 221.914062 214.941406 221.523438 215.296875 C 221.128906 215.65625 220.707031 215.976562 220.261719 216.265625 C 219.816406 216.554688 219.347656 216.804688 218.859375 217.015625 C 218.375 217.226562 217.871094 217.398438 217.355469 217.523438 C 216.839844 217.652344 216.320312 217.738281 215.789062 217.78125 C 215.261719 217.824219 214.730469 217.824219 214.203125 217.777344 C 213.671875 217.734375 213.148438 217.648438 212.636719 217.515625 C 210.476562 216.917969 208.609375 215.824219 207.027344 214.234375 C 192.425781 199.835938 177.929688 185.324219 163.402344 170.851562 C 162.792969 170.207031 162.148438 169.597656 161.472656 169.027344 C 161.207031 168.777344 160.917969 168.554688 160.609375 168.359375 C 160.300781 168.160156 159.976562 167.996094 159.636719 167.863281 C 159.296875 167.730469 158.945312 167.632812 158.585938 167.566406 C 158.226562 167.503906 157.863281 167.472656 157.496094 167.476562 C 157.132812 167.484375 156.769531 167.523438 156.414062 167.597656 C 156.054688 167.671875 155.707031 167.78125 155.371094 167.921875 C 155.035156 168.066406 154.714844 168.238281 154.410156 168.445312 C 154.109375 168.648438 153.828125 168.878906 153.570312 169.136719 C 153.304688 169.390625 153.070312 169.667969 152.863281 169.96875 C 152.65625 170.269531 152.484375 170.589844 152.34375 170.925781 C 152.199219 171.261719 152.09375 171.609375 152.023438 171.96875 C 151.953125 172.328125 151.921875 172.6875 151.925781 173.054688 C 151.925781 173.417969 151.96875 173.78125 152.046875 174.136719 C 152.121094 174.496094 152.234375 174.839844 152.382812 175.175781 C 152.53125 175.507812 152.710938 175.824219 152.921875 176.121094 C 153.132812 176.417969 153.375 176.691406 153.640625 176.9375 C 158.410156 181.933594 163.363281 186.78125 168.246094 191.667969 C 178.476562 201.914062 188.78125 212.121094 198.980469 222.402344 C 199.46875 222.835938 199.914062 223.316406 200.3125 223.835938 C 200.710938 224.359375 201.058594 224.914062 201.351562 225.5 C 201.644531 226.089844 201.875 226.699219 202.050781 227.332031 C 202.226562 227.964844 202.339844 228.609375 202.394531 229.265625 C 202.445312 229.917969 202.433594 230.574219 202.363281 231.226562 C 202.289062 231.878906 202.15625 232.519531 201.957031 233.144531 C 201.761719 233.773438 201.507812 234.375 201.199219 234.953125 C 200.886719 235.53125 200.523438 236.074219 200.109375 236.582031 C 199.660156 237.121094 199.160156 237.601562 198.609375 238.035156 C 198.058594 238.464844 197.46875 238.835938 196.84375 239.144531 C 196.214844 239.453125 195.5625 239.691406 194.882812 239.863281 C 194.207031 240.03125 193.515625 240.128906 192.820312 240.15625 C 192.121094 240.183594 191.425781 240.132812 190.738281 240.015625 C 190.050781 239.894531 189.378906 239.703125 188.730469 239.445312 C 188.082031 239.183594 187.46875 238.859375 186.886719 238.46875 C 186.308594 238.078125 185.773438 237.632812 185.285156 237.128906 C 178.003906 230.058594 170.902344 222.800781 163.65625 215.691406 C 160.597656 212.628906 157.429688 209.640625 154.261719 206.652344 C 153.824219 206.25 153.386719 205.886719 152.949219 205.558594 L 135.46875 188.058594 C 135.214844 187.820312 134.9375 187.605469 134.640625 187.421875 C 134.34375 187.234375 134.03125 187.078125 133.703125 186.953125 C 133.375 186.828125 133.039062 186.734375 132.695312 186.675781 C 132.347656 186.613281 132 186.585938 131.648438 186.59375 C 131.300781 186.597656 130.953125 186.636719 130.609375 186.710938 C 130.265625 186.785156 129.933594 186.890625 129.613281 187.027344 C 129.289062 187.164062 128.980469 187.328125 128.691406 187.527344 C 128.402344 187.722656 128.132812 187.945312 127.882812 188.191406 C 127.636719 188.441406 127.414062 188.710938 127.21875 189 C 127.023438 189.292969 126.855469 189.597656 126.71875 189.921875 C 126.582031 190.246094 126.476562 190.578125 126.402344 190.921875 C 126.332031 191.265625 126.292969 191.613281 126.285156 191.964844 C 126.277344 192.3125 126.304688 192.664062 126.367188 193.007812 C 126.425781 193.351562 126.519531 193.691406 126.644531 194.019531 C 126.773438 194.34375 126.925781 194.65625 127.113281 194.957031 C 127.296875 195.253906 127.511719 195.53125 127.75 195.789062 L 145.121094 213.214844 C 145.476562 213.734375 145.878906 214.222656 146.320312 214.671875 C 156.300781 224.699219 166.351562 234.652344 176.363281 244.675781 C 176.65625 244.917969 176.933594 245.171875 177.195312 245.445312 C 177.457031 245.71875 177.703125 246.003906 177.933594 246.304688 C 178.164062 246.601562 178.378906 246.914062 178.574219 247.238281 C 178.769531 247.5625 178.945312 247.894531 179.105469 248.238281 C 179.261719 248.582031 179.398438 248.933594 179.519531 249.292969 C 179.636719 249.652344 179.734375 250.015625 179.8125 250.386719 C 179.890625 250.757812 179.945312 251.128906 179.980469 251.507812 C 180.015625 251.882812 180.03125 252.261719 180.023438 252.640625 C 180.015625 253.015625 179.988281 253.394531 179.941406 253.769531 C 179.890625 254.144531 179.820312 254.515625 179.730469 254.882812 C 179.636719 255.25 179.527344 255.609375 179.394531 255.964844 C 179.261719 256.320312 179.113281 256.664062 178.941406 257.003906 C 178.773438 257.339844 178.582031 257.667969 178.375 257.984375 C 178.167969 258.300781 177.945312 258.601562 177.703125 258.894531 C 177.460938 259.183594 177.203125 259.460938 176.933594 259.722656 C 176.660156 259.984375 176.375 260.230469 176.074219 260.460938 C 175.652344 260.804688 175.203125 261.113281 174.730469 261.382812 C 174.257812 261.648438 173.765625 261.875 173.253906 262.0625 C 172.742188 262.246094 172.21875 262.386719 171.683594 262.484375 C 171.148438 262.578125 170.609375 262.628906 170.066406 262.636719 C 169.523438 262.640625 168.980469 262.597656 168.445312 262.511719 C 167.90625 262.425781 167.382812 262.296875 166.867188 262.121094 C 166.351562 261.945312 165.855469 261.726562 165.378906 261.464844 C 164.898438 261.207031 164.449219 260.90625 164.019531 260.570312 C 159.757812 256.816406 155.828125 252.695312 151.855469 248.648438 C 151.558594 248.269531 151.351562 247.84375 151.246094 247.371094 C 151.136719 246.898438 151.132812 246.425781 151.238281 245.953125 C 151.460938 245.167969 151.640625 244.371094 151.773438 243.566406 C 151.90625 242.761719 151.996094 241.949219 152.035156 241.132812 C 152.078125 240.316406 152.074219 239.503906 152.019531 238.6875 C 151.96875 237.871094 151.871094 237.0625 151.726562 236.257812 C 151.582031 235.457031 151.394531 234.664062 151.160156 233.878906 C 150.925781 233.097656 150.648438 232.332031 150.328125 231.582031 C 150.003906 230.832031 149.640625 230.101562 149.238281 229.390625 C 148.832031 228.683594 148.390625 228 147.90625 227.339844 C 147.425781 226.683594 146.90625 226.054688 146.351562 225.453125 C 145.796875 224.855469 145.210938 224.289062 144.59375 223.757812 C 143.972656 223.222656 143.328125 222.730469 142.652344 222.269531 C 141.976562 221.8125 141.277344 221.394531 140.554688 221.015625 C 139.832031 220.636719 139.089844 220.300781 138.328125 220.003906 C 137.570312 219.710938 136.792969 219.460938 136.003906 219.257812 C 135.214844 219.050781 134.414062 218.890625 133.609375 218.777344 C 132.800781 218.664062 131.988281 218.59375 131.171875 218.574219 C 130.777344 218.503906 130.390625 218.40625 130.007812 218.28125 C 128.878906 204.792969 121.488281 197.355469 107.722656 196.117188 C 106.519531 182.589844 99.238281 175.078125 85.835938 173.914062 C 85.1875 170.652344 84.277344 167.46875 83.105469 164.363281 C 82.761719 163.589844 82.375 162.839844 81.941406 162.113281 C 81.511719 161.386719 81.035156 160.691406 80.519531 160.019531 C 80.003906 159.351562 79.453125 158.714844 78.859375 158.113281 C 78.269531 157.511719 77.644531 156.945312 76.984375 156.417969 C 76.324219 155.890625 75.636719 155.402344 74.917969 154.960938 C 74.199219 154.515625 73.457031 154.113281 72.691406 153.757812 C 71.925781 153.402344 71.140625 153.09375 70.339844 152.832031 C 69.535156 152.570312 68.722656 152.355469 67.894531 152.191406 C 67.066406 152.027344 66.230469 151.914062 65.386719 151.851562 C 64.546875 151.789062 63.703125 151.773438 62.859375 151.8125 C 62.015625 151.851562 61.179688 151.9375 60.347656 152.074219 C 59.511719 152.214844 58.691406 152.402344 57.882812 152.636719 C 57.070312 152.875 56.277344 153.160156 55.5 153.492188 C 54.726562 153.824219 53.972656 154.199219 53.238281 154.625 C 52.507812 155.046875 51.804688 155.511719 51.128906 156.015625 C 50.453125 156.523438 49.8125 157.070312 49.203125 157.652344 C 44.429688 161.847656 39.804688 166.222656 34.746094 170.816406 C 32.925781 168.898438 31.21875 166.890625 29.625 164.789062 C 28.027344 162.6875 26.550781 160.503906 25.191406 158.238281 C 23.835938 155.972656 22.605469 153.640625 21.503906 151.238281 C 20.402344 148.839844 19.4375 146.386719 18.605469 143.878906 C 17.773438 141.371094 17.082031 138.828125 16.53125 136.246094 C 15.980469 133.660156 15.570312 131.058594 15.304688 128.429688 C 15.039062 125.800781 14.917969 123.167969 14.941406 120.523438 C 14.964844 117.882812 15.132812 115.253906 15.445312 112.628906 C 19.085938 79.929688 37.113281 57.71875 68.175781 47.144531 C 71.253906 46.113281 74.390625 45.285156 77.578125 44.664062 C 80.769531 44.046875 83.988281 43.640625 87.230469 43.445312 C 90.472656 43.25 93.714844 43.273438 96.957031 43.507812 C 100.199219 43.742188 103.410156 44.191406 106.589844 44.851562 C 109.773438 45.511719 112.898438 46.378906 115.964844 47.449219 C 119.03125 48.523438 122.015625 49.792969 124.914062 51.261719 C 127.8125 52.730469 130.605469 54.382812 133.285156 56.222656 C 135.96875 58.058594 138.515625 60.0625 140.933594 62.238281 C 132.082031 71.097656 123.378906 79.738281 114.75 88.414062 C 111.289062 91.878906 107.722656 95.269531 104.589844 99.023438 C 104.117188 99.597656 103.667969 100.195312 103.25 100.8125 C 102.832031 101.429688 102.445312 102.0625 102.082031 102.71875 C 101.722656 103.371094 101.394531 104.039062 101.097656 104.722656 C 100.800781 105.40625 100.535156 106.101562 100.304688 106.8125 C 100.070312 107.519531 99.871094 108.238281 99.703125 108.964844 C 99.539062 109.691406 99.40625 110.425781 99.308594 111.164062 C 99.210938 111.902344 99.144531 112.644531 99.117188 113.390625 C 99.085938 114.136719 99.09375 114.878906 99.132812 115.625 C 99.171875 116.371094 99.246094 117.109375 99.355469 117.847656 C 99.464844 118.585938 99.609375 119.316406 99.785156 120.042969 C 99.960938 120.765625 100.171875 121.480469 100.414062 122.1875 C 100.65625 122.890625 100.933594 123.582031 101.242188 124.261719 C 101.546875 124.941406 101.886719 125.605469 102.253906 126.253906 C 102.625 126.902344 103.023438 127.53125 103.449219 128.140625 C 103.878906 128.75 104.332031 129.339844 104.816406 129.910156 C 105.296875 130.476562 105.804688 131.023438 106.335938 131.542969 C 106.871094 132.066406 107.425781 132.5625 108.003906 133.035156 C 108.582031 133.503906 109.179688 133.949219 109.796875 134.367188 C 110.417969 134.78125 111.050781 135.167969 111.707031 135.527344 C 112.359375 135.886719 113.03125 136.210938 113.714844 136.507812 C 114.398438 136.804688 115.09375 137.066406 115.804688 137.300781 C 116.511719 137.53125 117.230469 137.730469 117.957031 137.894531 C 118.683594 138.0625 119.417969 138.195312 120.15625 138.292969 C 120.894531 138.390625 121.636719 138.457031 122.382812 138.484375 C 123.125 138.515625 123.871094 138.511719 124.613281 138.472656 C 125.359375 138.433594 126.101562 138.359375 126.839844 138.253906 C 127.574219 138.148438 128.308594 138.007812 129.03125 137.832031 C 129.757812 137.660156 130.472656 137.449219 131.179688 137.210938 C 131.882812 136.972656 132.578125 136.699219 133.257812 136.394531 C 133.9375 136.089844 134.605469 135.757812 135.253906 135.390625 C 135.90625 135.027344 136.535156 134.632812 137.148438 134.207031 C 137.765625 133.785156 138.355469 133.332031 138.929688 132.855469 C 142.898438 129.355469 158.921875 113.679688 169.226562 103.617188 C 190.09375 124.40625 226.984375 161.253906 243.332031 177.660156 C 243.894531 178.105469 244.40625 178.601562 244.859375 179.15625 C 245.316406 179.710938 245.707031 180.304688 246.035156 180.945312 C 246.363281 181.582031 246.617188 182.246094 246.800781 182.9375 C 246.984375 183.632812 247.09375 184.335938 247.128906 185.054688 C 247.160156 185.769531 247.117188 186.480469 246.996094 187.1875 C 246.875 187.894531 246.683594 188.582031 246.414062 189.246094 C 246.148438 189.910156 245.8125 190.539062 245.410156 191.132812 C 245.007812 191.726562 244.542969 192.269531 244.023438 192.761719 Z M 244.023438 192.761719 " fill-opacity="1" fill-rule="nonzero"/></svg>